<?xml version="1.0" encoding="utf-8"?>
<!-- Generator: Adobe Illustrator 21.0.0, SVG Export Plug-In . SVG Version: 6.00 Build 0)  -->
<svg version="1.1" id="Layer_1" xmlns="http://www.w3.org/2000/svg" xmlns:xlink="http://www.w3.org/1999/xlink" x="0px" y="0px"
	 viewBox="0 0 1366 768" style="enable-background:new 0 0 1366 768;" xml:space="preserve">
<style type="text/css">
	.st0{fill:#FFFFFF;stroke:#F2D970;stroke-miterlimit:10;}
	.st1{fill:#E8E6DD;}
	.st2{fill:none;stroke:#E2BD23;stroke-miterlimit:10;}
	.st3{fill:#FFFFFF;}
	.st4{fill:#EFDF9E;}
	.st5{fill:#FFFFFF;stroke:#BA7820;stroke-miterlimit:10;}
	.st6{fill:#DDD9C7;stroke:#EFC926;stroke-miterlimit:10;}
	.st7{fill:none;stroke:#EFC923;stroke-miterlimit:10;}
	.st8{fill:#E8E6DD;stroke:#E2BD23;stroke-miterlimit:10;}
	.st9{fill:none;stroke:#F2D970;stroke-miterlimit:10;}
	.st10{fill:none;stroke:#000000;stroke-miterlimit:10;}
	.st11{fill:#F2D557;stroke:#000000;stroke-miterlimit:10;}
	.st12{fill:none;stroke:#EFC920;stroke-miterlimit:10;}
</style>
<g id="Layer_1_1_">
	<rect x="18.5" y="-8.5" class="st0" width="1366" height="768"/>
	<g>
		
			<image style="overflow:visible;opacity:0.35;enable-background:new    ;" width="670" height="303" xlink:href="420ECE88.png"  transform="matrix(1 0 0 1 489 506)">
		</image>
		<g>
			<path class="st1" d="M600.1,624c12.9,0,24.2,7,30.3,17.3c2.5-14.2,15-25.1,29.9-25.1c13.2,0,24.4,8.4,28.6,20.1
				c1.3,0.9,2.5,1.9,3.6,3c1.4-0.3,2.8-0.5,4.3-0.6c5.3-17,19.9-29.8,37.8-32.7c3.4-0.9,6.9-1.3,10.6-1.3c11.8,0,22.6,4.8,30.3,12.6
				c10.5,0.6,19.8,6,25.7,13.9c1.2,0.2,2.4,0.5,3.5,0.8c4-22.8,23.9-40.2,47.8-40.2c24.1,0,44,17.5,47.9,40.5
				c3.8,0.5,7.5,1.7,10.8,3.3c7.9-8.9,19.3-14.5,32.1-14.5c5.3,0,10.4,1,15.1,2.7c4.5-1.7,9.3-2.6,14.4-2.6c16.2,0,30.1,9.4,36.7,23
				c6.8-4.8,15.2-7.6,24.1-7.6c9.2,0,17.7,2.9,24.6,7.9c14.7,6.5,25,21.2,25,38.3c0,23.1-18.7,41.8-41.8,41.8
				c-5.7,0-11.2-1.2-16.1-3.2c-7.7,13-22,21.8-38.2,21.8c-14.2,0-26.8-6.6-34.9-16.9c-17.4-0.1-32.5-10-40-24.5
				c-5,2.6-10.7,4.1-16.8,4.1c-6.3,4.8-14.1,7.6-22.6,7.6c-11.2,0-21.2-4.9-28.1-12.7c-5.2,8-14.1,13.2-24.3,13.2
				c-1.7,0-3.4-0.2-5-0.4c-5.3,15.1-19.7,25.9-36.6,25.9c-21.4,0-38.8-17.3-38.8-38.8c0-0.2,0-0.4,0-0.6c-8.2-0.3-15.9-2.7-22.5-6.7
				c-1.5,1.2-3.1,2.2-4.8,3.1c-3.1,4.2-8.1,7-13.8,7c-4.8,0-9.2-2-12.3-5.2c-2,1.3-4.2,2.3-6.4,3.2c-1.1,1-2.5,1.6-4.1,1.6
				c-0.3,0-0.6,0-0.9-0.1c-2.7,0.6-5.6,1-8.5,1c-17.4,0-32-11.8-36.2-27.9c-6,10.7-17.5,17.9-30.6,17.9c-0.6,0-1.1,0-1.7,0
				c-0.3,0-0.5,0-0.8,0c-1.7,0-3.3-0.3-4.8-0.7c-15.9-3.3-27.9-17.4-27.9-34.3C565,639.8,580.8,624,600.1,624z"/>
			<path class="st2" d="M600.1,624c12.9,0,24.2,7,30.3,17.3c2.5-14.2,15-25.1,29.9-25.1c13.2,0,24.4,8.4,28.6,20.1
				c1.3,0.9,2.5,1.9,3.6,3c1.4-0.3,2.8-0.5,4.3-0.6c5.3-17,19.9-29.8,37.8-32.7c3.4-0.9,6.9-1.3,10.6-1.3c11.8,0,22.6,4.8,30.3,12.6
				c10.5,0.6,19.8,6,25.7,13.9c1.2,0.2,2.4,0.5,3.5,0.8c4-22.8,23.9-40.2,47.8-40.2c24.1,0,44,17.5,47.9,40.5
				c3.8,0.5,7.5,1.7,10.8,3.3c7.9-8.9,19.3-14.5,32.1-14.5c5.3,0,10.4,1,15.1,2.7c4.5-1.7,9.3-2.6,14.4-2.6c16.2,0,30.1,9.4,36.7,23
				c6.8-4.8,15.2-7.6,24.1-7.6c9.2,0,17.7,2.9,24.6,7.9c14.7,6.5,25,21.2,25,38.3c0,23.1-18.7,41.8-41.8,41.8
				c-5.7,0-11.2-1.2-16.1-3.2c-7.7,13-22,21.8-38.2,21.8c-14.2,0-26.8-6.6-34.9-16.9c-17.4-0.1-32.5-10-40-24.5
				c-5,2.6-10.7,4.1-16.8,4.1c-6.3,4.8-14.1,7.6-22.6,7.6c-11.2,0-21.2-4.9-28.1-12.7c-5.2,8-14.1,13.2-24.3,13.2
				c-1.7,0-3.4-0.2-5-0.4c-5.3,15.1-19.7,25.9-36.6,25.9c-21.4,0-38.8-17.3-38.8-38.8c0-0.2,0-0.4,0-0.6c-8.2-0.3-15.9-2.7-22.5-6.7
				c-1.5,1.2-3.1,2.2-4.8,3.1c-3.1,4.2-8.1,7-13.8,7c-4.8,0-9.2-2-12.3-5.2c-2,1.3-4.2,2.3-6.4,3.2c-1.1,1-2.5,1.6-4.1,1.6
				c-0.3,0-0.6,0-0.9-0.1c-2.7,0.6-5.6,1-8.5,1c-17.4,0-32-11.8-36.2-27.9c-6,10.7-17.5,17.9-30.6,17.9c-0.6,0-1.1,0-1.7,0
				c-0.3,0-0.5,0-0.8,0c-1.7,0-3.3-0.3-4.8-0.7c-15.9-3.3-27.9-17.4-27.9-34.3C565,639.8,580.8,624,600.1,624z"/>
		</g>
	</g>
	<g>
		
			<image style="overflow:visible;opacity:0.35;enable-background:new    ;" width="245" height="460" xlink:href="420ECE89.png"  transform="matrix(1 0 0 1 663 145)">
		</image>
		<g>
			<g>
				<path class="st3" d="M752.6,410l0,48.4l-0.3,0.2c-2.4,2-4.8,3.9-7.3,5.7v-57.1l0.3,0.1C747.6,408.6,750,409.4,752.6,410z"/>
				<path class="st3" d="M757.7,453.7c-1.4,1.4-2.9,2.8-4.3,4v-47.6c1.5,0.3,3.1,0.5,4.6,0.6l0,42.7
					C757.9,453.5,757.8,453.6,757.7,453.7z"/>
				<path class="st3" d="M752.6,373.3V396l-5.5,0.6l-2.1,10.7v-38.5C746.8,370.3,749.4,372.2,752.6,373.3z"/>
				<path class="st3" d="M753.3,373.6c1.4,0.5,3,0.8,4.6,0.9l0,20.9l-4.6,0.5V373.6z"/>
				<path class="st3" d="M773.8,384.8c0.2,2-0.8,4.4-2.7,6.3v-10.9C772.8,381.5,773.7,383,773.8,384.8z"/>
				<path class="st3" d="M775.5,431.5c-0.1,0.2-0.2,0.4-0.3,0.5c-1.3,2-2.7,3.9-4,5.8v-29.2c1.6-0.6,3.1-1.4,4.5-2.2L775.5,431.5z"
					/>
				<path class="st3" d="M795.5,373.1c-1.5,0.3-3.1,0.6-4.7,1.2l-0.6-55.9c1.9,0.6,3.8,1.3,5.7,2.2L795.5,373.1z"/>
				<path class="st3" d="M782.3,402.6c2.7,0,5.4-0.4,8.1-1l0,8.1c-0.1,0.1-0.2,0.2-0.3,0.3c-3,3.2-6,7.9-9.3,13.4
					c-1.5,2.4-2.9,4.7-4.4,7l0.1-24.3c1.4-0.9,3-2.1,4.5-3.4C781.4,402.6,781.8,402.6,782.3,402.6z"/>
				<path class="st3" d="M770.4,379.8V392c-1.4,1.2-3.2,2.2-5.3,2.7l-6.3,0.7v-20.8c0.1,0,0.2,0,0.2,0c0.3,0,0.5,0,0.7,0
					c4-0.2,8.1-1.7,10.7-4v5.9c-2.7,0.3-5.5,1-8.1,2.2l0.3,0.7C765.3,378.5,768.2,378.6,770.4,379.8z"/>
				<path class="st3" d="M770.4,408.9v30c-0.1,0.1-0.2,0.3-0.3,0.5c-3.5,4.7-7,8.8-10.7,12.6c-0.2,0.2-0.4,0.4-0.6,0.6l0,0v-41.8
					c0.3,0,0.6,0,0.9,0C763.3,410.8,767,410.2,770.4,408.9z"/>
				<path class="st3" d="M825.5,388.6v149.3h-8.9c0-18.3,0-36.7,0-55l0.3,1l-0.3-6.9c0-27.5,0-55.1,0-82.7c1.5-0.6,2.9-1.3,4.2-2.1
					C822.3,391.3,823.9,390.1,825.5,388.6z"/>
				<path class="st3" d="M790.4,459.9v28.8l-13.2-10.3l0.1,0l0-0.3c-0.2-6.7,0.3-23.9,9.8-39.3c1-1.6,2.1-3.2,3.3-4.7v13.6
					c-7.7,9.3-9.7,24.8-10.2,29.6l0.8,0.1C783,469.4,786.4,463.2,790.4,459.9z"/>
				<path class="st3" d="M795.2,443.2c-1.1,0.7-2.2,1.6-3.3,2.7c-0.3,0.3-0.5,0.5-0.7,0.8V433c0.1-0.1,0.2-0.3,0.3-0.4
					c1.2-1.4,2.4-2.7,3.7-3.9L795.2,443.2L795.2,443.2z"/>
				<path class="st3" d="M776.6,317.3c4.5-0.5,9-0.1,13.3,1.1l0.3,56.1c-0.7,0.3-1.5,0.6-2.2,0.9l0.3,0.7c0.7-0.2,1.3-0.4,1.9-0.5
					l0.1,12.8c-0.2,0-0.3,0.1-0.5,0.1l-0.7,0.1c0-0.6,0-1.2-0.1-1.8c-0.6-3.3-2.8-6.3-6.3-8.2c-1.9-1-4-1.7-6.2-2.1l0-22.3
					c0-0.1,0.1-0.1,0.1-0.2c0.6-1.2,0.5-2.6-0.1-4.1L776.6,317.3z"/>
				<path class="st3" d="M792.5,458.4c0.9-0.5,1.8-0.9,2.7-1.1v35.1l-4-3.1v-30C791.6,458.9,792.1,458.6,792.5,458.4z"/>
				<path class="st3" d="M758.8,324.7c3.2-2.6,7-4.8,11.7-6.2v24.3c-2.8-2.3-6.4-4.6-10.8-6.8l-0.9-0.5V324.7z"/>
				<path class="st3" d="M771.2,354c0.3,0.9,0.7,1.8,0.9,2.6c-0.3,0.1-0.6,0.2-0.9,0.3V354z"/>
				<path class="st3" d="M776.2,354.8l-0.2,21.7c-1.5-0.2-3.1-0.2-4.8-0.1v-6.6c2.8-3,3.3-7.5,1.9-12.8
					C774.4,356.4,775.5,355.7,776.2,354.8z"/>
				<path class="st3" d="M770.4,357.1c-2.6,0.6-5.7,0.8-8.2,0c-1.2-0.4-2.3-0.9-3.4-1.5v-19.5l0.4,0.4c5.1,5.2,8.9,10.6,11.2,15.6
					L770.4,357.1z"/>
				<path class="st3" d="M776.5,317.3l-0.3,32c-0.9-1.8-2.6-3.8-5-5.8v-25.2c0.9-0.3,1.8-0.5,2.7-0.6
					C774.8,317.5,775.6,317.4,776.5,317.3z"/>
				<path class="st3" d="M795.4,385.5c-1.2,1.1-2.7,2.1-4.4,2.7l-0.1-12.7c1.7-0.2,3.3,0,4.6,0.6L795.4,385.5z"/>
				<polygon class="st3" points="741,490.6 740.9,490.6 740.9,490.2 741,490.3 				"/>
				<path class="st3" d="M815.7,241.4v125.8c-2.2,0.3-4.4,0.9-6.6,1.9l0.3,0.7c2.2-0.8,4.5-0.7,6.3,0.1v10.4c-1,0.9-2.3,1.6-3.8,2
					c0-0.5,0-1,0-1.5c-0.3-2.5-1.9-4.6-4.4-6.1c-3.1-1.8-7.1-2.3-11.4-1.7v-52.3c6.5,3.2,12.3,8.3,16.4,15l1.6,2.6l-0.9-2.9
					c-1.3-4.1-5.8-16.2-17.2-24.9v-13.2l0.1-18c0.1,0.3,0.2,0.5,0.4,0.5l0.2,0.1l0.2-0.1c1.1-0.5,0.8-13.3-0.2-18.2
					c-0.2-1-0.4-1.8-0.7-2.3v-4.7l-1.1,3.8c0,0,0,0-0.1,0c-0.8,0-1.6,0.9-2.5,3.2c-2,4.8-4.6,16.5-3.3,17.5c0.1,0.1,0.3,0.1,0.5,0.1
					c0.1,0,0.1,0,0.2-0.1l0.1,27.5c-0.8-0.4-1.6-0.8-2.5-1.2c-3.7-1.7-7.3-2.7-10.8-3.2l0-11.4l0-1.3c0.1,0.2,0.2,0.3,0.3,0.4
					l0.2,0.1l0.2,0c1.2-0.4,0.3-9.3,0.1-10.6c-0.2-1.7-0.5-2.9-0.8-3.8v-2l-0.4,0.9c-0.6-1.2-1.2-1.3-1.4-1.3
					c-1.1-0.1-2.4,1.7-3.6,5.3c-1,2.8-2.9,10-1.6,10.7c0.3,0.2,0.5,0.1,0.8-0.1v12.7c-4.3,0-8.2,0.6-11.7,1.4v-3.7
					c0.1,0.2,0.2,0.4,0.4,0.5l0.2,0.1l0.2,0c1.2-0.4,0.3-9.3,0.1-10.6c-0.3-1.8-0.5-3.1-0.8-4v-2.4l-0.6,1.1c-0.5-0.9-1-0.9-1.2-1
					c-0.1,0-0.2,0-0.3,0c19.8-17.5,48.5-37.5,51.5-38.8C810.7,243.3,813.2,242.3,815.7,241.4z"/>
				<path class="st3" d="M771.2,301.7v-13.5c0.1-0.1,0.2-0.2,0.3-0.4c0.3-0.3,0.5-0.7,0.8-1l2.8-0.7c0.6,0.6,1,1.8,1.2,2.5
					c0.1,0.3,0.2,0.6,0.3,0.8v1.3l-0.1,11.4C774.7,301.9,773,301.7,771.2,301.7z"/>
				<path class="st3" d="M790,306.7l-0.3-27.6c0.4-0.2,0.7-0.7,1.3-1.7c0.3-0.5,0.7-1.1,1.1-1.6l2.1-1.2c0.9,0.5,1.4,2.6,1.7,3.8
					c0,0.2,0.1,0.3,0.1,0.5v18.5l-0.1,13.1C794.2,309.1,792.2,307.8,790,306.7z"/>
				<path class="st3" d="M818.9,374.3c0.1,1.7-0.8,3.8-2.4,5.4c0-3.1,0-6.2,0-9.2c0,0,0.1,0.1,0.2,0.1
					C818,371.5,818.8,372.8,818.9,374.3z"/>
				<path class="st3" d="M808.2,233.8c5.5-2.3,9.7-2.7,12.6-1c2.4,1.3,4,4.1,4.7,8.1v127.5c-2.7-1.2-5.7-1.6-8.9-1.3
					c0-31.6,0-63.1,0-94.7c0-10.7,0-21.4,0-32.1c-0.2,0.1-0.4,0.1-0.5,0.2c-2.7,0.9-5.5,2-8.2,3.1c-4.6,1.9-7.4,4.6-8.5,5.4
					c-14.6,11.7-28.1,17.9-48.2,38c-2.3,2.3-6,6-10.2,10.9v-7.1C771.6,258.9,794.1,239.8,808.2,233.8z"/>
				<path class="st3" d="M755.1,284.5c-0.6,0.9-1.2,2.2-1.8,3.8c-1,2.8-2.9,10-1.6,10.7c0.3,0.2,0.6,0.1,0.9-0.1v6.2
					c-3.5,1.4-6.2,2.9-7.6,3.8v-12.4h-0.8v12.9c0,0-0.1,0.1-0.1,0.1l-0.2,0.1l0.3,8.1v12.4l-0.5-2.5l-1.3,38.7l0.1,0.1
					c0.2,0.2,0.8,0.9,1.7,1.7v96.8c-0.8,0.6-1.7,1.1-2.5,1.7l-0.2,0.1l-0.4,22.4l-0.1,0v-190c2.3-3.1,5.9-7.1,10.8-11.7
					C752.8,286.6,753.9,285.5,755.1,284.5z"/>
				<path class="st3" d="M741.6,490.6l72.9,43.4v-26.5l-18.5-14.4v-35.9c1.3-0.2,2.5-0.1,3.8,0.2c9.8,2.5,15,19.3,15.9,22.5v57.8
					l-74.5-46.8L741.6,490.6L741.6,490.6z"/>
				<path class="st3" d="M758,355.1c-1.7-1.1-3.3-2.6-4.6-4.3v-20.8c1.3-1.6,2.9-3.2,4.6-4.7v9.7l-0.5-0.3l0.5,0.5L758,355.1z"/>
				<path class="st3" d="M752.6,331v18.8c-2.4-3.2-4.2-6.9-5.5-10.2C748.1,337.5,749.9,334.3,752.6,331z"/>
				<path class="st3" d="M815.7,394.6v61.6l-0.3-8.4l0-0.1l-0.1-0.1c-0.6-0.6-6-6.4-12.8-6.5c-2.2,0-4.4,0.5-6.4,1.6v-14.8
					c0.1-0.1,0.2-0.2,0.3-0.3c7.7-6.7,15.3-8.5,18.2-8.9l0.6-0.1l-0.3-0.5c-5.3-8.5-10.6-12.8-15.7-12.9c-0.2,0-0.3,0-0.5,0
					c-0.9,0-1.7,0.2-2.6,0.5v-6.3c1.1-0.5,2.2-1.1,3.3-1.8c0.8-0.5,1.8-1.1,2.7-1.8c1.5,0.2,2.9,0.4,4.4,0.4
					C809.6,396.3,812.8,395.7,815.7,394.6z"/>
				<path class="st3" d="M795.1,406.1c-1.3,0.6-2.6,1.4-3.9,2.6l-0.1-7.5c1.4-0.4,2.8-0.9,4.2-1.5l0,6.2
					C795.2,406.1,795.1,406.1,795.1,406.1z"/>
				<path class="st3" d="M798.2,379.9c0,1.3-0.6,2.9-1.7,4.3l-0.5,0.1l0,0.1v-8c0.1,0.1,0.2,0.1,0.3,0.2
					C797.5,377.4,798.2,378.6,798.2,379.9z"/>
				<path class="st3" d="M753.3,298.1c0.1-0.1,0.2-0.2,0.3-0.3c0.8-1,1.9-2.4,3-2.2c0.6,0.1,1.1,0.9,1.5,1.7v6
					c-1.7,0.5-3.2,1-4.7,1.5L753.3,298.1L753.3,298.1z"/>
				<polygon class="st4" points="813.7,532.6 741.9,489.9 741.9,489.9 741.9,489.7 776.8,479.3 776.7,479 813.7,507.8 				"/>
				<path class="st4" d="M752.8,459.2l0.3-0.3c0.2-0.1,0.3-0.3,0.5-0.4c1.5-1.3,3.1-2.8,4.6-4.3c0.2-0.2,0.4-0.4,0.6-0.6l0.5-0.5
					c0.2-0.2,0.4-0.4,0.6-0.6c3.8-3.9,7.3-8,10.7-12.7c0.3-0.4,0.5-0.7,0.8-1.1c1.5-2,2.9-4,4.3-6.3c0.3-0.4,0.5-0.8,0.8-1.2
					c1.7-2.5,3.1-4.9,4.8-7.6c3.3-5.4,6.3-10.1,9.2-13.2c0.3-0.3,0.5-0.5,0.8-0.8c1.3-1.3,2.6-2.2,3.9-2.8c0.3-0.1,0.5-0.2,0.8-0.3
					c0.8-0.3,1.7-0.4,2.5-0.5c0.1,0,0.3,0,0.4,0c4.8,0.1,9.7,4.1,14.8,12c-3.3,0.6-10.7,2.6-18,9c-0.3,0.2-0.5,0.5-0.8,0.7
					c-1.4,1.3-2.8,2.7-4.1,4.3c-0.3,0.3-0.5,0.6-0.8,1c-1.3,1.6-2.5,3.4-3.7,5.2c-9.5,15.4-10.2,32.5-10,39.5l-0.8,0.3l0.7,0.5
					L741.9,489l0.4-21.8C745.9,464.8,749.4,462.1,752.8,459.2z"/>
				<path class="st4" d="M802.8,395.3c4.1-3.2,8.2-7.8,9-12.1c4.5-1.1,8.1-5.2,7.8-9c-0.1-1.7-1-3.3-2.5-4.3
					c-1.2-0.8-2.6-1.3-4.2-1.3c4.8-1.3,9.7-1,13.4,1.1c2.7,1.5,4.4,3.8,4.8,6.3c1,6-5.9,12.6-10.8,15.6
					C815.2,394.8,808.9,396.1,802.8,395.3z"/>
				<path class="st5" d="M740,489.7l0.1,0.1v1.2v0.8l75.8,46.9l0.7,0.4v-0.3h9.8V387.8c3.4-3.4,6.3-7.8,5.6-12
					c-0.5-2.8-2.3-5.2-5.2-6.8c-0.1-0.1-0.3-0.1-0.4-0.2V240.9l0-0.1c-0.8-4.3-2.5-7.2-5.1-8.7c-2.8-1.6-6.6-1.5-11.5,0.2
					c-14.2,5-37.1,24.3-69.5,58.1l-0.1,0.1v8.5v190.6L740,489.7z M816.5,394.3c1.5-0.6,2.9-1.3,4.2-2.1c1.5-0.9,3.2-2.2,4.7-3.6
					v149.3h-8.9c0-18.3,0-36.7,0-55l0.3,1l-0.3-6.9C816.5,449.4,816.5,421.9,816.5,394.3z M802.8,395.3c4.1-3.2,8.2-7.8,9-12.1
					c4.5-1.1,8.1-5.2,7.8-9c-0.1-1.7-1-3.3-2.5-4.3c-1.2-0.8-2.6-1.3-4.2-1.3c4.8-1.3,9.7-1,13.4,1.1c2.7,1.5,4.4,3.8,4.8,6.3
					c1,6-5.9,12.6-10.8,15.6C815.2,394.8,808.9,396.1,802.8,395.3z M813.7,507.8v24.8l-71.8-42.7l0,0v-0.1l35-10.5l-0.1-0.3
					L813.7,507.8z M791.2,489.3v-30c0.4-0.3,0.9-0.6,1.3-0.9c0.9-0.5,1.8-0.9,2.7-1.1v35.1L791.2,489.3z M780.2,477.1l0.8,0.1
					c2-7.9,5.4-14,9.4-17.4v28.8l-13.2-10.3l0.1,0l0-0.3c-0.2-6.7,0.3-23.9,9.8-39.3c1-1.6,2.1-3.2,3.3-4.7v13.6
					C782.7,456.9,780.7,472.4,780.2,477.1z M741.9,488.9l0.4-21.8c3.6-2.3,7.1-5,10.5-7.9l0.3-0.3c0.2-0.1,0.3-0.3,0.5-0.4
					c1.5-1.3,3.1-2.8,4.6-4.3c0.2-0.2,0.4-0.4,0.6-0.6l0.5-0.5c0.2-0.2,0.4-0.4,0.6-0.6c3.8-3.9,7.3-8,10.7-12.7
					c0.3-0.4,0.5-0.7,0.8-1.1c1.5-2,2.9-4,4.3-6.3c0.3-0.4,0.5-0.8,0.8-1.2c1.7-2.5,3.1-4.9,4.8-7.6c3.3-5.4,6.3-10.1,9.2-13.2
					c0.3-0.3,0.5-0.5,0.8-0.8c1.3-1.3,2.6-2.2,3.9-2.8c0.3-0.1,0.5-0.2,0.8-0.3c0.8-0.3,1.7-0.4,2.5-0.5c0.1,0,0.3,0,0.4,0
					c4.8,0.1,9.7,4.1,14.8,12c-3.3,0.6-10.7,2.6-18,9c-0.3,0.2-0.5,0.5-0.8,0.7c-1.4,1.3-2.8,2.7-4.1,4.3c-0.3,0.3-0.5,0.6-0.8,1
					c-1.3,1.6-2.5,3.4-3.7,5.2c-9.5,15.4-10.2,32.5-10,39.5l-0.8,0.3l0.7,0.5L741.9,488.9z M791.5,432.6c1.2-1.4,2.4-2.7,3.7-3.9
					v14.5c-1.1,0.7-2.2,1.6-3.3,2.7c-0.3,0.3-0.5,0.5-0.7,0.8V433C791.3,432.9,791.4,432.7,791.5,432.6z M776.5,350l0.1-32.8
					c4.5-0.5,9-0.1,13.3,1.1l0.3,56.1c-0.7,0.3-1.5,0.6-2.2,0.9l0.3,0.7c0.7-0.2,1.3-0.4,1.9-0.5l0.1,12.8c-0.2,0-0.3,0.1-0.5,0.1
					l-0.7,0.1c0-0.6,0-1.2-0.1-1.8c-0.6-3.3-2.8-6.3-6.3-8.2c-1.9-1-4-1.7-6.2-2.1l0-22.3c0-0.1,0.1-0.1,0.1-0.2
					C777.2,352.9,777.2,351.5,776.5,350z M758.8,335.5v-10.8c3.2-2.6,7-4.8,11.7-6.2v24.3c-2.8-2.3-6.4-4.6-10.8-6.8L758.8,335.5z
					 M759.2,336.6c5.1,5.2,8.9,10.6,11.2,15.6v4.9c-2.6,0.6-5.7,0.8-8.2,0c-1.2-0.4-2.3-0.9-3.4-1.5v-19.5L759.2,336.6z
					 M775.9,353.8c-0.5,1-1.6,1.8-3,2.5c-1.7-5.6-5.6-12-11.5-18.4C771.9,343.6,777.7,350,775.9,353.8z M772.1,356.6
					c-0.3,0.1-0.6,0.2-0.9,0.3V354C771.5,354.9,771.9,355.7,772.1,356.6z M773.1,357c1.3-0.6,2.3-1.3,3-2.2l-0.2,21.7
					c-1.5-0.2-3.1-0.2-4.8-0.1v-6.6C774,366.7,774.5,362.2,773.1,357z M771.2,318.3c0.9-0.3,1.8-0.5,2.7-0.6
					c0.8-0.2,1.7-0.3,2.5-0.4l-0.3,32c-0.9-1.8-2.6-3.8-5-5.8V318.3z M782.3,379.3c3.3,1.9,5.4,4.6,5.9,7.7
					c1.2,7.1-6.8,15-12.5,18.5c-8.9,5.5-20.3,6-29.9,1.3l1.9-9.6l17.5-1.9c5.4-1.2,9.7-6,9.4-10.6c-0.2-2.1-1.2-3.9-3.1-5.2
					c-1.5-1-3.3-1.6-5.3-1.6C772,376.4,777.8,376.8,782.3,379.3z M762.3,378.7l0.3,0.7c2.8-0.9,5.7-0.8,7.9,0.4V392
					c-1.4,1.2-3.2,2.2-5.3,2.7l-6.3,0.7v-20.8c0.1,0,0.2,0,0.2,0c0.3,0,0.5,0,0.7,0c4-0.2,8.1-1.7,10.7-4v5.9
					C767.7,376.8,765,377.5,762.3,378.7z M773.8,384.8c0.2,2-0.8,4.4-2.7,6.3v-10.9C772.8,381.5,773.7,383,773.8,384.8z M758,395.4
					l-4.6,0.5v-22.3c1.4,0.5,3,0.8,4.6,0.9L758,395.4z M745,407.3l0.3,0.1c2.3,1.2,4.8,2,7.3,2.6l0,48.4l-0.3,0.2
					c-2.4,2-4.8,3.9-7.3,5.7L745,407.3l0-38.5c1.8,1.5,4.4,3.3,7.6,4.5V396l-5.5,0.6L745,407.3z M758,410.7l0,42.7
					c-0.1,0.1-0.2,0.2-0.3,0.3c-1.4,1.4-2.9,2.8-4.3,4v-47.6C754.9,410.5,756.4,410.7,758,410.7z M759.6,410.8
					c3.7,0,7.3-0.6,10.8-1.9v30c-0.1,0.1-0.2,0.3-0.3,0.5c-3.5,4.7-7,8.8-10.7,12.6c-0.2,0.2-0.4,0.4-0.6,0.6l0,0v-41.8
					C759.1,410.8,759.3,410.8,759.6,410.8z M775.7,406.4l-0.2,25.1c-0.1,0.2-0.2,0.4-0.3,0.5c-1.3,2-2.7,3.9-4,5.8v-29.2
					C772.8,408,774.3,407.3,775.7,406.4z M776.4,406c1.4-0.9,3-2.1,4.5-3.4c0.4,0,0.9,0,1.3,0c2.7,0,5.4-0.4,8.1-1l0,8.1
					c-0.1,0.1-0.2,0.2-0.3,0.3c-3,3.2-6,7.9-9.3,13.4c-1.5,2.4-2.9,4.7-4.4,7L776.4,406z M790.2,318.5c1.9,0.6,3.8,1.3,5.7,2.2
					l-0.4,52.5c-1.5,0.3-3.1,0.6-4.7,1.2L790.2,318.5z M795.5,376.1l-0.1,9.5c-1.2,1.1-2.7,2.1-4.4,2.7l-0.1-12.7
					C792.5,375.3,794.1,375.5,795.5,376.1z M807.1,375.4c2.3,1.3,3.8,3.3,4.1,5.5c0.8,5.8-7.1,13-12.2,16.1
					c-5.3,3.2-11.3,4.8-17.3,4.7c3.7-3.4,6.9-7.9,7.3-12.3l0.9-0.1c5-1.3,9.1-5.6,9-9.4c0-1.6-0.8-3-2.2-4c-1.3-0.9-2.8-1.3-4.6-1.3
					c0,0,0,0,0,0C798.7,372.7,804,373.6,807.1,375.4z M796.4,376.6c1.2,0.8,1.8,2,1.9,3.4c0,1.3-0.6,2.9-1.7,4.3l-0.5,0.1l0,0.1v-8
					C796.2,376.5,796.3,376.5,796.4,376.6z M795.3,399.8l0,6.2c-0.1,0-0.1,0-0.2,0.1c-1.3,0.6-2.6,1.4-3.9,2.6l-0.1-7.5
					C792.5,400.9,793.9,400.4,795.3,399.8z M802,395.9c1.5,0.2,2.9,0.4,4.4,0.4c3.2,0,6.3-0.5,9.3-1.6v61.6l-0.3-8.4l0-0.1l-0.1-0.1
					c-0.6-0.6-6-6.4-12.8-6.5c-2.2,0-4.4,0.5-6.4,1.6v-14.8c0.1-0.1,0.2-0.2,0.3-0.3c7.7-6.7,15.3-8.5,18.2-8.9l0.6-0.1l-0.3-0.5
					c-5.3-8.5-10.6-12.8-15.7-12.9c-0.2,0-0.3,0-0.5,0c-0.9,0-1.7,0.2-2.6,0.5v-6.3c1.1-0.5,2.2-1.1,3.3-1.8
					C800.2,397.2,801.1,396.6,802,395.9z M743.2,366.1l1-32.2c1.8,6.3,7,21,17.7,24c3,0.9,7.2,0.6,10.4-0.5c1.3,5.1,0.8,9.4-2,12.2
					c-2.4,2.4-6.5,4-10.6,4.2c-0.2,0-0.5,0-0.7,0C750.6,373.8,744.3,367.3,743.2,366.1z M757.5,334.9l0.5,0.5l0,19.8
					c-1.7-1.1-3.3-2.6-4.6-4.3V330c1.3-1.6,2.9-3.2,4.6-4.7v9.7L757.5,334.9z M752.6,349.8c-2.4-3.2-4.2-6.9-5.5-10.2
					c1-2.1,2.8-5.3,5.5-8.6V349.8z M744.7,310c2.8-1.9,21.4-13.3,42.4-3.9c15,6.7,21.8,20.2,24.3,26.6c-9-12.3-23.4-18.5-37.6-15.8
					c-15.7,3-24,15.6-27.1,21.7c-0.4-1-0.7-1.9-1-2.8L744.7,310z M758,303.3c-1.7,0.5-3.2,1-4.7,1.5v-6.7c0.1-0.1,0.2-0.2,0.3-0.3
					c0.8-1,1.9-2.4,3-2.2c0.6,0.1,1.1,0.9,1.5,1.7L758,303.3z M753,297.3c-0.3,0.3-0.6,0.8-0.8,0.9c-0.4-1.4,1.4-9.7,3.6-13.3
					c0.7-1.1,1.1-1.2,1.2-1.2c0,0,0,0,0,0c0.2,0,0.4,0.2,0.6,0.6c1.5,2.6,1.9,11,1.7,13.9c-0.4-1.3-1.1-3.1-2.5-3.4
					C755.2,294.6,753.9,296.2,753,297.3z M756.7,283.1c19.8-17.5,48.5-37.5,51.5-38.8c2.5-1,5-2,7.6-2.9v125.8
					c-2.2,0.3-4.4,0.9-6.6,1.9l0.3,0.7c2.2-0.8,4.5-0.7,6.3,0.1v10.4c-1,0.9-2.3,1.6-3.8,2c0-0.5,0-1,0-1.5
					c-0.3-2.5-1.9-4.6-4.4-6.1c-3.1-1.8-7.1-2.3-11.4-1.7v-52.3c6.5,3.2,12.3,8.3,16.4,15l1.6,2.6l-0.9-2.9
					c-1.3-4.1-5.8-16.2-17.2-24.9v-13.2l-0.1,13.1c-1.8-1.4-3.8-2.6-5.9-3.8l-0.3-27.6c0.4-0.2,0.7-0.7,1.3-1.7
					c0.3-0.5,0.7-1.1,1.1-1.6l2.1-1.2c0.9,0.5,1.4,2.6,1.7,3.8c0,0.2,0.1,0.3,0.1,0.5v18.5l0.1-18c0.1,0.3,0.2,0.5,0.4,0.5l0.2,0.1
					l0.2-0.1c1.1-0.5,0.8-13.3-0.2-18.2c-0.2-1-0.4-1.8-0.7-2.3v-4.7l-1.1,3.8c0,0,0,0-0.1,0c-0.8,0-1.6,0.9-2.5,3.2
					c-2,4.8-4.6,16.5-3.3,17.5c0.1,0.1,0.3,0.1,0.5,0.1c0.1,0,0.1,0,0.2-0.1l0.1,27.5c-0.8-0.4-1.6-0.8-2.5-1.2
					c-3.7-1.7-7.3-2.7-10.8-3.2l0-11.4l-0.1,11.4c-1.8-0.3-3.6-0.5-5.4-0.5v-13.5c0.1-0.1,0.2-0.2,0.3-0.4c0.3-0.3,0.5-0.7,0.8-1
					l2.8-0.7c0.6,0.6,1,1.8,1.2,2.5c0.1,0.3,0.2,0.6,0.3,0.8v1.3l0-1.3c0.1,0.2,0.2,0.3,0.3,0.4l0.2,0.1l0.2,0
					c1.2-0.4,0.3-9.3,0.1-10.6c-0.2-1.7-0.5-2.9-0.8-3.8v-2l-0.4,0.9c-0.6-1.2-1.2-1.3-1.4-1.3c-1.1-0.1-2.4,1.7-3.6,5.3
					c-1,2.8-2.9,10-1.6,10.7c0.3,0.2,0.5,0.1,0.8-0.1v12.7c-4.3,0-8.2,0.6-11.7,1.4v-3.7c0.1,0.2,0.2,0.4,0.4,0.5l0.2,0.1l0.2,0
					c1.2-0.4,0.3-9.3,0.1-10.6c-0.3-1.8-0.5-3.1-0.8-4v-2.4l-0.6,1.1c-0.5-0.9-1-0.9-1.2-1C756.9,283,756.8,283.1,756.7,283.1z
					 M770,288.3c-0.4-1.4,1.4-9.7,3.6-13.3c0.7-1.1,1.1-1.2,1.2-1.2c0,0,0,0,0,0c0.2,0,0.4,0.2,0.6,0.6c1.5,2.6,1.9,11,1.7,13.9
					c-0.4-1.3-1.1-3.1-2.5-3.4c-1.5-0.3-2.8,1.3-3.8,2.5C770.6,287.7,770.2,288.1,770,288.3z M789.5,278.3
					c-0.4-2.1,2.2-14.6,4.5-18.3c0.4-0.6,0.7-0.8,0.8-0.8c0,0,0,0,0,0c0.1,0,0.2,0.1,0.4,0.4c1.6,2.8,1.8,14.4,1.4,18.4
					c-0.4-1.6-1-3.9-2.4-4.2c-1.5-0.4-2.8,1.6-3.9,3.3C790.1,277.5,789.8,278,789.5,278.3z M816.7,370.5c1.3,0.9,2.1,2.3,2.2,3.7
					c0.1,1.7-0.8,3.8-2.4,5.4c0-3.1,0-6.2,0-9.2C816.6,370.5,816.7,370.5,816.7,370.5z M815.7,477.1c-2-5.9-7.1-18.4-15.7-20.5
					c-0.8-0.2-1.7-0.3-2.5-0.3c-1.8,0-3.6,0.5-5.4,1.5c-4.3,2.4-7.9,7.5-10.5,14.6c1.2-7,4.1-19.1,10.9-25.9c3-3.1,6.4-4.6,9.9-4.5
					c6.3,0.1,11.3,5.2,12.2,6.2L815.7,477.1z M741.2,490.8l0.4-0.1l0,0l72.9,43.4v-26.5l-18.5-14.4v-35.9c1.3-0.2,2.5-0.1,3.8,0.2
					c9.8,2.5,15,19.3,15.9,22.5v57.8L741.2,490.8z M740.9,490.2l0.1,0.1l0,0.3l-0.1-0.1L740.9,490.2L740.9,490.2z M740.9,299.3
					c2.3-3.1,5.9-7.1,10.8-11.7c1.1-1,2.2-2,3.4-3.1c-0.6,0.9-1.2,2.2-1.8,3.8c-1,2.8-2.9,10-1.6,10.7c0.3,0.2,0.6,0.1,0.9-0.1v6.2
					c-3.5,1.4-6.2,2.9-7.6,3.8v-12.4h-0.8v12.9c0,0-0.1,0.1-0.1,0.1l-0.2,0.1l0.3,8.1v12.4l-0.5-2.5l-1.3,38.7l0.1,0.1
					c0.2,0.2,0.8,0.9,1.7,1.7v96.8c-0.8,0.6-1.7,1.1-2.5,1.7l-0.2,0.1l-0.4,22.4l-0.1,0L740.9,299.3L740.9,299.3z M740.9,290.9
					c30.6-32,53.2-51.1,67.3-57.1c5.5-2.3,9.7-2.7,12.6-1c2.4,1.3,4,4.1,4.7,8.1v127.5c-2.7-1.2-5.7-1.6-8.9-1.3
					c0-31.6,0-63.1,0-94.7c0-10.7,0-21.4,0-32.1c-0.2,0.1-0.4,0.1-0.5,0.2c-2.7,0.9-5.5,2-8.2,3.1c-4.6,1.9-7.4,4.6-8.5,5.4
					c-14.6,11.7-28.1,17.9-48.2,38c-2.3,2.3-6,6-10.2,10.9L740.9,290.9L740.9,290.9z"/>
				<path class="st4" d="M807.1,375.4c2.3,1.3,3.8,3.3,4.1,5.5c0.8,5.8-7.1,13-12.2,16.1c-5.3,3.2-11.3,4.8-17.3,4.7
					c3.7-3.4,6.9-7.9,7.3-12.3l0.9-0.1c5-1.3,9.1-5.6,9-9.4c0-1.6-0.8-3-2.2-4c-1.3-0.9-2.8-1.3-4.6-1.3c0,0,0,0,0,0
					C798.7,372.7,804,373.6,807.1,375.4z"/>
				<path class="st4" d="M788.3,387c1.2,7.1-6.8,15-12.5,18.5c-8.9,5.5-20.3,6-29.9,1.3l1.9-9.6l17.5-1.9c5.4-1.2,9.7-6,9.4-10.6
					c-0.2-2.1-1.2-3.9-3.1-5.2c-1.5-1-3.3-1.6-5.3-1.6c5.8-1.6,11.6-1.2,16,1.3C785.6,381.2,787.7,383.9,788.3,387z"/>
				<path class="st4" d="M773.6,275.1c0.7-1.1,1.1-1.2,1.2-1.2c0,0,0,0,0,0c0.2,0,0.4,0.2,0.6,0.6c1.5,2.6,1.9,11,1.7,13.9
					c-0.4-1.3-1.1-3.1-2.5-3.4c-1.5-0.3-2.8,1.3-3.8,2.5c-0.3,0.3-0.6,0.8-0.8,0.9C769.6,286.9,771.4,278.7,773.6,275.1z"/>
				<path class="st4" d="M755.7,285c0.7-1.1,1.1-1.2,1.2-1.2c0,0,0,0,0,0c0.2,0,0.4,0.2,0.6,0.6c1.5,2.6,1.9,11,1.7,13.9
					c-0.4-1.3-1.1-3.1-2.5-3.4c-1.5-0.3-2.8,1.3-3.8,2.5c-0.3,0.3-0.6,0.8-0.8,0.9C751.8,296.9,753.5,288.6,755.7,285z"/>
				<path class="st4" d="M794.1,260c0.4-0.6,0.7-0.8,0.8-0.8c0,0,0,0,0,0c0.1,0,0.2,0.1,0.4,0.4c1.6,2.8,1.8,14.4,1.4,18.4
					c-0.4-1.6-1-3.9-2.4-4.2c-1.5-0.4-2.8,1.6-3.9,3.3c-0.3,0.4-0.6,0.9-0.8,1.2C789.1,276.2,791.7,263.7,794.1,260z"/>
				<path class="st4" d="M787.1,306.1c15,6.7,21.8,20.2,24.3,26.6c-9-12.3-23.4-18.5-37.6-15.8c-15.7,3-24,15.6-27.1,21.7
					c-0.4-1-0.7-1.9-1-2.8l-1-25.9C747.5,308.1,766.1,296.7,787.1,306.1z"/>
				<path class="st4" d="M800,456.5c-0.8-0.2-1.7-0.3-2.5-0.3c-1.8,0-3.6,0.5-5.4,1.5c-4.3,2.4-7.9,7.5-10.5,14.6
					c1.2-7,4.1-19.1,10.9-25.9c3-3.1,6.4-4.6,9.9-4.5c6.3,0.1,11.3,5.2,12.2,6.2l1.1,29C813.8,471.2,808.6,458.7,800,456.5z"/>
				<path class="st4" d="M775.9,353.8c-0.5,1-1.6,1.8-3,2.5c-1.7-5.6-5.6-12-11.5-18.4C771.9,343.6,777.7,350,775.9,353.8z"/>
				<path class="st4" d="M744.3,333.8c1.8,6.3,7,21,17.7,24c3,0.9,7.2,0.6,10.4-0.5c1.3,5.1,0.8,9.4-2,12.2c-2.4,2.4-6.5,4-10.6,4.2
					c-0.2,0-0.5,0-0.7,0c-8.4,0-14.7-6.5-15.8-7.7L744.3,333.8z"/>
			</g>
		</g>
	</g>
	<g>
		
			<image style="overflow:visible;opacity:0.35;enable-background:new    ;" width="999" height="494" xlink:href="420ECE8F.png"  transform="matrix(1 0 0 1 496 -234)">
		</image>
		<g>
			<g>
				<path class="st6" d="M819.3-9.5c-0.7-1.6-1.6-3-2.6-4.4c1.2,0.5,2.5,0.9,3.7,1.3C819.9-11.6,819.5-10.6,819.3-9.5z"/>
				<path class="st6" d="M1326.3,132.5c0.6,0.5,1.3,1,1.9,1.4c-0.7,0.8-1.3,1.7-1.9,2.6c0.1-0.6,0.1-1.2,0.1-1.8
					C1326.5,134,1326.4,133.3,1326.3,132.5z"/>
				<path class="st6" d="M1088.9,48.2c0.4,0.2,0.8,0.4,1.2,0.5c-0.1,1.4-0.2,2.9-0.2,4.3c0,1,0.1,2.1,0.1,3.1
					c-1.1,1.3-2.2,2.7-3.2,4.1c-6.2,1.7-11.8,4.9-16.3,9.3c4.4-5.6,7.6-12.3,8.9-19.5C1082.7,49.8,1085.9,49.1,1088.9,48.2z"/>
				<g>
					
						<image style="overflow:visible;opacity:0.75;" width="879" height="374" xlink:href="420ECE8A.png"  transform="matrix(1 0 0 1 543 -159)">
					</image>
					<g>
						<path class="st1" d="M551.9-16.2c0,21,17.3,38.1,38.7,38.1c2.8,0,5.6-0.3,8.2-0.9c6.7,4.9,15,7.8,24,7.8c4.4,0,8.7-0.7,12.7-2
							c0.1,14.9,12.5,27,27.7,27c9.8,0,18.4-5,23.3-12.6c3.7,2,7.8,3.1,12.3,3.1c8.3,0,15.6-3.9,20.3-9.9c2,0.2,4,0.3,6,0.3
							c3.1,0,6.1-0.3,9-0.8c0,0.2,0,0.4,0,0.6c0,6.9,5.7,12.4,12.6,12.4c1.1,0,2.2-0.2,3.3-0.4c4.7,2.4,10,3.8,15.7,3.8
							c3.4,0,6.6-0.5,9.7-1.4c5.1,4.1,11.6,6.5,18.7,6.5c10.8,0,20.3-5.7,25.5-14.2c4.4,2.8,9.6,4.4,15.2,4.4
							c9.4,0,17.7-4.5,22.7-11.5c0.8,0.1,1.5,0.1,2.3,0.1c2,0,3.9-0.2,5.8-0.5c3.3,1.1,6.8,1.7,10.5,1.7c2.2,0,4.3-0.2,6.4-0.6
							c3.2,8.8,11.8,15.1,21.9,15.1c1.3,0,2.6-0.1,3.9-0.3c2.5,3.8,5.5,7.3,9,10.2c3.4,22.2,22.8,39.2,46.3,39.2
							c14.3,0,27-6.3,35.6-16.2c4.7,1.6,9.6,2.4,14.8,2.4c13,0,24.8-5.3,33.2-13.9c-4.6,6-7.3,13.4-7.3,21.5
							c0,19.7,16.3,35.8,36.3,35.8c3.2,0,6.3-0.4,9.3-1.2c6.3,3.1,13.5,4.8,21,4.8c22.6,0,41.6-15.4,46.7-36.2
							c8.5,7.1,19.6,11.5,31.7,11.5c1.2,0,2.3-0.1,3.5-0.1c4.6,4.9,11.2,8,18.5,8c9.3,0,17.5-5,21.8-12.5
							c8.1,9.3,20.2,15.1,33.6,15.1c11.7,0,22.4-4.5,30.3-11.8c0.4,3.2,1.2,6.3,2.3,9.2c-2.4-1-5.1-1.6-7.8-1.6
							c-10.7,0-19.4,8.6-19.4,19.1c0,10.6,8.7,19.1,19.4,19.1c5.8,0,10.9-2.5,14.5-6.4c-0.8,3-1.2,6.1-1.2,9.3
							c0,20.6,17,37.4,37.9,37.4s37.9-16.7,37.9-37.4c0-8-2.6-15.4-6.9-21.5c3.3-3.9,5.2-8.8,5.2-14.2c0-6.5-2.8-12.3-7.3-16.4
							c0-0.3,0-0.6,0-0.9c0-5.3-1.1-10.3-3.2-14.9c20.4-6.9,35-25.9,35-48.3c0-28.2-23.2-51.1-51.9-51.1c-5.8,0-11.4,1-16.6,2.7
							c-7.9-7.7-18.7-12.5-30.6-12.6c-1.5-0.3-3.1-0.5-4.7-0.5c-4.4,0-8.4,1.3-11.8,3.4c-1.2,0.5-2.4,1-3.5,1.5
							c-7.8-7.8-18.4-12.8-30.3-13.2c-9-7.1-20.3-11.3-32.7-11.3c-9.9,0-19.1,2.7-27,7.4c-7.2-18.3-25.2-31.3-46.4-31.3
							c-3.7,0-7.3,0.4-10.8,1.2c-5.6-4.9-12.5-8.6-20.1-10.4c-2.2-10-11.2-17.5-22-17.5c-12.4,0-22.5,9.9-22.5,22.2
							c0,2.2,0.3,4.4,1,6.4c-6.7,6.1-11.6,14.1-13.8,23.1c-1.7-0.3-3.4-0.5-5.2-0.5c-11.4,0-21.1,7.5-24.1,17.9
							c-4-6.1-10.9-10.1-18.8-10.1c-0.8,0-1.6,0-2.4,0.1c0.1-0.8,0.1-1.6,0.1-2.4c0-3.4-0.6-6.7-1.6-9.8c1-1,1.6-2.3,1.6-3.9
							c0-2.6-1.8-4.8-4.3-5.3c-3.5-7.7-10-13.7-18-16.7c1.9-3.6,2.9-7.7,2.9-12.1c0-14.7-12.1-26.7-27.1-26.7c-0.7,0-1.4,0-2.1,0.1
							c-1.7-2.8-3.8-5.4-6-7.8c-4.3-18-20.7-31.4-40.3-31.4c-9.2,0-17.7,3-24.6,7.9c-5.6-2.8-12-4.4-18.8-4.4
							c-19.8,0-36.3,13.6-40.6,31.8c-1.7,1.5-3.2,3.1-4.5,4.8c-7-5-15.6-8-25-8c-10.2,0-19.5,3.5-26.8,9.4
							c-6.7-4.3-14.6-6.7-23.2-6.7c-23.6,0-42.7,18.8-42.7,42c0,2.7,0.3,5.4,0.8,8c-13.2,5.4-23.7,16-28.9,29.2
							c-4.3,6.9-6.7,15-6.7,23.7c0,4.4,0.7,8.7,1.8,12.7c-2.5-0.7-5.1-1.1-7.8-1.1c-0.4,0-0.8,0-1.3,0c0.9-3.3,1.4-6.8,1.4-10.4
							c0-10.2-3.9-19.5-10.3-26.5c-4.6-13.2-17.3-22.7-32.3-22.7c-7.9,0-15.2,2.7-21,7.1c-2.9-0.7-6-1.1-9.1-1.1
							C569.2-54.3,551.9-37.2,551.9-16.2z M796.7-15.8c1.2,0.5,2.5,0.9,3.7,1.3c-0.5,1-0.9,2-1.1,3.1
							C798.5-13,797.7-14.5,796.7-15.8z M1306.4,134.6c0.1-0.6,0.1-1.2,0.1-1.8c0-0.8-0.1-1.5-0.1-2.2c0.6,0.5,1.3,1,1.9,1.4
							C1307.6,132.8,1307,133.6,1306.4,134.6z M1050.5,67.5c4.4-5.6,7.6-12.3,8.9-19.5c3.3-0.2,6.4-0.9,9.4-1.8
							c0.4,0.2,0.8,0.4,1.2,0.5c-0.1,1.4-0.2,2.9-0.2,4.3c0,1,0.1,2.1,0.1,3.1c-1.1,1.3-2.2,2.7-3.2,4.1
							C1060.6,59.9,1055,63.2,1050.5,67.5z"/>
						<path class="st7" d="M551.9-16.2c0,21,17.3,38.1,38.7,38.1c2.8,0,5.6-0.3,8.2-0.9c6.7,4.9,15,7.8,24,7.8c4.4,0,8.7-0.7,12.7-2
							c0.1,14.9,12.5,27,27.7,27c9.8,0,18.4-5,23.3-12.6c3.7,2,7.8,3.1,12.3,3.1c8.3,0,15.6-3.9,20.3-9.9c2,0.2,4,0.3,6,0.3
							c3.1,0,6.1-0.3,9-0.8c0,0.2,0,0.4,0,0.6c0,6.9,5.7,12.4,12.6,12.4c1.1,0,2.2-0.2,3.3-0.4c4.7,2.4,10,3.8,15.7,3.8
							c3.4,0,6.6-0.5,9.7-1.4c5.1,4.1,11.6,6.5,18.7,6.5c10.8,0,20.3-5.7,25.5-14.2c4.4,2.8,9.6,4.4,15.2,4.4
							c9.4,0,17.7-4.5,22.7-11.5c0.8,0.1,1.5,0.1,2.3,0.1c2,0,3.9-0.2,5.8-0.5c3.3,1.1,6.8,1.7,10.5,1.7c2.2,0,4.3-0.2,6.4-0.6
							c3.2,8.8,11.8,15.1,21.9,15.1c1.3,0,2.6-0.1,3.9-0.3c2.5,3.8,5.5,7.3,9,10.2c3.4,22.2,22.8,39.2,46.3,39.2
							c14.3,0,27-6.3,35.6-16.2c4.7,1.6,9.6,2.4,14.8,2.4c13,0,24.8-5.3,33.2-13.9c-4.6,6-7.3,13.4-7.3,21.5
							c0,19.7,16.3,35.8,36.3,35.8c3.2,0,6.3-0.4,9.3-1.2c6.3,3.1,13.5,4.8,21,4.8c22.6,0,41.6-15.4,46.7-36.2
							c8.5,7.1,19.6,11.5,31.7,11.5c1.2,0,2.3-0.1,3.5-0.1c4.6,4.9,11.2,8,18.5,8c9.3,0,17.5-5,21.8-12.5
							c8.1,9.3,20.2,15.1,33.6,15.1c11.7,0,22.4-4.5,30.3-11.8c0.4,3.2,1.2,6.3,2.3,9.2c-2.4-1-5.1-1.6-7.8-1.6
							c-10.7,0-19.4,8.6-19.4,19.1c0,10.6,8.7,19.1,19.4,19.1c5.8,0,10.9-2.5,14.5-6.4c-0.8,3-1.2,6.1-1.2,9.3
							c0,20.6,17,37.4,37.9,37.4s37.9-16.7,37.9-37.4c0-8-2.6-15.4-6.9-21.5c3.3-3.9,5.2-8.8,5.2-14.2c0-6.5-2.8-12.3-7.3-16.4
							c0-0.3,0-0.6,0-0.9c0-5.3-1.1-10.3-3.2-14.9c20.4-6.9,35-25.9,35-48.3c0-28.2-23.2-51.1-51.9-51.1c-5.8,0-11.4,1-16.6,2.7
							c-7.9-7.7-18.7-12.5-30.6-12.6c-1.5-0.3-3.1-0.5-4.7-0.5c-4.4,0-8.4,1.3-11.8,3.4c-1.2,0.5-2.4,1-3.5,1.5
							c-7.8-7.8-18.4-12.8-30.3-13.2c-9-7.1-20.3-11.3-32.7-11.3c-9.9,0-19.1,2.7-27,7.4c-7.2-18.3-25.2-31.3-46.4-31.3
							c-3.7,0-7.3,0.4-10.8,1.2c-5.6-4.9-12.5-8.6-20.1-10.4c-2.2-10-11.2-17.5-22-17.5c-12.4,0-22.5,9.9-22.5,22.2
							c0,2.2,0.3,4.4,1,6.4c-6.7,6.1-11.6,14.1-13.8,23.1c-1.7-0.3-3.4-0.5-5.2-0.5c-11.4,0-21.1,7.5-24.1,17.9
							c-4-6.1-10.9-10.1-18.8-10.1c-0.8,0-1.6,0-2.4,0.1c0.1-0.8,0.1-1.6,0.1-2.4c0-3.4-0.6-6.7-1.6-9.8c1-1,1.6-2.3,1.6-3.9
							c0-2.6-1.8-4.8-4.3-5.3c-3.5-7.7-10-13.7-18-16.7c1.9-3.6,2.9-7.7,2.9-12.1c0-14.7-12.1-26.7-27.1-26.7c-0.7,0-1.4,0-2.1,0.1
							c-1.7-2.8-3.8-5.4-6-7.8c-4.3-18-20.7-31.4-40.3-31.4c-9.2,0-17.7,3-24.6,7.9c-5.6-2.8-12-4.4-18.8-4.4
							c-19.8,0-36.3,13.6-40.6,31.8c-1.7,1.5-3.2,3.1-4.5,4.8c-7-5-15.6-8-25-8c-10.2,0-19.5,3.5-26.8,9.4
							c-6.7-4.3-14.6-6.7-23.2-6.7c-23.6,0-42.7,18.8-42.7,42c0,2.7,0.3,5.4,0.8,8c-13.2,5.4-23.7,16-28.9,29.2
							c-4.3,6.9-6.7,15-6.7,23.7c0,4.4,0.7,8.7,1.8,12.7c-2.5-0.7-5.1-1.1-7.8-1.1c-0.4,0-0.8,0-1.3,0c0.9-3.3,1.4-6.8,1.4-10.4
							c0-10.2-3.9-19.5-10.3-26.5c-4.6-13.2-17.3-22.7-32.3-22.7c-7.9,0-15.2,2.7-21,7.1c-2.9-0.7-6-1.1-9.1-1.1
							C569.2-54.3,551.9-37.2,551.9-16.2z M796.7-15.8c1.2,0.5,2.5,0.9,3.7,1.3c-0.5,1-0.9,2-1.1,3.1
							C798.5-13,797.7-14.5,796.7-15.8z M1306.4,134.6c0.1-0.6,0.1-1.2,0.1-1.8c0-0.8-0.1-1.5-0.1-2.2c0.6,0.5,1.3,1,1.9,1.4
							C1307.6,132.8,1307,133.6,1306.4,134.6z M1050.5,67.5c4.4-5.6,7.6-12.3,8.9-19.5c3.3-0.2,6.4-0.9,9.4-1.8
							c0.4,0.2,0.8,0.4,1.2,0.5c-0.1,1.4-0.2,2.9-0.2,4.3c0,1,0.1,2.1,0.1,3.1c-1.1,1.3-2.2,2.7-3.2,4.1
							C1060.6,59.9,1055,63.2,1050.5,67.5z"/>
					</g>
				</g>
			</g>
		</g>
	</g>
	<g>
		
			<image style="overflow:visible;opacity:0.35;enable-background:new    ;" width="437" height="283" xlink:href="420ECE8B.png"  transform="matrix(1 0 0 1 -103 340)">
		</image>
		<g>
			<path class="st1" d="M258.1,515.6c0-11.6-9.3-21-20.9-21c-2.8,0-5.4,0.5-7.8,1.5c-0.6-2.7-1.6-5.3-2.7-7.7c2.4-1.4,4-4,4-7
				c0-4.5-3.6-8.2-8.1-8.2c-2,0-3.8,0.7-5.2,1.9c-7.7-7.5-18.2-12.1-29.8-12.1c-1,0-1.9,0-2.9,0.1c0.9-2.8,1.4-5.8,1.4-9
				c0-15.5-12.4-28.1-27.8-28.1c-6.6,0-12.6,2.3-17.4,6.1c-4.1-1.2-8.5-1.9-13-1.9c-18,0-33.7,10.2-41.7,25.1
				c-4.2-2.4-8.7-4.2-13.5-5.3c-8.4-10.6-21.2-17.4-35.7-17.4C12,432.9-8.4,453.5-8.4,479c0,1,0,2,0.1,3
				c-10.6,2.1-18.5,11.4-18.5,22.7c0,12.8,10.3,23.1,22.9,23.1c7.4,0,13.9-3.5,18.1-9c1.4,0.8,2.9,1.6,4.3,2.3
				c8.1,16,24.6,27,43.6,27c6.7,0,13.2-1.4,19-3.8c5.8,7.6,14.8,12.5,25,12.5c17.3,0,31.4-14.2,31.5-31.7c3.4-0.7,6.7-1.8,9.8-3.2
				c6.1,16.4,21.8,28.1,40.2,28.1c14.7,0,27.6-7.4,35.4-18.8c0.7,0.6,1.4,1.2,2.2,1.8c-1.6,1.4-2.6,3.4-2.6,5.8
				c0,4.2,3.3,7.5,7.4,7.5s7.4-3.4,7.4-7.5c0-0.7-0.1-1.3-0.3-1.9h0C248.8,536.7,258.1,527.3,258.1,515.6z"/>
			<path class="st2" d="M258.1,515.6c0-11.6-9.3-21-20.9-21c-2.8,0-5.4,0.5-7.8,1.5c-0.6-2.7-1.6-5.3-2.7-7.7c2.4-1.4,4-4,4-7
				c0-4.5-3.6-8.2-8.1-8.2c-2,0-3.8,0.7-5.2,1.9c-7.7-7.5-18.2-12.1-29.8-12.1c-1,0-1.9,0-2.9,0.1c0.9-2.8,1.4-5.8,1.4-9
				c0-15.5-12.4-28.1-27.8-28.1c-6.6,0-12.6,2.3-17.4,6.1c-4.1-1.2-8.5-1.9-13-1.9c-18,0-33.7,10.2-41.7,25.1
				c-4.2-2.4-8.7-4.2-13.5-5.3c-8.4-10.6-21.2-17.4-35.7-17.4C12,432.9-8.4,453.5-8.4,479c0,1,0,2,0.1,3
				c-10.6,2.1-18.5,11.4-18.5,22.7c0,12.8,10.3,23.1,22.9,23.1c7.4,0,13.9-3.5,18.1-9c1.4,0.8,2.9,1.6,4.3,2.3
				c8.1,16,24.6,27,43.6,27c6.7,0,13.2-1.4,19-3.8c5.8,7.6,14.8,12.5,25,12.5c17.3,0,31.4-14.2,31.5-31.7c3.4-0.7,6.7-1.8,9.8-3.2
				c6.1,16.4,21.8,28.1,40.2,28.1c14.7,0,27.6-7.4,35.4-18.8c0.7,0.6,1.4,1.2,2.2,1.8c-1.6,1.4-2.6,3.4-2.6,5.8
				c0,4.2,3.3,7.5,7.4,7.5s7.4-3.4,7.4-7.5c0-0.7-0.1-1.3-0.3-1.9h0C256.8,536.7,258.1,527.3,258.1,515.6z"/>
		</g>
	</g>
	<g>
		
			<image style="overflow:visible;opacity:0.35;enable-background:new    ;" width="690" height="355" xlink:href="420ECE86.png"  transform="matrix(1 0 0 1 325 519)">
		</image>
		<g>
			<path class="st8" d="M939.2,691.7c0-14.3-11.6-25.9-25.9-25.9c-6.6,0-12.5,2.4-17.1,6.5c1.1-3.1,1.6-6.4,1.6-9.9
				c0-1.8-0.2-3.6-0.5-5.4c-0.6-15.6-10.8-28.8-25-33.6c-5.5-9.4-15.7-15.7-27.3-15.7c-3.6,0-7.1,0.6-10.3,1.7c-0.2,0-0.3,0-0.5,0
				c-2,0-4,0.2-5.9,0.6c-0.3,0-0.6-0.1-0.9-0.1c0-0.8,0.1-1.6,0.1-2.4c0-2.4-0.2-4.8-0.6-7.1c-0.4-7.2-3.5-13.8-8.3-18.6
				c-7.6-9.5-19.2-15.6-32.3-15.6c-3.7,0-7.3,0.5-10.8,1.4c-5.5-2.3-11.5-3.6-17.9-3.6c-16.2,0-30.4,8.4-38.5,21.1
				c-4.9-2.9-10.6-4.6-16.7-4.6c-5.5,0-10.6,1.4-15.1,3.7c-6.2-6.1-14.7-9.8-24-9.8c-12,0-22.6,6.2-28.8,15.6c-0.5,0-1-0.1-1.5-0.1
				c-9.8,0-18,6.7-20.3,15.8c-6.1-5.1-13.9-8.1-22.5-8.1c-1.7,0-3.3,0.1-4.9,0.3c-6-6.9-14.9-11.3-24.8-11.3
				c-15.3,0-28.1,10.4-31.9,24.4c0,0-0.1,0-0.1,0c-5.5,0-10.5,1.7-14.7,4.6c-5.7-5.5-12.7-9.6-20.5-11.8c-3.9-3.8-9.3-6.1-15.1-6.1
				c-6.5,0-12.3,2.8-16.3,7.3c-14.5,5.5-25.7,17.5-30.1,32.4c-2.6,1-4.7,2.8-6.1,5.2c-2.4-1.4-5.2-2.2-8.2-2.2
				c-9.1,0-16.4,7.3-16.4,16.4s7.4,16.4,16.4,16.4c0.9,0,1.7-0.1,2.5-0.2c-1,3.6-1.5,7.5-1.5,11.4c0,13.1,5.7,24.9,14.7,33
				c0.3,10.7,9,19.4,19.8,19.4c4.5,0,8.6-1.5,12-4c0.3,0,0.7,0.1,1,0.1c5.3,15.2,19.8,26.2,36.8,26.2c19.5,0,35.6-14.2,38.5-32.9
				c1.2,0.3,2.5,0.5,3.8,0.5c8.1,0,14.7-6.6,14.7-14.7c0-8.1-6.6-14.7-14.7-14.7c-3.3,0-6.3,1.1-8.8,2.9c-2.5-4.3-5.9-8-9.8-11.1
				c5.1-0.4,9.2-4.7,9.2-10c0-3.5-1.8-6.6-4.6-8.4c3.1-2.4,5.3-5.8,6-9.8c1.5-0.5,3-1.2,4.3-2c0,0.5,0,1,0,1.5
				c-2.2,3.7-3.5,8-3.5,12.6c0,13.4,10.9,24.3,24.3,24.3c2.4,0,4.7-0.3,6.9-1c0.3,5.9,5.3,10.6,11.3,10.6c3.7,0,6.9-1.7,9-4.4
				c0.7,0,1.4,0,2,0c1.5,0,3-0.1,4.5-0.3c5.1,18.7,22.1,32.5,42.4,32.5c8.7,0,16.8-2.5,23.7-6.9c0.6,0,1.2,0,1.8,0
				c1.9,0,3.8-0.1,5.7-0.4c3.9,1.7,8,2.8,12.4,3.3c0.9,0.6,1.8,1.2,2.7,1.8c5.8,20.1,24.2,34.7,46.1,34.7c26.3,0,47.7-21.2,48-47.5
				c9,10.2,22.3,16.7,37,16.7c6.2,0,12.1-1.2,17.6-3.3c7.5,14,22.4,23.6,39.4,23.6c18.6,0,34.5-11.3,41.3-27.4
				c7.8-3,13.8-9.6,15.8-17.8C935.6,706.9,939.2,699.7,939.2,691.7z"/>
		</g>
	</g>
	<g>
		
			<image style="overflow:visible;opacity:0.35;enable-background:new    ;" width="437" height="283" xlink:href="420ECE87.png"  transform="matrix(1 0 0 1 937 351)">
		</image>
		<g>
			<path class="st1" d="M1298.1,526.6c0-11.6-9.3-21-20.8-21c-2.8,0-5.4,0.5-7.8,1.5c-0.7-2.7-1.6-5.3-2.7-7.7c2.4-1.4,4-4,4-7
				c0-4.5-3.6-8.2-8.1-8.2c-2,0-3.8,0.7-5.2,1.9c-7.7-7.5-18.2-12.1-29.8-12.1c-1,0-1.9,0-2.9,0.1c0.9-2.8,1.4-5.8,1.4-9
				c0-15.5-12.4-28.1-27.8-28.1c-6.6,0-12.6,2.3-17.4,6.1c-4.1-1.2-8.5-1.9-13-1.9c-18,0-33.7,10.2-41.7,25.1
				c-4.2-2.4-8.7-4.2-13.5-5.3c-8.4-10.6-21.2-17.4-35.7-17.4c-25.2,0-45.6,20.6-45.6,46.1c0,1,0,2,0.1,3
				c-10.5,2.1-18.5,11.4-18.5,22.7c0,12.8,10.3,23.1,22.9,23.1c7.4,0,13.9-3.5,18.1-9c1.4,0.8,2.8,1.6,4.3,2.3
				c8.1,16,24.6,27,43.6,27c6.7,0,13.2-1.4,19-3.8c5.8,7.6,14.8,12.5,25,12.5c17.3,0,31.4-14.2,31.5-31.7c3.4-0.7,6.7-1.8,9.8-3.2
				c6.1,16.4,21.8,28.1,40.2,28.1c14.7,0,27.6-7.4,35.4-18.8c0.7,0.6,1.4,1.2,2.2,1.8c-1.6,1.4-2.7,3.4-2.7,5.8
				c0,4.2,3.3,7.5,7.4,7.5s7.4-3.4,7.4-7.5c0-0.7-0.1-1.3-0.3-1.9h0C1288.8,547.7,1298.1,538.3,1298.1,526.6z"/>
			<path class="st2" d="M1298.1,526.6c0-11.6-9.3-21-20.8-21c-2.8,0-5.4,0.5-7.8,1.5c-0.7-2.7-1.6-5.3-2.7-7.7c2.4-1.4,4-4,4-7
				c0-4.5-3.6-8.2-8.1-8.2c-2,0-3.8,0.7-5.2,1.9c-7.7-7.5-18.2-12.1-29.8-12.1c-1,0-1.9,0-2.9,0.1c0.9-2.8,1.4-5.8,1.4-9
				c0-15.5-12.4-28.1-27.8-28.1c-6.6,0-12.6,2.3-17.4,6.1c-4.1-1.2-8.5-1.9-13-1.9c-18,0-33.7,10.2-41.7,25.1
				c-4.2-2.4-8.7-4.2-13.5-5.3c-8.4-10.6-21.2-17.4-35.7-17.4c-25.2,0-45.6,20.6-45.6,46.1c0,1,0,2,0.1,3
				c-10.5,2.1-18.5,11.4-18.5,22.7c0,12.8,10.3,23.1,22.9,23.1c7.4,0,13.9-3.5,18.1-9c1.4,0.8,2.8,1.6,4.3,2.3
				c8.1,16,24.6,27,43.6,27c6.7,0,13.2-1.4,19-3.8c5.8,7.6,14.8,12.5,25,12.5c17.3,0,31.4-14.2,31.5-31.7c3.4-0.7,6.7-1.8,9.8-3.2
				c6.1,16.4,21.8,28.1,40.2,28.1c14.7,0,27.6-7.4,35.4-18.8c0.7,0.6,1.4,1.2,2.2,1.8c-1.6,1.4-2.7,3.4-2.7,5.8
				c0,4.2,3.3,7.5,7.4,7.5s7.4-3.4,7.4-7.5c0-0.7-0.1-1.3-0.3-1.9h0C1288.8,547.7,1298.1,538.3,1298.1,526.6z"/>
		</g>
	</g>
	<g>
		
			<image style="overflow:visible;opacity:0.35;enable-background:new    ;" width="466" height="218" xlink:href="420ECE98.png"  transform="matrix(1 0 0 1 83 301)">
		</image>
		<g>
			<g>
				<line class="st9" x1="211.9" y1="387.4" x2="473.1" y2="433.5"/>
				<line class="st9" x1="420.1" y1="441.1" x2="159" y2="395"/>
				<line class="st9" x1="411.5" y1="452.8" x2="254.3" y2="432.3"/>
			</g>
		</g>
	</g>
	<g>
		
			<image style="overflow:visible;opacity:0.35;enable-background:new    ;" width="477" height="244" xlink:href="420ECE9B.png"  transform="matrix(1 0 0 1 68 191)">
		</image>
		<g>
			<g>
				<line class="st9" x1="201" y1="276.8" x2="468.9" y2="356.9"/>
				<line class="st9" x1="411.9" y1="358.1" x2="144" y2="278"/>
				<line class="st9" x1="400.9" y1="369" x2="238.5" y2="328.3"/>
			</g>
		</g>
	</g>
	<g>
		
			<image style="overflow:visible;opacity:0.35;enable-background:new    ;" width="317" height="286" xlink:href="8C23D9F7.png"  transform="matrix(1 0 0 1 349 12)">
		</image>
		<g>
			<g>
				<line class="st9" x1="457.6" y1="112.2" x2="590" y2="232"/>
				<line class="st9" x1="557.4" y1="217.8" x2="425" y2="98"/>
				<line class="st9" x1="548.6" y1="221.7" x2="466.4" y2="153.9"/>
			</g>
		</g>
	</g>
	<g>
		
			<image style="overflow:visible;opacity:0.35;enable-background:new    ;" width="226" height="287" xlink:href="8C23D9F5.png"  transform="matrix(1 0 0 1 494 -10)">
		</image>
		<g>
			<g>
				<line class="st9" x1="588" y1="94.7" x2="643.9" y2="211.1"/>
				<line class="st9" x1="625.9" y1="192.4" x2="570" y2="76"/>
				<line class="st9" x1="618.8" y1="192.4" x2="582.3" y2="124.4"/>
			</g>
		</g>
	</g>
	<g>
		
			<image style="overflow:visible;opacity:0.35;enable-background:new    ;" width="226" height="287" xlink:href="8C23D9F3.png"  transform="matrix(1 0 0 1 615 -10)">
		</image>
		<g>
			<g>
				<line class="st9" x1="746.9" y1="94.7" x2="691" y2="211.1"/>
				<line class="st9" x1="709" y1="192.4" x2="764.9" y2="76"/>
				<line class="st9" x1="716.1" y1="192.4" x2="752.6" y2="124.4"/>
			</g>
		</g>
	</g>
	<g>
		
			<image style="overflow:visible;opacity:0.35;enable-background:new    ;" width="302" height="293" xlink:href="8C23DA0D.png"  transform="matrix(1 0 0 1 687 12)">
		</image>
		<g>
			<g>
				<line class="st9" x1="883.4" y1="112.9" x2="763" y2="239"/>
				<line class="st9" x1="792.6" y1="224.1" x2="913" y2="98"/>
				<line class="st9" x1="800.7" y1="228.1" x2="875.3" y2="156.8"/>
			</g>
		</g>
	</g>
	<g>
		
			<image style="overflow:visible;opacity:0.35;enable-background:new    ;" width="363" height="253" xlink:href="8C23DA0F.png"  transform="matrix(1 0 0 1 765 115)">
		</image>
		<g>
			<g>
				<line class="st9" x1="1013.4" y1="207.9" x2="840.4" y2="302.4"/>
				<line class="st9" x1="879.6" y1="295.1" x2="1052.6" y2="200.6"/>
				<line class="st9" x1="888.6" y1="301.2" x2="994.5" y2="249.4"/>
			</g>
		</g>
	</g>
	<g>
		
			<image style="overflow:visible;opacity:0.35;enable-background:new    ;" width="477" height="244" xlink:href="8C23DA12.png"  transform="matrix(1 0 0 1 765 226)">
		</image>
		<g>
			<g>
				<line class="st9" x1="1108.9" y1="311.8" x2="841" y2="391.9"/>
				<line class="st9" x1="898" y1="393.1" x2="1165.9" y2="313"/>
				<line class="st9" x1="909.1" y1="404" x2="1071.4" y2="363.3"/>
			</g>
		</g>
	</g>
	<g>
		
			<image style="overflow:visible;opacity:0.35;enable-background:new    ;" width="317" height="197" xlink:href="8C23DA13.png"  transform="matrix(1 0 0 1 760 354)">
		</image>
		<g>
			<g>
				<line class="st9" x1="973.8" y1="439.8" x2="836" y2="476.5"/>
				<line class="st9" x1="863.2" y1="478.6" x2="1001" y2="442"/>
				<line class="st9" x1="867.3" y1="484.9" x2="949.9" y2="466.9"/>
			</g>
		</g>
	</g>
	<g>
		
			<image style="overflow:visible;opacity:0.35;enable-background:new    ;" width="287" height="185" xlink:href="8C23DA15.png"  transform="matrix(1 0 0 1 986 298)">
		</image>
		<g>
			<g>
				<line class="st9" x1="1174.5" y1="383.6" x2="1062" y2="409.5"/>
				<line class="st9" x1="1084.5" y1="411.8" x2="1197" y2="386"/>
				<line class="st9" x1="1088" y1="416.9" x2="1155.5" y2="404.6"/>
			</g>
		</g>
	</g>
	<g>
		
			<image style="overflow:visible;opacity:0.35;enable-background:new    ;" width="568" height="379" xlink:href="8C23DA17.png"  transform="matrix(1 0 0 1 891 405)">
		</image>
		<g>
			<path class="st1" d="M1363.8,596.3c1-3.6,1.6-7.4,1.6-11.4c0-0.9,0-1.8-0.1-2.8c10.6-7.2,17.6-19.4,17.6-33.2
				c0-22.2-18-40.2-40.2-40.2c-11.3,0-21.4,4.6-28.7,12.1c-7.4-11.4-20.2-19-34.8-19c-9.9,0-19,3.5-26.1,9.3
				c-10.4,5.9-17.4,17.1-17.4,29.9c0,1.7,0.1,3.4,0.4,5.1c-4.7-3.5-10.6-5.5-16.9-5.5c-4.2,0-8.3,0.9-11.9,2.6
				c-0.9-0.8-2.2-1.2-3.5-1.2c-3.1,0-5.5,2.5-5.5,5.5c0,0.7,0.1,1.3,0.3,1.8c-0.2,0.2-0.4,0.4-0.6,0.6
				c-3.9-10.8-14.3-18.6-26.4-18.6c-11,0-20.5,6.3-25.1,15.5c-3.5-13.4-15.7-23.3-30.2-23.3c-11.8,0-22.2,6.6-27.5,16.3
				c-0.5-0.9-1.1-1.7-1.7-2.5c2.1-4.3,3.2-9.1,3.2-14.1c0-17.9-14.5-32.4-32.4-32.4c-15.8,0-28.9,11.3-31.8,26.2
				c-13.3,3.5-23.1,15.6-23.1,29.9c0,17.1,13.8,30.9,30.9,30.9c1.4,0,2.8-0.1,4.2-0.3c-1.4,1.8-2.7,3.8-3.8,5.8
				c-2.8-0.7-5.8-1-8.8-1c-9.5,0-18.3,3.4-25,9.1c-19.3,2.9-34.1,19.6-34.1,39.8c0,10.2,3.8,19.5,10.1,26.6
				c-0.7,3.3-1.1,6.8-1.1,10.3c0,27.5,22.3,49.7,49.7,49.7s49.7-22.3,49.7-49.7c0-0.6,0-1.2,0-1.7c2.9-1.1,5.7-2.5,8.2-4.2
				c0,0.3,0,0.6,0,1c0,16.1,13.1,29.2,29.2,29.2c14.6,0,26.7-10.7,28.8-24.8c0.4,0,0.8,0,1.2,0c5.2,0,10.2-1,14.8-2.7
				c4.4,8.1,12.9,13.5,22.7,13.5c7.9,0,15-3.6,19.8-9.2c3.1,0.8,6.4,1.2,9.7,1.2c22.5,0,40.8-18.3,40.8-40.8c0-1.9-0.1-3.7-0.4-5.5
				c2.3-1.9,4.4-4.2,6.1-6.8c0.6-0.2,1.2-0.4,1.8-0.7c0.3,5.2,4.6,9.2,9.8,9.2c2.3,0,4.5-0.8,6.2-2.2c6.4,6.5,15.4,10.5,25.3,10.5
				c7.3,0,14-2.2,19.6-5.9c-0.6,2.1-0.9,4.3-0.9,6.6c0,13.8,11.2,25,25,25c13.8,0,25-11.2,25-25c0-2-0.2-4-0.7-5.8
				c3.9-3.9,6.3-9.3,6.3-15.3C1373.3,606.7,1369.5,600.2,1363.8,596.3z"/>
			<path class="st2" d="M1363.8,596.3c1-3.6,1.6-7.4,1.6-11.4c0-0.9,0-1.8-0.1-2.8c10.6-7.2,17.6-19.4,17.6-33.2
				c0-22.2-18-40.2-40.2-40.2c-11.3,0-21.4,4.6-28.7,12.1c-7.4-11.4-20.2-19-34.8-19c-12.6,0-19,3.5-26.1,9.3
				c-10.4,5.9-17.4,17.1-17.4,29.9c0,1.7,0.1,3.4,0.4,5.1c-4.7-3.5-10.6-5.5-16.9-5.5c-4.2,0-8.3,0.9-11.9,2.6
				c-0.9-0.8-2.2-1.2-3.5-1.2c-3.1,0-5.5,2.5-5.5,5.5c0,0.7,0.1,1.3,0.3,1.8c-0.2,0.2-0.4,0.4-0.6,0.6
				c-3.9-10.8-14.3-18.6-26.4-18.6c-11,0-20.5,6.3-25.1,15.5c-3.5-13.4-15.7-23.3-30.2-23.3c-11.8,0-22.2,6.6-27.5,16.3
				c-0.5-0.9-1.1-1.7-1.7-2.5c2.1-4.3,3.2-9.1,3.2-14.1c0-17.9-14.5-32.4-32.4-32.4c-15.8,0-28.9,11.3-31.8,26.2
				c-13.3,3.5-23.1,15.6-23.1,29.9c0,17.1,13.8,30.9,30.9,30.9c1.4,0,2.8-0.1,4.2-0.3c-1.4,1.8-2.7,3.8-3.8,5.8
				c-2.8-0.7-5.8-1-8.8-1c-9.5,0-18.3,3.4-25,9.1c-19.3,2.9-34.1,19.6-34.1,39.8c0,10.2,3.8,19.5,10.1,26.6
				c-0.7,3.3-1.1,6.8-1.1,10.3c0,27.5,22.3,49.7,49.7,49.7s49.7-22.3,49.7-49.7c0-0.6,0-1.2,0-1.7c2.9-1.1,5.7-2.5,8.2-4.2
				c0,0.3,0,0.6,0,1c0,16.1,13.1,29.2,29.2,29.2c14.6,0,26.7-10.7,28.8-24.8c0.4,0,0.8,0,1.2,0c5.2,0,10.2-1,14.8-2.7
				c4.4,8.1,12.9,13.5,22.7,13.5c7.9,0,15-3.6,19.8-9.2c3.1,0.8,6.4,1.2,9.7,1.2c22.5,0,40.8-18.3,40.8-40.8c0-1.9-0.1-3.7-0.4-5.5
				c2.3-1.9,4.4-4.2,6.1-6.8c0.6-0.2,1.2-0.4,1.8-0.7c0.3,5.2,4.6,9.2,9.8,9.2c2.3,0,4.5-0.8,6.2-2.2c6.4,6.5,15.4,10.5,25.3,10.5
				c7.3,0,14-2.2,19.6-5.9c-0.6,2.1-0.9,4.3-0.9,6.6c0,13.8,11.2,25,25,25c13.8,0,25-11.2,25-25c0-2-0.2-4-0.7-5.8
				c3.9-3.9,6.3-9.3,6.3-15.3C1373.3,606.7,1369.5,600.2,1363.8,596.3z"/>
		</g>
	</g>
	<g>
		
			<image style="overflow:visible;opacity:0.35;enable-background:new    ;" width="437" height="283" xlink:href="8C23DA10.png"  transform="matrix(1 0 0 1 -200 435)">
		</image>
		<g>
			<path class="st1" d="M161.1,610.6c0-11.6-9.3-21-20.9-21c-2.8,0-5.4,0.5-7.8,1.5c-0.6-2.7-1.6-5.3-2.7-7.7c2.4-1.4,4-4,4-7
				c0-4.5-3.6-8.2-8.1-8.2c-2,0-3.8,0.7-5.2,1.9c-7.7-7.5-18.2-12.1-29.8-12.1c-1,0-1.9,0-2.9,0.1c0.9-2.8,1.4-5.8,1.4-9
				c0-15.5-12.4-28.1-27.8-28.1c-6.6,0-12.6,2.3-17.4,6.2c-4.1-1.2-8.5-1.8-13-1.8c-18,0-33.7,10.2-41.7,25.1
				c-4.2-2.4-8.7-4.2-13.5-5.3c-8.4-10.6-21.2-17.4-35.7-17.4c-25.2,0-45.6,20.6-45.6,46.1c0,1,0,2,0.1,3
				c-10.6,2.1-18.5,11.4-18.5,22.7c0,12.8,10.3,23.1,22.9,23.1c7.4,0,13.9-3.5,18.1-9c1.4,0.8,2.8,1.6,4.3,2.3
				c8.1,16,24.6,27,43.6,27c6.7,0,13.1-1.4,19-3.8c5.8,7.6,14.8,12.5,25,12.5c17.4,0,31.4-14.2,31.5-31.7c3.4-0.7,6.7-1.8,9.8-3.2
				c6.1,16.4,21.8,28.1,40.2,28.1c14.7,0,27.6-7.4,35.4-18.8c0.7,0.6,1.4,1.2,2.2,1.8c-1.6,1.4-2.7,3.4-2.7,5.8
				c0,4.2,3.3,7.5,7.4,7.5s7.4-3.4,7.4-7.5c0-0.7-0.1-1.3-0.3-1.9h0C151.8,631.7,161.1,622.3,161.1,610.6z"/>
			<path class="st2" d="M161.1,610.6c0-11.6-9.3-21-20.9-21c-2.8,0-5.4,0.5-7.8,1.5c-0.6-2.7-1.6-5.3-2.7-7.7c2.4-1.4,4-4,4-7
				c0-4.5-3.6-8.2-8.1-8.2c-2,0-3.8,0.7-5.2,1.9c-7.7-7.5-18.2-12.1-29.8-12.1c-1,0-1.9,0-2.9,0.1c0.9-2.8,1.4-5.8,1.4-9
				c0-15.5-12.4-28.1-27.8-28.1c-6.6,0-12.6,2.3-17.4,6.2c-4.1-1.2-8.5-1.8-13-1.8c-18,0-33.7,10.2-41.7,25.1
				c-4.2-2.4-8.7-4.2-13.5-5.3c-8.4-10.6-21.2-17.4-35.7-17.4c-25.2,0-45.6,20.6-45.6,46.1c0,1,0,2,0.1,3
				c-10.6,2.1-18.5,11.4-18.5,22.7c0,12.8,10.3,23.1,22.9,23.1c7.4,0,13.9-3.5,18.1-9c1.4,0.8,2.8,1.6,4.3,2.3
				c8.1,16,24.6,27,43.6,27c6.7,0,13.1-1.4,19-3.8c5.8,7.6,14.8,12.5,25,12.5c17.4,0,31.4-14.2,31.5-31.7c3.4-0.7,6.7-1.8,9.8-3.2
				c6.1,16.4,21.8,28.1,40.2,28.1c14.7,0,27.6-7.4,35.4-18.8c0.7,0.6,1.4,1.2,2.2,1.8c-1.6,1.4-2.7,3.4-2.7,5.8
				c0,4.2,3.3,7.5,7.4,7.5s7.4-3.4,7.4-7.5c0-0.7-0.1-1.3-0.3-1.9h0C151.8,631.7,161.1,622.3,161.1,610.6z"/>
		</g>
	</g>
	<g>
		
			<image style="overflow:visible;opacity:0.35;enable-background:new    ;" width="437" height="283" xlink:href="8C23DA36.png"  transform="matrix(1 0 0 1 700 567)">
		</image>
		<g>
			<path class="st8" d="M983.1,661.6c0-11.6-9.3-21-20.8-21c-2.8,0-5.4,0.5-7.8,1.5c-0.7-2.7-1.6-5.3-2.7-7.7c2.4-1.4,4-4,4-7
				c0-4.5-3.6-8.2-8.1-8.2c-2,0-3.8,0.7-5.2,1.9c-7.7-7.5-18.2-12.1-29.8-12.1c-1,0-1.9,0-2.9,0.1c0.9-2.8,1.5-5.8,1.5-9
				c0-15.5-12.5-28.1-27.8-28.1c-6.6,0-12.6,2.3-17.4,6.2c-4.1-1.2-8.5-1.8-13-1.8c-18,0-33.7,10.2-41.7,25.1
				c-4.2-2.4-8.7-4.2-13.5-5.3c-8.4-10.6-21.2-17.4-35.7-17.4c-25.2,0-45.6,20.6-45.6,46.1c0,1,0,2,0.1,3
				c-10.5,2.1-18.5,11.4-18.5,22.7c0,12.8,10.3,23.1,22.9,23.1c7.4,0,13.9-3.5,18.1-9c1.4,0.8,2.8,1.6,4.3,2.3
				c8.1,16,24.6,27,43.6,27c6.7,0,13.2-1.4,19-3.8c5.8,7.6,14.8,12.5,25,12.5c17.3,0,31.4-14.2,31.5-31.7c3.4-0.7,6.7-1.8,9.8-3.2
				c6.1,16.4,21.8,28.1,40.2,28.1c14.7,0,27.6-7.4,35.4-18.8c0.7,0.6,1.4,1.2,2.2,1.8c-1.6,1.4-2.7,3.4-2.7,5.8
				c0,4.2,3.3,7.5,7.4,7.5s7.4-3.4,7.4-7.5c0-0.7-0.1-1.3-0.3-1.9h0C973.8,682.7,983.1,673.3,983.1,661.6z"/>
		</g>
	</g>
	<g>
		
			<image style="overflow:visible;opacity:0.35;enable-background:new    ;" width="245" height="460" xlink:href="8C23DA35.png"  transform="matrix(1 0 0 1 422 147)">
		</image>
		<g>
			<g>
				<path class="st3" d="M577.4,412l0,48.4l0.3,0.2c2.4,2,4.8,3.9,7.3,5.7v-57.1l-0.3,0.1C582.4,410.6,580,411.4,577.4,412z"/>
				<path class="st3" d="M572.3,455.7c1.4,1.4,2.9,2.8,4.3,4v-47.6c-1.5,0.3-3.1,0.5-4.6,0.6l0,42.7
					C572.1,455.5,572.2,455.6,572.3,455.7z"/>
				<path class="st3" d="M577.4,375.3V398l5.5,0.6l2.1,10.7v-38.5C583.2,372.3,580.6,374.2,577.4,375.3z"/>
				<path class="st3" d="M576.7,375.6c-1.4,0.5-3,0.8-4.6,0.9l0,20.9l4.6,0.5V375.6z"/>
				<path class="st3" d="M556.2,386.8c-0.2,2,0.8,4.4,2.7,6.3v-10.9C557.2,383.5,556.3,385,556.2,386.8z"/>
				<path class="st3" d="M554.5,433.5c0.1,0.2,0.2,0.4,0.3,0.5c1.3,2,2.7,3.9,4,5.8v-29.2c-1.6-0.6-3.1-1.4-4.5-2.2L554.5,433.5z"/>
				<path class="st3" d="M534.5,375.1c1.5,0.3,3.1,0.6,4.7,1.2l0.6-55.9c-1.9,0.6-3.8,1.3-5.7,2.2L534.5,375.1z"/>
				<path class="st3" d="M547.8,404.6c-2.7,0-5.4-0.4-8.1-1l0,8.1c0.1,0.1,0.2,0.2,0.3,0.3c3,3.2,6,7.9,9.3,13.4
					c1.5,2.4,2.9,4.7,4.4,7l-0.1-24.3c-1.4-0.9-3-2.1-4.5-3.4C548.6,404.6,548.2,404.6,547.8,404.6z"/>
				<path class="st3" d="M559.6,381.8V394c1.4,1.2,3.2,2.2,5.3,2.7l6.3,0.7v-20.8c-0.1,0-0.2,0-0.2,0c-0.3,0-0.5,0-0.7,0
					c-4-0.2-8.1-1.7-10.7-4v5.9c2.7,0.3,5.5,1,8.1,2.2l-0.3,0.7C564.7,380.5,561.8,380.6,559.6,381.8z"/>
				<path class="st3" d="M559.6,410.9v30c0.1,0.1,0.2,0.3,0.3,0.5c3.5,4.7,7,8.8,10.7,12.6c0.2,0.2,0.4,0.4,0.6,0.6l0,0v-41.8
					c-0.3,0-0.6,0-0.9,0C566.7,412.8,563,412.2,559.6,410.9z"/>
				<path class="st3" d="M504.5,390.6v149.3h8.9c0-18.3,0-36.7,0-55l-0.3,1l0.3-6.9c0-27.5,0-55.1,0-82.7c-1.5-0.6-2.9-1.3-4.2-2.1
					C507.8,393.3,506.1,392.1,504.5,390.6z"/>
				<path class="st3" d="M539.6,461.9v28.8l13.2-10.3l-0.1,0l0-0.3c0.2-6.7-0.3-23.9-9.8-39.3c-1-1.6-2.1-3.2-3.3-4.7v13.6
					c7.7,9.3,9.7,24.8,10.2,29.6l-0.8,0.1C547,471.4,543.6,465.2,539.6,461.9z"/>
				<path class="st3" d="M534.8,445.2c1.1,0.7,2.2,1.6,3.3,2.7c0.3,0.3,0.5,0.5,0.7,0.8V435c-0.1-0.1-0.2-0.3-0.3-0.4
					c-1.2-1.4-2.4-2.7-3.7-3.9L534.8,445.2L534.8,445.2z"/>
				<path class="st3" d="M553.4,319.3c-4.5-0.5-9-0.1-13.3,1.1l-0.3,56.1c0.7,0.3,1.5,0.6,2.2,0.9l-0.3,0.7
					c-0.7-0.2-1.3-0.4-1.9-0.5l-0.1,12.8c0.2,0,0.3,0.1,0.5,0.1l0.7,0.1c0-0.6,0-1.2,0.1-1.8c0.6-3.3,2.8-6.3,6.3-8.2
					c1.9-1,4-1.7,6.2-2.1l0-22.3c0-0.1-0.1-0.1-0.1-0.2c-0.6-1.2-0.5-2.6,0.1-4.1L553.4,319.3z"/>
				<path class="st3" d="M537.5,460.4c-0.9-0.5-1.8-0.9-2.7-1.1v35.1l4-3.1v-30C538.4,460.9,537.9,460.6,537.5,460.4z"/>
				<path class="st3" d="M571.2,326.7c-3.2-2.6-7-4.8-11.7-6.2v24.3c2.8-2.3,6.4-4.6,10.8-6.8l0.9-0.5V326.7z"/>
				<path class="st3" d="M558.8,356c-0.3,0.9-0.7,1.8-0.9,2.6c0.3,0.1,0.6,0.2,0.9,0.3V356z"/>
				<path class="st3" d="M553.8,356.8l0.2,21.7c1.5-0.2,3.1-0.2,4.8-0.1v-6.6c-2.8-3-3.3-7.5-1.9-12.8
					C555.6,358.4,554.5,357.7,553.8,356.8z"/>
				<path class="st3" d="M559.6,359.1c2.6,0.6,5.7,0.8,8.2,0c1.2-0.4,2.3-0.9,3.4-1.5v-19.5l-0.4,0.4c-5.1,5.2-8.9,10.6-11.2,15.6
					L559.6,359.1z"/>
				<path class="st3" d="M553.5,319.3l0.3,32c0.9-1.8,2.6-3.8,5-5.8v-25.2c-0.9-0.3-1.8-0.5-2.7-0.6
					C555.2,319.5,554.4,319.4,553.5,319.3z"/>
				<path class="st3" d="M534.6,387.5c1.2,1.1,2.7,2.1,4.4,2.7l0.1-12.7c-1.7-0.2-3.3,0-4.6,0.6L534.6,387.5z"/>
				<polygon class="st3" points="589,492.6 589.1,492.6 589.1,492.2 589,492.3 				"/>
				<path class="st3" d="M514.3,243.4v125.8c2.2,0.3,4.4,0.9,6.6,1.9l-0.3,0.7c-2.2-0.8-4.5-0.7-6.3,0.1v10.4c1,0.9,2.3,1.6,3.8,2
					c0-0.5,0-1,0-1.5c0.3-2.5,1.9-4.6,4.4-6.1c3.1-1.8,7.1-2.3,11.4-1.7v-52.3c-6.5,3.2-12.3,8.3-16.4,15l-1.6,2.6l0.9-2.9
					c1.3-4.1,5.8-16.2,17.2-24.9v-13.2l-0.1-18c-0.1,0.3-0.2,0.5-0.4,0.5l-0.2,0.1l-0.2-0.1c-1.1-0.5-0.8-13.3,0.2-18.2
					c0.2-1,0.4-1.8,0.7-2.3v-4.7l1.1,3.8c0,0,0,0,0.1,0c0.8,0,1.6,0.9,2.5,3.2c2,4.8,4.6,16.5,3.3,17.5c-0.1,0.1-0.3,0.1-0.5,0.1
					c-0.1,0-0.1,0-0.2-0.1l-0.1,27.5c0.8-0.4,1.6-0.8,2.5-1.2c3.7-1.7,7.3-2.7,10.8-3.2l0-11.4l0-1.3c-0.1,0.2-0.2,0.3-0.3,0.4
					l-0.2,0.1l-0.2,0c-1.2-0.4-0.3-9.3-0.1-10.6c0.2-1.7,0.5-2.9,0.8-3.8v-2l0.4,0.9c0.6-1.2,1.2-1.3,1.4-1.3
					c1.1-0.1,2.4,1.7,3.6,5.3c1,2.8,2.9,10,1.6,10.7c-0.3,0.2-0.5,0.1-0.8-0.1v12.7c4.3,0,8.2,0.6,11.7,1.4v-3.7
					c-0.1,0.2-0.2,0.4-0.4,0.5l-0.2,0.1l-0.2,0c-1.2-0.4-0.3-9.3-0.1-10.6c0.3-1.8,0.5-3.1,0.8-4v-2.4l0.6,1.1c0.5-0.9,1-0.9,1.2-1
					c0.1,0,0.2,0,0.3,0c-19.8-17.5-48.5-37.5-51.5-38.8C519.3,245.3,516.8,244.3,514.3,243.4z"/>
				<path class="st3" d="M558.8,303.7v-13.5c-0.1-0.1-0.2-0.2-0.3-0.4c-0.3-0.3-0.5-0.7-0.8-1l-2.8-0.7c-0.6,0.6-1,1.8-1.2,2.5
					c-0.1,0.3-0.2,0.6-0.3,0.8v1.3l0.1,11.4C555.3,303.9,557,303.7,558.8,303.7z"/>
				<path class="st3" d="M540,308.7l0.3-27.6c-0.4-0.2-0.7-0.7-1.3-1.7c-0.3-0.5-0.7-1.1-1.1-1.6l-2.1-1.2c-0.9,0.5-1.4,2.6-1.7,3.8
					c0,0.2-0.1,0.3-0.1,0.5v18.5l0.1,13.1C535.8,311.1,537.8,309.8,540,308.7z"/>
				<path class="st3" d="M511.1,376.3c-0.1,1.7,0.8,3.8,2.4,5.4c0-3.1,0-6.2,0-9.2c0,0-0.1,0.1-0.2,0.1
					C512,373.5,511.2,374.8,511.1,376.3z"/>
				<path class="st3" d="M521.8,235.8c-5.5-2.3-9.7-2.7-12.6-1c-2.4,1.3-4,4.1-4.7,8.1v127.5c2.6-1.2,5.7-1.6,8.9-1.3
					c0-31.6,0-63.1,0-94.7c0-10.7,0-21.4,0-32.1c0.2,0.1,0.4,0.1,0.5,0.2c2.7,0.9,5.5,2,8.2,3.1c4.6,1.9,7.4,4.6,8.5,5.4
					c14.6,11.7,28.1,17.9,48.2,38c2.3,2.3,6,6,10.2,10.9v-7.1C558.4,260.9,535.9,241.8,521.8,235.8z"/>
				<path class="st3" d="M574.9,286.5c0.6,0.9,1.2,2.2,1.8,3.8c1,2.8,2.9,10,1.6,10.7c-0.3,0.2-0.6,0.1-0.9-0.1v6.2
					c3.5,1.4,6.2,2.9,7.6,3.8v-12.4h0.8v12.9c0,0,0.1,0.1,0.1,0.1l0.2,0.1l-0.3,8.1v12.4l0.5-2.5l1.3,38.7l-0.1,0.1
					c-0.2,0.2-0.8,0.9-1.7,1.7v96.8c0.8,0.6,1.7,1.1,2.5,1.7l0.2,0.1l0.4,22.4l0.1,0v-190c-2.3-3.1-5.9-7.1-10.8-11.7
					C577.2,288.6,576.1,287.5,574.9,286.5z"/>
				<path class="st3" d="M588.4,492.6L515.5,536v-26.5l18.5-14.4v-35.9c-1.3-0.2-2.5-0.1-3.8,0.2c-9.8,2.5-15,19.3-15.9,22.5v57.8
					l74.5-46.8L588.4,492.6L588.4,492.6z"/>
				<path class="st3" d="M572,357.1c1.7-1.1,3.3-2.6,4.6-4.3v-20.8c-1.3-1.6-2.9-3.2-4.6-4.7v9.7l0.5-0.3l-0.5,0.5L572,357.1z"/>
				<path class="st3" d="M577.4,333v18.8c2.4-3.2,4.2-6.9,5.5-10.2C581.9,339.5,580.1,336.3,577.4,333z"/>
				<path class="st3" d="M514.3,396.6v61.6l0.3-8.4l0-0.1l0.1-0.1c0.6-0.6,6-6.4,12.8-6.5c2.2,0,4.4,0.5,6.4,1.6v-14.8
					c-0.1-0.1-0.2-0.2-0.3-0.3c-7.7-6.7-15.3-8.5-18.2-8.9l-0.6-0.1l0.3-0.5c5.3-8.5,10.6-12.8,15.7-12.9c0.2,0,0.3,0,0.5,0
					c0.9,0,1.7,0.2,2.6,0.5v-6.3c-1.1-0.5-2.2-1.1-3.3-1.8c-0.8-0.5-1.8-1.1-2.7-1.8c-1.5,0.2-2.9,0.4-4.4,0.4
					C520.4,398.3,517.3,397.7,514.3,396.6z"/>
				<path class="st3" d="M534.9,408.1c1.3,0.6,2.6,1.4,3.9,2.6l0.1-7.5c-1.4-0.4-2.8-0.9-4.2-1.5l0,6.2
					C534.8,408.1,534.9,408.1,534.9,408.1z"/>
				<path class="st3" d="M531.8,381.9c0,1.3,0.6,2.9,1.7,4.3l0.5,0.1l0,0.1v-8c-0.1,0.1-0.2,0.1-0.3,0.2
					C532.5,379.4,531.8,380.6,531.8,381.9z"/>
				<path class="st3" d="M576.7,300.1c-0.1-0.1-0.2-0.2-0.3-0.3c-0.8-1-1.9-2.4-3-2.2c-0.6,0.1-1.1,0.9-1.5,1.7v6
					c1.7,0.5,3.2,1,4.7,1.5L576.7,300.1L576.7,300.1z"/>
				<polygon class="st4" points="516.3,534.6 588.1,491.9 588.1,491.9 588.1,491.7 553.2,481.3 553.3,481 516.3,509.8 				"/>
				<path class="st4" d="M577.2,461.2l-0.3-0.3c-0.2-0.1-0.3-0.3-0.5-0.4c-1.5-1.3-3.1-2.8-4.6-4.3c-0.2-0.2-0.4-0.4-0.6-0.6
					l-0.5-0.5c-0.2-0.2-0.4-0.4-0.6-0.6c-3.8-3.9-7.3-8-10.7-12.7c-0.3-0.4-0.5-0.7-0.8-1.1c-1.5-2-2.9-4-4.3-6.3
					c-0.3-0.4-0.5-0.8-0.8-1.2c-1.7-2.5-3.1-4.9-4.8-7.6c-3.3-5.4-6.3-10.1-9.2-13.2c-0.3-0.3-0.5-0.5-0.8-0.8
					c-1.3-1.3-2.6-2.2-3.9-2.8c-0.3-0.1-0.5-0.2-0.8-0.3c-0.8-0.3-1.7-0.4-2.5-0.5c-0.1,0-0.3,0-0.4,0c-4.8,0.1-9.7,4.1-14.8,12
					c3.3,0.6,10.7,2.6,18,9c0.3,0.2,0.5,0.5,0.8,0.7c1.4,1.3,2.8,2.7,4.1,4.3c0.3,0.3,0.5,0.6,0.8,1c1.3,1.6,2.5,3.4,3.7,5.2
					c9.5,15.4,10.2,32.5,10,39.5l0.8,0.3l-0.7,0.5l34.4,10.3l-0.4-21.8C584.1,466.8,580.6,464.1,577.2,461.2z"/>
				<path class="st4" d="M527.2,397.3c-4.1-3.2-8.2-7.8-9-12.1c-4.5-1.1-8.1-5.2-7.8-9c0.1-1.7,1-3.3,2.5-4.3
					c1.2-0.8,2.6-1.3,4.2-1.3c-4.8-1.3-9.7-1-13.4,1.1c-2.7,1.5-4.4,3.8-4.8,6.3c-1,6,5.9,12.6,10.8,15.6
					C514.8,396.8,521.1,398.1,527.2,397.3z"/>
				<path class="st5" d="M589.9,491.6V301v-8.5l-0.1-0.1c-32.4-33.9-55.4-53.1-69.5-58.1c-4.8-1.7-8.7-1.8-11.5-0.2
					c-2.6,1.5-4.3,4.4-5.1,8.7l0,0.1v127.9c-0.1,0.1-0.3,0.1-0.4,0.2c-2.9,1.6-4.8,4-5.2,6.8c-0.7,4.1,2.1,8.6,5.6,12v150.9h9.8v0.3
					l0.7-0.4l75.8-46.9V493v-1.2l0.1-0.1L589.9,491.6z M513.5,479l-0.3,6.9l0.3-1c0,18.3,0,36.7,0,55h-8.9V390.6
					c1.6,1.5,3.3,2.7,4.7,3.6c1.3,0.8,2.8,1.5,4.2,2.1C513.5,423.9,513.5,451.4,513.5,479z M509.6,393.6c-4.9-3-11.8-9.7-10.8-15.6
					c0.4-2.5,2.1-4.8,4.8-6.3c3.7-2.1,8.5-2.5,13.4-1.1c-1.5,0.1-3,0.5-4.2,1.3c-1.5,1.1-2.4,2.6-2.5,4.3c-0.2,3.8,3.3,7.8,7.8,9
					c0.8,4.3,4.9,8.9,9,12.1C521.1,398.1,514.8,396.8,509.6,393.6z M553.3,481l-0.1,0.3l35,10.5v0.1l0,0l-71.8,42.7v-24.8L553.3,481
					z M534.8,494.4v-35.1c0.9,0.2,1.8,0.6,2.7,1.1c0.5,0.3,0.9,0.6,1.3,0.9v30L534.8,494.4z M539.6,449.5V436
					c1.2,1.5,2.3,3.1,3.3,4.7c9.5,15.4,10,32.6,9.8,39.3l0,0.3l0.1,0l-13.2,10.3v-28.8c4,3.4,7.4,9.5,9.4,17.4l0.8-0.1
					C549.3,474.4,547.3,458.9,539.6,449.5z M553.7,480.6l0.7-0.5l-0.8-0.3c0.2-7-0.5-24.1-10-39.5c-1.1-1.8-2.4-3.6-3.7-5.2
					c-0.3-0.3-0.5-0.7-0.8-1c-1.3-1.5-2.7-3-4.1-4.3c-0.3-0.3-0.5-0.5-0.8-0.7c-7.4-6.4-14.7-8.4-18-9c5-7.9,10-12,14.8-12
					c0.1,0,0.3,0,0.4,0c0.8,0,1.6,0.2,2.5,0.5c0.3,0.1,0.5,0.2,0.8,0.3c1.3,0.6,2.6,1.5,3.9,2.8c0.3,0.3,0.5,0.5,0.8,0.8
					c3,3.2,5.9,7.8,9.2,13.2c1.6,2.6,3.1,5,4.8,7.6c0.3,0.4,0.5,0.8,0.8,1.2c1.5,2.2,2.9,4.3,4.3,6.3c0.3,0.4,0.5,0.7,0.8,1.1
					c3.5,4.7,7,8.8,10.7,12.7c0.2,0.2,0.4,0.4,0.6,0.6l0.5,0.5c0.2,0.2,0.4,0.4,0.6,0.6c1.5,1.5,3.1,3,4.6,4.3
					c0.2,0.1,0.3,0.3,0.5,0.4l0.3,0.3c3.4,2.9,7,5.6,10.5,7.9l0.4,21.8L553.7,480.6z M538.8,435v13.6c-0.2-0.3-0.5-0.5-0.7-0.8
					c-1.1-1.1-2.2-2-3.3-2.7v-14.5c1.3,1.2,2.5,2.5,3.7,3.9C538.6,434.7,538.7,434.9,538.8,435z M553.4,356.1c0,0.1,0.1,0.1,0.1,0.2
					l0,22.3c-2.2,0.4-4.3,1-6.2,2.1c-3.5,2-5.8,4.9-6.3,8.2c-0.1,0.6-0.1,1.2-0.1,1.8l-0.7-0.1c-0.2,0-0.3-0.1-0.5-0.1l0.1-12.8
					c0.6,0.1,1.3,0.3,1.9,0.5l0.3-0.7c-0.7-0.3-1.5-0.6-2.2-0.9l0.3-56.1c4.3-1.2,8.8-1.6,13.3-1.1l0.1,32.8
					C552.8,353.5,552.8,354.9,553.4,356.1z M570.3,338c-4.3,2.2-7.9,4.5-10.8,6.8v-24.3c4.6,1.4,8.5,3.6,11.7,6.2v10.8L570.3,338z
					 M571.2,338.2v19.5c-1.1,0.6-2.2,1.1-3.4,1.5c-2.5,0.7-5.6,0.6-8.2,0v-4.9c2.3-5,6.1-10.4,11.2-15.6L571.2,338.2z M568.6,339.8
					c-5.9,6.4-9.8,12.8-11.5,18.4c-1.4-0.6-2.5-1.5-3-2.5C552.3,352,558.1,345.6,568.6,339.8z M558.8,356v2.9
					c-0.3-0.1-0.6-0.2-0.9-0.3C558.1,357.7,558.5,356.9,558.8,356z M558.8,371.8v6.6c-1.6-0.1-3.2-0.1-4.8,0.1l-0.2-21.7
					c0.7,0.9,1.7,1.6,3,2.2C555.5,364.2,556,368.7,558.8,371.8z M558.8,345.5c-2.4,2-4.1,4-5,5.8l-0.3-32c0.8,0.1,1.7,0.2,2.5,0.4
					c0.9,0.2,1.8,0.4,2.7,0.6V345.5z M563.7,380c-1.9,0-3.8,0.6-5.3,1.6c-1.8,1.3-2.9,3.1-3.1,5.2c-0.3,4.6,4,9.4,9.4,10.6l17.5,1.9
					l1.9,9.6c-9.6,4.7-21,4.2-29.9-1.3c-5.7-3.5-13.7-11.4-12.5-18.5c0.5-3.1,2.6-5.8,5.9-7.7C552.2,378.8,558,378.4,563.7,380z
					 M559.6,378.5v-5.9c2.5,2.3,6.6,3.8,10.7,4c0.3,0,0.5,0,0.7,0c0.1,0,0.2,0,0.2,0v20.8l-6.3-0.7c-2.1-0.5-3.9-1.4-5.3-2.7v-12.1
					c2.2-1.2,5.1-1.4,7.9-0.4l0.3-0.7C565,379.5,562.3,378.8,559.6,378.5z M558.8,382.3v10.9c-1.8-1.9-2.8-4.3-2.7-6.3
					C556.3,385,557.2,383.5,558.8,382.3z M572,376.5c1.6-0.1,3.2-0.4,4.6-0.9v22.3l-4.6-0.5L572,376.5z M582.9,398.6l-5.5-0.6v-22.6
					c3.2-1.2,5.8-3,7.6-4.5v38.5v57.1c-2.5-1.8-4.9-3.7-7.3-5.7l-0.3-0.2l0-48.4c2.5-0.6,5-1.4,7.3-2.6l0.3-0.1L582.9,398.6z
					 M576.7,412.2v47.6c-1.4-1.3-2.9-2.6-4.3-4c-0.1-0.1-0.2-0.2-0.3-0.3l0-42.7C573.6,412.7,575.1,412.5,576.7,412.2z M571.2,412.8
					v41.8l0,0c-0.2-0.2-0.4-0.4-0.6-0.6c-3.7-3.8-7.2-8-10.7-12.6c-0.1-0.1-0.2-0.3-0.3-0.5v-30c3.4,1.2,7.1,1.9,10.8,1.9
					C570.7,412.8,570.9,412.8,571.2,412.8z M558.8,410.6v29.2c-1.3-1.8-2.6-3.7-4-5.8c-0.1-0.2-0.2-0.4-0.3-0.5l-0.2-25.1
					C555.7,409.3,557.2,410,558.8,410.6z M553.7,432.3c-1.5-2.3-2.9-4.6-4.4-7c-3.4-5.4-6.3-10.1-9.3-13.4c-0.1-0.1-0.2-0.2-0.3-0.3
					l0-8.1c2.7,0.7,5.4,1,8.1,1c0.5,0,0.9,0,1.3,0c1.5,1.4,3.1,2.5,4.5,3.4L553.7,432.3z M539.2,376.3c-1.6-0.5-3.1-0.9-4.7-1.2
					l-0.4-52.5c1.8-0.9,3.7-1.6,5.7-2.2L539.2,376.3z M539.2,377.5l-0.1,12.7c-1.7-0.6-3.2-1.6-4.4-2.7l-0.1-9.5
					C535.9,377.5,537.5,377.3,539.2,377.5z M537.8,376.6C537.8,376.6,537.8,376.6,537.8,376.6c-1.8,0-3.4,0.5-4.6,1.3
					c-1.4,1-2.1,2.4-2.2,4c-0.1,3.8,4,8.1,9,9.4l0.9,0.1c0.5,4.4,3.7,8.9,7.3,12.3c-5.9,0.1-12-1.5-17.3-4.7
					c-5.1-3.1-13-10.3-12.2-16.1c0.3-2.2,1.7-4.2,4.1-5.5C526,375.6,531.3,374.7,537.8,376.6z M534,378.4v8l0-0.1l-0.5-0.1
					c-1.1-1.4-1.7-3-1.7-4.3c0-1.3,0.7-2.5,1.9-3.4C533.7,378.5,533.8,378.5,534,378.4z M538.9,403.3l-0.1,7.5
					c-1.3-1.2-2.6-2.1-3.9-2.6c-0.1,0-0.1,0-0.2-0.1l0-6.2C536.1,402.4,537.5,402.9,538.9,403.3z M530.7,399.7
					c1.1,0.7,2.2,1.2,3.3,1.8v6.3c-0.9-0.3-1.7-0.4-2.6-0.5c-0.2,0-0.3,0-0.5,0c-5.2,0.1-10.5,4.4-15.7,12.9l-0.3,0.5l0.6,0.1
					c2.9,0.5,10.5,2.2,18.2,8.9c0.1,0.1,0.2,0.2,0.3,0.3v14.8c-2-1.1-4.2-1.7-6.4-1.6c-6.9,0.1-12.3,5.9-12.8,6.5l-0.1,0.1l0,0.1
					l-0.3,8.4v-61.6c3,1.1,6.1,1.6,9.3,1.6c1.5,0,3-0.1,4.4-0.4C528.9,398.6,529.8,399.2,530.7,399.7z M571,375.8
					c-0.2,0-0.5,0-0.7,0c-4.1-0.2-8.3-1.8-10.6-4.2c-2.8-2.8-3.3-7.1-2-12.2c3.2,1.2,7.3,1.4,10.4,0.5c10.7-3,15.9-17.8,17.7-24
					l1,32.2C585.7,369.3,579.4,375.8,571,375.8z M572,337.1v-9.7c1.8,1.5,3.3,3.1,4.6,4.7v20.8c-1.4,1.7-2.9,3.1-4.6,4.3l0-19.8
					l0.5-0.5L572,337.1z M577.4,333c2.7,3.3,4.5,6.5,5.5,8.6c-1.3,3.3-3.1,7-5.5,10.2V333z M584.3,337.8c-0.3,0.9-0.6,1.8-1,2.8
					c-3.2-6.1-11.4-18.8-27.1-21.7c-14.2-2.7-28.6,3.5-37.6,15.8c2.5-6.4,9.4-19.9,24.3-26.6c21-9.4,39.6,2,42.4,3.9L584.3,337.8z
					 M572,299.3c0.3-0.8,0.8-1.5,1.5-1.7c1-0.2,2.1,1.2,3,2.2c0.1,0.1,0.2,0.2,0.3,0.3v6.7c-1.4-0.5-3-1-4.7-1.5L572,299.3z
					 M573.3,296.9c-1.4,0.3-2.1,2.1-2.5,3.4c-0.2-2.9,0.2-11.3,1.7-13.9c0.2-0.4,0.4-0.6,0.6-0.6c0,0,0,0,0,0c0.1,0,0.5,0.1,1.2,1.2
					c2.2,3.6,3.9,11.9,3.6,13.3c-0.2-0.2-0.6-0.6-0.8-0.9C576.1,298.2,574.8,296.6,573.3,296.9z M573,285.1c-0.2,0-0.7,0.1-1.2,1
					l-0.6-1.1v2.4c-0.3,0.9-0.6,2.2-0.8,4c-0.2,1.3-1.1,10.2,0.1,10.6l0.2,0l0.2-0.1c0.2-0.1,0.3-0.2,0.4-0.5v3.7
					c-3.5-0.9-7.4-1.5-11.7-1.4V291c0.3,0.2,0.5,0.3,0.8,0.1c1.3-0.8-0.6-7.9-1.6-10.7c-1.3-3.6-2.5-5.4-3.6-5.3
					c-0.3,0-0.8,0.1-1.4,1.3l-0.4-0.9v2c-0.3,0.9-0.6,2.1-0.8,3.8c-0.2,1.3-1.1,10.2,0.1,10.6l0.2,0l0.2-0.1
					c0.2-0.1,0.3-0.2,0.3-0.4l0,1.3v-1.3c0.1-0.2,0.2-0.4,0.3-0.8c0.3-0.8,0.6-1.9,1.2-2.5l2.8,0.7c0.3,0.3,0.6,0.7,0.8,1
					c0.1,0.1,0.2,0.2,0.3,0.4v13.5c-1.7,0-3.5,0.2-5.4,0.5l-0.1-11.4l0,11.4c-3.5,0.5-7.1,1.6-10.8,3.2c-0.8,0.4-1.7,0.8-2.5,1.2
					l0.1-27.5c0.1,0,0.1,0,0.2,0.1c0.2,0,0.3,0,0.5-0.1c1.3-1-1.3-12.7-3.3-17.5c-0.9-2.2-1.7-3.2-2.5-3.2c0,0,0,0-0.1,0l-1.1-3.8
					v4.7c-0.3,0.5-0.5,1.3-0.7,2.3c-1,4.9-1.3,17.7-0.2,18.2l0.2,0.1l0.2-0.1c0.2-0.1,0.3-0.2,0.4-0.5l0.1,18v-18.5
					c0-0.1,0.1-0.3,0.1-0.5c0.3-1.2,0.8-3.3,1.7-3.8l2.1,1.2c0.4,0.5,0.8,1.1,1.1,1.6c0.6,1,1,1.5,1.3,1.7l-0.3,27.6
					c-2.1,1.1-4.1,2.4-5.9,3.8l-0.1-13.1v13.2c-11.4,8.7-15.9,20.8-17.2,24.9l-0.9,2.9l1.6-2.6c4.2-6.7,9.9-11.8,16.4-15V375
					c-4.3-0.6-8.4,0-11.4,1.7c-2.5,1.5-4.1,3.6-4.4,6.1c-0.1,0.5-0.1,1,0,1.5c-1.5-0.4-2.8-1.1-3.8-2V372c1.8-0.8,4.1-0.9,6.3-0.1
					l0.3-0.7c-2.2-1-4.4-1.6-6.6-1.9V243.4c2.5,0.9,5.1,1.9,7.6,2.9c3,1.3,31.7,21.3,51.5,38.8C573.2,285.1,573.1,285,573,285.1z
					 M559.2,289.4c-1-1.2-2.3-2.8-3.8-2.5c-1.4,0.3-2.1,2.1-2.5,3.4c-0.2-2.9,0.2-11.3,1.7-13.9c0.2-0.4,0.4-0.6,0.6-0.6
					c0,0,0,0,0,0c0.1,0,0.5,0.1,1.2,1.2c2.2,3.6,3.9,11.9,3.6,13.3C559.8,290.1,559.4,289.7,559.2,289.4z M539.6,279.1
					c-1-1.6-2.4-3.6-3.9-3.3c-1.4,0.3-2,2.6-2.4,4.2c-0.3-4-0.2-15.6,1.4-18.4c0.2-0.3,0.3-0.4,0.4-0.4c0,0,0,0,0,0
					c0.1,0,0.4,0.2,0.8,0.8c2.4,3.7,4.9,16.1,4.5,18.3C540.2,280,539.9,279.5,539.6,279.1z M513.5,372.4c0,3.1,0,6.2,0,9.2
					c-1.6-1.6-2.5-3.7-2.4-5.4c0.1-1.5,0.9-2.8,2.2-3.7C513.3,372.5,513.4,372.5,513.5,372.4z M515.4,450c0.9-1,5.9-6,12.2-6.2
					c3.5-0.1,6.9,1.4,9.9,4.5c6.8,6.8,9.7,18.9,10.9,25.9c-2.5-7.1-6.2-12.2-10.5-14.6c-1.8-1-3.5-1.5-5.4-1.5
					c-0.8,0-1.7,0.1-2.5,0.3c-8.6,2.2-13.7,14.6-15.7,20.5L515.4,450z M514.3,539.6v-57.8c0.9-3.2,6.1-20,15.9-22.5
					c1.3-0.3,2.5-0.4,3.8-0.2V495l-18.5,14.4V536l72.9-43.4l0,0l0.4,0.1L514.3,539.6z M589.1,492.6l-0.1,0.1l0-0.3l0.1-0.1
					L589.1,492.6L589.1,492.6z M589.1,491.2l-0.1,0l-0.4-22.4l-0.2-0.1c-0.8-0.5-1.7-1.1-2.5-1.7v-96.8c0.9-0.8,1.5-1.5,1.7-1.7
					l0.1-0.1l-1.3-38.7l-0.5,2.5v-12.4l0.3-8.1l-0.2-0.1c0,0-0.1-0.1-0.1-0.1v-12.9H585v12.4c-1.4-0.9-4-2.4-7.6-3.8v-6.2
					c0.3,0.2,0.6,0.3,0.9,0.1c1.3-0.8-0.6-7.9-1.6-10.7c-0.6-1.7-1.2-3-1.8-3.8c1.2,1,2.3,2.1,3.4,3.1c4.9,4.6,8.5,8.5,10.8,11.7
					L589.1,491.2L589.1,491.2z M589.1,299.9c-4.3-4.8-7.9-8.6-10.2-10.9c-20.1-20.1-33.6-26.3-48.2-38c-1.1-0.9-3.8-3.5-8.5-5.4
					c-2.7-1.1-5.4-2.1-8.2-3.1c-0.2-0.1-0.4-0.1-0.5-0.2c0,10.7,0,21.4,0,32.1c0,31.6,0,63.1,0,94.7c-3.2-0.3-6.3,0.1-8.9,1.3V242.9
					c0.7-4.1,2.3-6.8,4.7-8.1c2.9-1.6,7.1-1.3,12.6,1c14.1,6,36.6,25.1,67.3,57.1L589.1,299.9L589.1,299.9z"/>
				<path class="st4" d="M522.9,377.4c-2.3,1.3-3.8,3.3-4.1,5.5c-0.8,5.8,7.1,13,12.2,16.1c5.3,3.2,11.3,4.8,17.3,4.7
					c-3.7-3.4-6.9-7.9-7.3-12.3l-0.9-0.1c-5-1.3-9.1-5.6-9-9.4c0-1.6,0.8-3,2.2-4c1.3-0.9,2.8-1.3,4.6-1.3c0,0,0,0,0,0
					C531.3,374.7,526,375.6,522.9,377.4z"/>
				<path class="st4" d="M541.7,389c-1.2,7.1,6.8,15,12.5,18.5c8.9,5.5,20.3,6,29.9,1.3l-1.9-9.6l-17.5-1.9c-5.4-1.2-9.7-6-9.4-10.6
					c0.2-2.1,1.2-3.9,3.1-5.2c1.5-1,3.3-1.6,5.3-1.6c-5.8-1.6-11.6-1.2-16,1.3C544.4,383.2,542.3,385.9,541.7,389z"/>
				<path class="st4" d="M556.4,277.1c-0.7-1.1-1.1-1.2-1.2-1.2c0,0,0,0,0,0c-0.2,0-0.4,0.2-0.6,0.6c-1.5,2.6-1.9,11-1.7,13.9
					c0.4-1.3,1.1-3.1,2.5-3.4c1.5-0.3,2.8,1.3,3.8,2.5c0.3,0.3,0.6,0.8,0.8,0.9C560.4,288.9,558.6,280.7,556.4,277.1z"/>
				<path class="st4" d="M574.3,287c-0.7-1.1-1.1-1.2-1.2-1.2c0,0,0,0,0,0c-0.2,0-0.4,0.2-0.6,0.6c-1.5,2.6-1.9,11-1.7,13.9
					c0.4-1.3,1.1-3.1,2.5-3.4c1.5-0.3,2.8,1.3,3.8,2.5c0.3,0.3,0.6,0.8,0.8,0.9C578.2,298.9,576.5,290.6,574.3,287z"/>
				<path class="st4" d="M535.9,262c-0.4-0.6-0.7-0.8-0.8-0.8c0,0,0,0,0,0c-0.1,0-0.2,0.1-0.4,0.4c-1.6,2.8-1.8,14.4-1.4,18.4
					c0.4-1.6,1-3.9,2.4-4.2c1.5-0.4,2.8,1.6,3.9,3.3c0.3,0.4,0.6,0.9,0.8,1.2C540.9,278.2,538.3,265.7,535.9,262z"/>
				<path class="st4" d="M542.9,308.1c-15,6.7-21.8,20.2-24.3,26.6c9-12.3,23.4-18.5,37.6-15.8c15.7,3,24,15.6,27.1,21.7
					c0.4-1,0.7-1.9,1-2.8l1-25.9C582.5,310.1,563.9,298.7,542.9,308.1z"/>
				<path class="st4" d="M530,458.5c0.8-0.2,1.7-0.3,2.5-0.3c1.8,0,3.6,0.5,5.4,1.5c4.3,2.4,7.9,7.5,10.5,14.6
					c-1.2-7-4.1-19.1-10.9-25.9c-3-3.1-6.4-4.6-9.9-4.5c-6.3,0.1-11.3,5.2-12.2,6.2l-1.1,29C516.2,473.2,521.4,460.7,530,458.5z"/>
				<path class="st4" d="M554.1,355.8c0.5,1,1.6,1.8,3,2.5c1.7-5.6,5.6-12,11.5-18.4C558.1,345.6,552.3,352,554.1,355.8z"/>
				<path class="st4" d="M585.7,335.8c-1.8,6.3-7,21-17.7,24c-3,0.9-7.2,0.6-10.4-0.5c-1.3,5.1-0.8,9.4,2,12.2
					c2.4,2.4,6.5,4,10.6,4.2c0.2,0,0.5,0,0.7,0c8.4,0,14.7-6.5,15.8-7.7L585.7,335.8z"/>
			</g>
		</g>
	</g>
</g>
<g id="Layer_3">
	<path class="st10" d="M1337.5,439.5"/>
	<path class="st11" d="M1053.5,359.5"/>
	<path class="st11" d="M1150.5,250.5"/>
	<g>
		
			<image style="overflow:visible;opacity:0.35;enable-background:new    ;" width="324" height="427" xlink:href="8C23DA32.png"  transform="matrix(1 0 0 1 503 140)">
		</image>
		<g>
			<g>
				<path class="st5" d="M664.9,239.5c-26.7-0.6-51.8,22.6-64.2,59.1v247.1H727V298.6C714.9,262.7,691.2,240,664.9,239.5z"/>
				<path class="st5" d="M669.4,227.2c-31.5-2.5-61.8,25.9-75.3,70.8v259.9h142.2V298C724.1,256.7,698.4,229.6,669.4,227.2z
					 M727.7,298.3v248.4H600.1V298.3l0-0.1c6.1-18.2,15.4-33.5,26.9-44.1c11.5-10.6,24.6-16,37.9-15.7c26.5,0.6,50.5,23.5,62.7,59.8
					L727.7,298.3z"/>
				<path class="st5" d="M735.5,292.8l-8.8-21.1c-13.9-26.8-34.5-43.7-57.2-45.5c-15.7-1.3-31.2,4.8-44.8,17.7
					c-7.3,6.9-13.8,15.4-19.2,25.3l-7.6,16.3c-1.6,4-3,8.1-4.3,12.4l0,261.3h143.6V297.9l0-0.2c-0.5-1.6-1-3.2-1.5-4.7l0,0
					L735.5,292.8z M736.4,557.9H594.2V298.1c13.5-44.9,43.7-73.4,75.3-70.8c29,2.3,54.6,29.5,67,70.8V557.9z"/>
				<path class="st5" d="M665,238.4c-13.3-0.3-26.4,5.1-37.9,15.7s-20.8,25.8-26.9,44.1l0,0.1v248.4h127.6V298.3l0-0.1
					C715.5,261.9,691.5,239,665,238.4z M727,545.7H600.8V298.6c12.3-36.5,37.5-59.7,64.2-59.1c26.2,0.6,50,23.2,62.1,59.1L727,545.7
					L727,545.7z"/>
				<path class="st5" d="M747.1,270.8c-1.2,2.5-3.1,4.8-4.9,5.6c-6,2.9-13.2-4.8-16.5-9L736,292c1.1,0.4,6.5,2.2,10.6-2.4
					c1.9-2.2,3.4-5.6,3.7-8.6C750.6,277.5,749.4,274,747.1,270.8z"/>
				<path class="st5" d="M747,269.2c0.4-1.1,0.6-2.2,0.5-3.2c-0.3-3.1-4.4-5.6-11.8-4.9C740.4,263,744.3,265.8,747,269.2z"/>
				<path class="st5" d="M747.5,269.8c0.5-1.4,0.8-2.8,0.7-4c-0.5-4.7-6.4-6.9-14.7-5.5l-2.1,0.4l2.1,0.7c5.6,1.9,10.1,5,13.1,8.8
					c-1,2.3-2.8,4.4-4.6,5.3c-7.5,3.7-17.3-10.6-17.7-11.2l-2.1-3.1l4.4,10.6l8.8,21.1l0.1,0.2l0,0l0.1,0c0.3,0.1,2,0.8,4.1,0.8
					c2.2,0,4.9-0.7,7.2-3.3c2.1-2.4,3.6-6,4-9.3C751.3,277.2,750.1,273.3,747.5,269.8z M750.2,281c-0.3,3-1.8,6.4-3.7,8.6
					c-4,4.6-9.5,2.9-10.6,2.4l-10.2-24.6c3.3,4.2,10.5,11.9,16.5,9c1.8-0.9,3.7-3.1,4.9-5.6C749.4,274,750.6,277.5,750.2,281z
					 M747.5,266c0.1,0.9-0.1,2-0.5,3.2c-2.7-3.3-6.5-6.2-11.3-8.1C743.1,260.4,747.2,262.9,747.5,266z"/>
				<path class="st5" d="M606.7,264.6c-4,5.2-12.4,14.7-18.2,12.1c-1.7-0.8-3.3-2.9-4.3-5.6c0-0.1,0-0.1-0.1-0.2
					c-2.9,4-4.6,8.3-4.7,12.3c0,3.4,1,7.1,2.7,9.4c3.6,4.9,9.6,2.1,10.7,1.5L606.7,264.6z"/>
				<path class="st5" d="M597.4,258.2c-7,0-12.3,2.9-13.1,7.3c-0.2,1-0.2,2.3,0.1,3.5C587.6,264.8,592.1,261,597.4,258.2z"/>
				<path class="st5" d="M609.1,261.3l-0.5-0.7c-0.5,0.8-12.5,18.4-19.9,15c-1.5-0.7-3-2.7-3.9-5.1c0-0.1-0.1-0.3-0.1-0.4
					c3.6-4.7,8.8-9,14.9-11.8l1.9-0.9l-2-0.1c-8.4-0.6-14.8,2.6-15.9,7.9c-0.3,1.4-0.2,3,0.2,4.6c-3.1,4.3-5,8.9-5,13.4
					c-0.1,3.7,1.1,7.7,2.9,10.2c1.8,2.4,4,3.1,6.1,3.1c2.7,0,5-1.2,5.4-1.4l0.1-0.1l4.5-9.6l7.6-16.3L609.1,261.3z M582.2,292.6
					c-1.7-2.3-2.8-6-2.7-9.4c0.1-4,1.8-8.3,4.7-12.3c0,0.1,0,0.1,0.1,0.2c0.9,2.7,2.6,4.9,4.3,5.6c5.8,2.6,14.2-6.8,18.2-12.1
					l-13.8,29.4C591.8,294.6,585.8,297.4,582.2,292.6z M584.3,265.5c0.9-4.4,6.2-7.2,13.1-7.3c-5.3,2.8-9.8,6.6-13,10.8
					C584.1,267.8,584,266.5,584.3,265.5z"/>
			</g>
		</g>
	</g>
	<g>
		
			<image style="overflow:visible;opacity:0.35;enable-background:new    ;" width="365" height="251" xlink:href="8C23DA3D.png"  transform="matrix(1 0 0 1 193 80)">
		</image>
		<g>
			<g>
				<line class="st9" x1="308" y1="172.8" x2="482.4" y2="264.9"/>
				<line class="st9" x1="443" y1="258.2" x2="268.6" y2="166.1"/>
				<line class="st9" x1="434.1" y1="264.4" x2="327.5" y2="214.1"/>
			</g>
		</g>
	</g>
</g>
<g id="Layer_2">
	<g>
		
			<image style="overflow:visible;opacity:0.35;enable-background:new    ;" width="670" height="303" xlink:href="8C23DA3E.png"  transform="matrix(1 0 0 1 441 359)">
		</image>
		<g>
			<path class="st8" d="M1082.3,499c-12.9,0-24.2,7-30.3,17.4c-2.5-14.2-14.9-25.1-29.9-25.1c-13.2,0-24.4,8.4-28.6,20.1
				c-1.3,0.9-2.5,1.9-3.6,3c-1.4-0.3-2.8-0.5-4.3-0.6c-5.3-17-19.9-29.9-37.8-32.7c-3.4-0.9-6.9-1.3-10.6-1.3
				c-11.8,0-22.6,4.8-30.3,12.6c-10.5,0.6-19.8,6-25.7,13.9c-1.2,0.2-2.4,0.5-3.5,0.8c-4-22.8-23.9-40.2-47.8-40.2
				c-24.1,0-44,17.5-47.9,40.5c-3.8,0.5-7.5,1.6-10.8,3.3c-7.9-8.9-19.3-14.5-32.1-14.5c-5.3,0-10.4,1-15.1,2.7
				c-4.5-1.7-9.3-2.6-14.4-2.6c-16.2,0-30.1,9.4-36.7,23c-6.8-4.8-15.2-7.6-24.1-7.6c-9.2,0-17.7,2.9-24.6,7.9
				c-14.7,6.5-25,21.2-25,38.3c0,23.1,18.7,41.8,41.8,41.8c5.7,0,11.2-1.2,16.1-3.2c7.7,13,22,21.8,38.2,21.8
				c14.2,0,26.8-6.6,34.9-16.9c17.4-0.1,32.5-10,40-24.5c5,2.6,10.7,4.1,16.8,4.1c6.3,4.8,14.1,7.6,22.6,7.6
				c11.2,0,21.2-4.9,28.1-12.7c5.2,8,14.1,13.2,24.3,13.2c1.7,0,3.4-0.2,5-0.4c5.3,15.1,19.7,25.9,36.6,25.9
				c21.4,0,38.8-17.3,38.8-38.8c0-0.2,0-0.4,0-0.6c8.2-0.3,15.9-2.7,22.5-6.7c1.5,1.2,3.1,2.2,4.8,3.1c3.1,4.2,8.1,7,13.8,7
				c4.8,0,9.2-2,12.3-5.2c2,1.3,4.2,2.3,6.4,3.2c1.1,1,2.5,1.6,4.1,1.6c0.3,0,0.6,0,0.9-0.1c2.7,0.6,5.6,1,8.5,1
				c17.4,0,32-11.8,36.2-27.9c6,10.7,17.5,17.9,30.6,17.9c0.6,0,1.1,0,1.7,0c0.3,0,0.5,0,0.8,0c1.7,0,3.3-0.3,4.8-0.7
				c15.9-3.3,27.9-17.4,27.9-34.3C1117.4,514.8,1101.6,499,1082.3,499z"/>
		</g>
	</g>
	<g>
		
			<image style="overflow:visible;opacity:0.35;enable-background:new    ;" width="747" height="380" xlink:href="8C23DA3C.png"  transform="matrix(1 0 0 1 -103 -178)">
		</image>
		<g>
			<g>
				<path class="st6" d="M394,0.4c0.5-1,1.1-2,1.8-2.9c-0.8,0.3-1.7,0.6-2.6,0.9C393.6-1,393.9-0.3,394,0.4z"/>
				<path class="st6" d="M38.1,95.1c-0.4,0.3-0.9,0.6-1.3,0.9c0.5,0.6,0.9,1.1,1.3,1.7c0-0.4-0.1-0.8-0.1-1.2
					C38,96,38,95.5,38.1,95.1z"/>
				<path class="st6" d="M204.8,38.8c-0.3,0.1-0.6,0.2-0.8,0.4c0.1,1,0.1,1.9,0.1,2.9c0,0.7,0,1.4-0.1,2.1c0.8,0.9,1.6,1.8,2.3,2.8
					c4.4,1.1,8.3,3.3,11.4,6.2c-3.1-3.7-5.3-8.2-6.3-13C209.1,39.9,206.9,39.5,204.8,38.8z"/>
				<g>
					
						<image style="overflow:visible;opacity:0.75;" width="627" height="260" xlink:href="8C23DA33.png"  transform="matrix(1 0 0 1 -36 -101)">
					</image>
					<g>
						<path class="st1" d="M540.6-28.1c-2.2,0-4.3,0.3-6.4,0.7c-4.1-3-9.2-4.7-14.7-4.7c-10.5,0-19.4,6.3-22.7,15.1
							c-4.5,4.7-7.2,10.9-7.2,17.7c0,2.4,0.3,4.7,1,6.9c-0.3,0-0.6,0-0.9,0c-1.9,0-3.8,0.3-5.5,0.7c0.8-2.7,1.3-5.5,1.3-8.5
							c0-5.8-1.7-11.2-4.7-15.8c-3.6-8.8-11-15.8-20.3-19.4c0.4-1.7,0.5-3.5,0.5-5.3c0-15.5-13.4-28-30-28c-6,0-11.6,1.7-16.3,4.5
							c-5.1-3.9-11.7-6.3-18.8-6.3c-6.5,0-12.6,2-17.5,5.3c-1-1.2-2-2.3-3.2-3.2c-3-12.1-14.6-21.2-28.5-21.2
							c-4.7,0-9.2,1.1-13.2,2.9c-4.8-3.3-10.8-5.3-17.3-5.3c-13.8,0-25.3,8.9-28.3,21c-1.6,1.6-3,3.3-4.2,5.2c-0.5,0-1-0.1-1.5-0.1
							c-10.5,0-19,8-19,17.8c0,2.9,0.8,5.6,2.1,8.1c-5.6,2-10.2,6-12.7,11.1c-1.7,0.4-3,1.8-3,3.6c0,1,0.4,1.9,1.1,2.6
							c-0.7,2-1.1,4.2-1.1,6.5c0,0.5,0,1.1,0.1,1.6c-0.6-0.1-1.1-0.1-1.7-0.1c-5.5,0-10.4,2.7-13.2,6.8c-2.1-6.9-8.9-11.9-16.9-11.9
							c-1.3,0-2.5,0.1-3.6,0.4c-1.6-6-5-11.4-9.7-15.4c0.4-1.4,0.7-2.8,0.7-4.3c0-8.2-7.1-14.8-15.8-14.8c-7.6,0-13.9,5-15.4,11.7
							c-5.3,1.2-10.1,3.6-14.1,6.9c-2.4-0.5-5-0.8-7.6-0.8c-14.8,0-27.5,8.7-32.6,20.9c-5.5-3.1-12-4.9-19-4.9
							c-8.7,0-16.7,2.8-22.9,7.5c-8.3,0.3-15.8,3.6-21.3,8.8c-0.8-0.4-1.6-0.7-2.5-1c-2.4-1.4-5.3-2.3-8.3-2.3
							c-1.1,0-2.2,0.1-3.3,0.3c-8.4,0.1-16,3.3-21.5,8.4c-3.7-1.2-7.6-1.8-11.7-1.8c-20.1,0-36.4,15.2-36.4,34
							C-27,48.7-16.7,61.4-2.4,66c-1.4,3-2.2,6.4-2.2,9.9c0,0.2,0,0.4,0,0.6c-3.2,2.7-5.2,6.6-5.2,10.9c0,3.6,1.4,6.9,3.7,9.5
							c-3.1,4.1-4.9,9-4.9,14.3c0,13.8,11.9,24.9,26.6,24.9c14.7,0,26.6-11.2,26.6-24.9c0-2.2-0.3-4.2-0.8-6.2
							c2.5,2.6,6.1,4.3,10.1,4.3c7.5,0,13.6-5.7,13.6-12.8s-6.1-12.8-13.6-12.8c-2,0-3.8,0.4-5.5,1.1c0.8-1.9,1.4-4,1.6-6.1
							c5.6,4.9,13,7.8,21.3,7.8c9.4,0,17.8-3.9,23.6-10.1c3,5,8.8,8.3,15.3,8.3c5.1,0,9.8-2.1,13-5.3c0.8,0.1,1.6,0.1,2.4,0.1
							c8.5,0,16.2-2.9,22.2-7.6c3.6,13.8,16.9,24.1,32.8,24.1c5.3,0,10.3-1.1,14.8-3.2c2.1,0.5,4.3,0.8,6.5,0.8
							c14.1,0,25.5-10.7,25.5-23.8c0-5.4-1.9-10.3-5.1-14.3c5.9,5.7,14.2,9.2,23.3,9.2c3.6,0,7.1-0.6,10.4-1.6
							c6,6.6,15,10.8,25,10.8c16.5,0,30.1-11.3,32.5-26.1c2.5-2,4.6-4.3,6.3-6.8c0.9,0.1,1.8,0.2,2.7,0.2c7.1,0,13.1-4.2,15.4-10.1
							c1.5,0.3,3,0.4,4.5,0.4c2.6,0,5-0.4,7.4-1.1c1.3,0.2,2.7,0.4,4.1,0.4c0.5,0,1.1,0,1.6-0.1c3.6,4.6,9.4,7.7,16,7.7
							c3.9,0,7.6-1.1,10.7-3c3.7,5.7,10.3,9.5,17.9,9.5c5,0,9.5-1.6,13.1-4.3c2.2,0.6,4.4,0.9,6.8,0.9c4,0,7.7-0.9,11-2.5
							c0.7,0.2,1.5,0.3,2.3,0.3c4.9,0,8.9-3.7,8.9-8.3c0-0.1,0-0.3,0-0.4c2,0.3,4.2,0.5,6.3,0.5c1.4,0,2.8-0.1,4.2-0.2
							c3.3,4,8.4,6.6,14.2,6.6c3.1,0,6.1-0.8,8.6-2.1c3.5,5,9.5,8.4,16.4,8.4c10.7,0,19.3-8,19.4-18c2.8,0.9,5.8,1.3,8.9,1.3
							c6.3,0,12.1-1.9,16.8-5.2c1.9,0.4,3.8,0.6,5.8,0.6c15,0,27.1-11.4,27.1-25.4C567.7-16.8,555.6-28.1,540.6-28.1z M394,0.4
							c-0.2-0.7-0.4-1.4-0.8-2.1c0.9-0.2,1.8-0.5,2.6-0.9C395.2-1.6,394.5-0.6,394,0.4z M36.7,96c0.5-0.3,0.9-0.6,1.3-0.9
							C38,95.5,38,96,38,96.5c0,0.4,0,0.8,0.1,1.2C37.6,97.1,37.2,96.6,36.7,96z M206.2,46.9c-0.7-1-1.4-1.9-2.3-2.8
							c0.1-0.7,0.1-1.4,0.1-2.1c0-1-0.1-1.9-0.1-2.9c0.3-0.1,0.6-0.2,0.8-0.4c2.1,0.7,4.3,1.1,6.6,1.2c1,4.8,3.1,9.3,6.3,13
							C214.5,50.1,210.6,48,206.2,46.9z"/>
						<path class="st12" d="M540.6-28.1c-2.2,0-4.3,0.3-6.4,0.7c-4.1-3-9.2-4.7-14.7-4.7c-10.5,0-19.4,6.3-22.7,15.1
							c-4.5,4.7-7.2,10.9-7.2,17.7c0,2.4,0.3,4.7,1,6.9c-0.3,0-0.6,0-0.9,0c-1.9,0-3.8,0.3-5.5,0.7c0.8-2.7,1.3-5.5,1.3-8.5
							c0-5.8-1.7-11.2-4.7-15.8c-3.6-8.8-11-15.8-20.3-19.4c0.4-1.7,0.5-3.5,0.5-5.3c0-15.5-13.4-28-30-28c-6,0-11.6,1.7-16.3,4.5
							c-5.1-3.9-11.7-6.3-18.8-6.3c-6.5,0-12.6,2-17.5,5.3c-1-1.2-2-2.3-3.2-3.2c-3-12.1-14.6-21.2-28.5-21.2
							c-4.7,0-9.2,1.1-13.2,2.9c-4.8-3.3-10.8-5.3-17.3-5.3c-13.8,0-25.3,8.9-28.3,21c-1.6,1.6-3,3.3-4.2,5.2c-0.5,0-1-0.1-1.5-0.1
							c-10.5,0-19,8-19,17.8c0,2.9,0.8,5.6,2.1,8.1c-5.6,2-10.2,6-12.7,11.1c-1.7,0.4-3,1.8-3,3.6c0,1,0.4,1.9,1.1,2.6
							c-0.7,2-1.1,4.2-1.1,6.5c0,0.5,0,1.1,0.1,1.6c-0.6-0.1-1.1-0.1-1.7-0.1c-5.5,0-10.4,2.7-13.2,6.8c-2.1-6.9-8.9-11.9-16.9-11.9
							c-1.3,0-2.5,0.1-3.6,0.4c-1.6-6-5-11.4-9.7-15.4c0.4-1.4,0.7-2.8,0.7-4.3c0-8.2-7.1-14.8-15.8-14.8c-7.6,0-13.9,5-15.4,11.7
							c-5.3,1.2-10.1,3.6-14.1,6.9c-2.4-0.5-5-0.8-7.6-0.8c-14.8,0-27.5,8.7-32.6,20.9c-5.5-3.1-12-4.9-19-4.9
							c-8.7,0-16.7,2.8-22.9,7.5c-8.3,0.3-15.8,3.6-21.3,8.8c-0.8-0.4-1.6-0.7-2.5-1c-2.4-1.4-5.3-2.3-8.3-2.3
							c-1.1,0-2.2,0.1-3.3,0.3c-8.4,0.1-16,3.3-21.5,8.4c-3.7-1.2-7.6-1.8-11.7-1.8c-20.1,0-36.4,15.2-36.4,34
							C-27,48.7-16.7,61.4-2.4,66c-1.4,3-2.2,6.4-2.2,9.9c0,0.2,0,0.4,0,0.6c-3.2,2.7-5.2,6.6-5.2,10.9c0,3.6,1.4,6.9,3.7,9.5
							c-3.1,4.1-4.9,9-4.9,14.3c0,13.8,11.9,24.9,26.6,24.9c14.7,0,26.6-11.2,26.6-24.9c0-2.2-0.3-4.2-0.8-6.2
							c2.5,2.6,6.1,4.3,10.1,4.3c7.5,0,13.6-5.7,13.6-12.8s-6.1-12.8-13.6-12.8c-2,0-3.8,0.4-5.5,1.1c0.8-1.9,1.4-4,1.6-6.1
							c5.6,4.9,13,7.8,21.3,7.8c9.4,0,17.8-3.9,23.6-10.1c3,5,8.8,8.3,15.3,8.3c5.1,0,9.8-2.1,13-5.3c0.8,0.1,1.6,0.1,2.4,0.1
							c8.5,0,16.2-2.9,22.2-7.6c3.6,13.8,16.9,24.1,32.8,24.1c5.3,0,10.3-1.1,14.8-3.2c2.1,0.5,4.3,0.8,6.5,0.8
							c14.1,0,25.5-10.7,25.5-23.8c0-5.4-1.9-10.3-5.1-14.3c5.9,5.7,14.2,9.2,23.3,9.2c3.6,0,7.1-0.6,10.4-1.6
							c6,6.6,15,10.8,25,10.8c16.5,0,30.1-11.3,32.5-26.1c2.5-2,4.6-4.3,6.3-6.8c0.9,0.1,1.8,0.2,2.7,0.2c7.1,0,13.1-4.2,15.4-10.1
							c1.5,0.3,3,0.4,4.5,0.4c2.6,0,5-0.4,7.4-1.1c1.3,0.2,2.7,0.4,4.1,0.4c0.5,0,1.1,0,1.6-0.1c3.6,4.6,9.4,7.7,16,7.7
							c3.9,0,7.6-1.1,10.7-3c3.7,5.7,10.3,9.5,17.9,9.5c5,0,9.5-1.6,13.1-4.3c2.2,0.6,4.4,0.9,6.8,0.9c4,0,7.7-0.9,11-2.5
							c0.7,0.2,1.5,0.3,2.3,0.3c4.9,0,8.9-3.7,8.9-8.3c0-0.1,0-0.3,0-0.4c2,0.3,4.2,0.5,6.3,0.5c1.4,0,2.8-0.1,4.2-0.2
							c3.3,4,8.4,6.6,14.2,6.6c3.1,0,6.1-0.8,8.6-2.1c3.5,5,9.5,8.4,16.4,8.4c10.7,0,19.3-8,19.4-18c2.8,0.9,5.8,1.3,8.9,1.3
							c6.3,0,12.1-1.9,16.8-5.2c1.9,0.4,3.8,0.6,5.8,0.6c15,0,27.1-11.4,27.1-25.4C567.7-16.8,555.6-28.1,540.6-28.1z M394,0.4
							c-0.2-0.7-0.4-1.4-0.8-2.1c0.9-0.2,1.8-0.5,2.6-0.9C395.2-1.6,394.5-0.6,394,0.4z M36.7,96c0.5-0.3,0.9-0.6,1.3-0.9
							C38,95.5,38,96,38,96.5c0,0.4,0,0.8,0.1,1.2C37.6,97.1,37.2,96.6,36.7,96z M206.2,46.9c-0.7-1-1.4-1.9-2.3-2.8
							c0.1-0.7,0.1-1.4,0.1-2.1c0-1-0.1-1.9-0.1-2.9c0.3-0.1,0.6-0.2,0.8-0.4c2.1,0.7,4.3,1.1,6.6,1.2c1,4.8,3.1,9.3,6.3,13
							C214.5,50.1,210.6,48,206.2,46.9z"/>
					</g>
				</g>
			</g>
		</g>
	</g>
	<g>
		
			<image style="overflow:visible;opacity:0.35;enable-background:new    ;" width="568" height="379" xlink:href="8C23DA34.png"  transform="matrix(1 0 0 1 913 525)">
		</image>
		<g>
			<path class="st8" d="M1359.7,685.7c1.4-3.5,2.4-7.2,2.8-11.1c0.1-0.9,0.2-1.8,0.2-2.8c11.4-6,19.7-17.3,21.2-31.1
				c2.5-22.1-13.4-41.9-35.4-44.4c-11.2-1.3-21.8,2.2-29.9,8.8c-6-12.2-17.9-21.1-32.4-22.8c-9.8-1.1-19.3,1.3-27,6.3
				c-11,4.7-19.2,15.1-20.6,27.8c-0.2,1.7-0.3,3.4-0.2,5.1c-4.3-4-9.9-6.6-16.1-7.3c-4.2-0.5-8.3,0-12.1,1.2c-0.9-0.9-2-1.5-3.3-1.6
				c-3-0.3-5.8,1.8-6.1,4.9c-0.1,0.6,0,1.3,0.1,1.9c-0.2,0.2-0.4,0.3-0.6,0.5c-2.7-11.2-12.1-20-24.2-21.4
				c-10.9-1.2-21.1,4-26.7,12.6c-2-13.7-13-24.9-27.4-26.5c-11.8-1.3-22.8,4.1-29.1,13.1c-0.4-0.9-0.9-1.8-1.4-2.7
				c2.5-4,4.2-8.6,4.8-13.7c2-17.8-10.8-33.8-28.5-35.8c-15.7-1.8-30,8-34.5,22.5c-13.6,2-24.7,12.9-26.3,27.2
				c-1.9,17,10.3,32.3,27.3,34.2c1.4,0.2,2.8,0.2,4.2,0.2c-1.6,1.7-3.1,3.4-4.4,5.3c-2.7-1-5.6-1.6-8.6-2
				c-9.5-1.1-18.5,1.4-25.9,6.3c-19.5,0.7-36.1,15.7-38.4,35.7c-1.1,10.1,1.6,19.8,7,27.6c-1.1,3.2-1.8,6.6-2.2,10.2
				c-3.1,27.3,16.6,51.9,43.8,55c27.3,3.1,51.9-16.6,55-43.8c0.1-0.6,0.1-1.1,0.2-1.7c3-0.8,5.9-1.9,8.6-3.3c0,0.3-0.1,0.6-0.1,1
				c-1.8,16,9.7,30.5,25.7,32.3c14.5,1.6,27.8-7.7,31.4-21.4c0.4,0.1,0.8,0.1,1.2,0.2c5.2,0.6,10.2,0.2,15-1.1
				c3.4,8.5,11.3,14.9,21.1,16c7.9,0.9,15.3-1.9,20.7-7c3,1.1,6.2,1.9,9.5,2.3c22.4,2.5,42.6-13.6,45.1-36c0.2-1.8,0.3-3.7,0.2-5.5
				c2.6-1.7,4.8-3.7,6.8-6.1c0.6-0.1,1.3-0.3,1.9-0.4c-0.2,5.2,3.5,9.7,8.7,10.3c2.3,0.3,4.5-0.3,6.4-1.5
				c5.7,7.2,14.1,12.2,23.9,13.3c7.2,0.8,14.2-0.6,20.2-3.7c-0.8,2-1.4,4.2-1.6,6.5c-1.5,13.7,8.3,26.1,22,27.6
				c13.7,1.5,26.1-8.3,27.6-22c0.2-2,0.2-4,0-5.9c4.3-3.5,7.3-8.6,8-14.5C1367.9,697.2,1364.9,690.2,1359.7,685.7z"/>
		</g>
	</g>
	<g>
		
			<image style="overflow:visible;opacity:0.35;enable-background:new    ;" width="437" height="283" xlink:href="8C23DA37.png"  transform="matrix(1 0 0 1 400 381)">
		</image>
		<g>
			<path class="st8" d="M742.1,556.6c0-11.6-9.3-21-20.8-21c-2.8,0-5.4,0.5-7.8,1.5c-0.7-2.7-1.5-5.3-2.7-7.7c2.4-1.4,4-4,4-7
				c0-4.5-3.6-8.2-8.1-8.2c-2,0-3.8,0.7-5.2,1.9c-7.7-7.5-18.2-12.1-29.8-12.1c-1,0-1.9,0-2.9,0.1c0.9-2.8,1.5-5.8,1.5-9
				c0-15.5-12.5-28.1-27.8-28.1c-6.6,0-12.6,2.3-17.4,6.1c-4.1-1.2-8.5-1.9-13-1.9c-18,0-33.7,10.2-41.7,25.1
				c-4.2-2.4-8.7-4.2-13.5-5.3c-8.4-10.6-21.2-17.4-35.7-17.4c-25.2,0-45.6,20.6-45.6,46.1c0,1,0,2,0.1,3
				c-10.5,2.1-18.5,11.4-18.5,22.7c0,12.8,10.3,23.1,22.9,23.1c7.4,0,13.9-3.5,18.1-9c1.4,0.8,2.8,1.6,4.3,2.3
				c8.1,16,24.6,27,43.6,27c6.7,0,13.2-1.4,19-3.8c5.8,7.6,14.8,12.5,25,12.5c17.3,0,31.4-14.2,31.5-31.7c3.4-0.7,6.7-1.8,9.8-3.2
				c6.1,16.4,21.8,28.1,40.2,28.1c14.7,0,27.6-7.4,35.4-18.8c0.7,0.6,1.4,1.2,2.2,1.8c-1.6,1.4-2.7,3.4-2.7,5.8
				c0,4.2,3.3,7.5,7.4,7.5s7.4-3.4,7.4-7.5c0-0.7-0.1-1.3-0.3-1.9h0C732.8,577.7,742.1,568.3,742.1,556.6z"/>
		</g>
	</g>
	<g>
		
			<image style="overflow:visible;opacity:0.35;enable-background:new    ;" width="614" height="386" xlink:href="8C23DA0B.png"  transform="matrix(1 0 0 1 -103 450)">
		</image>
		<g>
			<g>
				<path class="st8" d="M288,657.1c-0.8-0.8-1.5-1.7-2-2.7c-0.8,0-1.5,0-2.3-0.1c-2.5,1.2-5,2.2-7.7,3c1.6,2.6,2.8,5.4,3.8,8.3
					C282.1,662.4,284.8,659.5,288,657.1z"/>
				<path class="st8" d="M435,707.8c0-25.4-20.4-46-45.6-46c-6.2,0-12.2,1.3-17.6,3.5c-1.2-7.4-4.2-14.2-8.7-19.8
					c2.4-1.8,4.6-3.9,6.3-6.4c6.1,3.3,13.1,5.1,20.6,5.1c24.1,0,43.7-19.5,43.7-43.6c0-24.1-19.6-43.6-43.7-43.6
					c-9.1,0-17.6,2.8-24.6,7.6c-0.5-3.7-2.8-6.8-6-8.5c-3.9-4-8.7-6.9-14.2-8.5c-2.7-4.8-7.8-8-13.7-8c-0.9,0-1.8,0.1-2.6,0.2
					c-7-6-16-9.6-25.9-9.6c-17.6,0-32.5,11.4-37.7,27.2c-0.9,0-1.8-0.1-2.7-0.1c-26.6,0-48.1,21.5-48.1,48c0,4.6,0.7,9.1,1.9,13.4
					c-9.5,1.5-17.8,6.2-23.9,13.1c-4.1,1.1-7.9,2.7-11.5,4.8c-2.4-8.1-9.9-14-18.8-14c-10.8,0-19.6,8.8-19.6,19.6
					c0,0.3,0,0.6,0.1,0.9c-2.3,0.1-4.3,1.1-5.8,2.7c-7.5-9.6-19.1-15.8-32.3-15.8c-14.1,0-26.4,7.1-33.8,17.9
					c-6.9-7.2-16.6-11.7-27.4-11.7c-15.2,0-28.3,8.9-34.5,21.8c-19.9,1.2-35.7,17.8-35.7,38.2c0,21.1,17,38.2,37.9,38.2
					c8.5,0,16.3-2.8,22.6-7.5c3.3,6.2,9.3,10.8,16.5,12c7.1,13.1,20.8,22,36.7,22c0.6,0,1.3,0,1.9,0c5.1,2.1,10.7,3.3,16.6,3.3
					c19,0,35.1-12.1,41.2-28.9c0.9,0.1,1.8,0.1,2.7,0.1c8.3,0,15.9-3,21.7-8c1.5,1.2,3.4,1.9,5.5,1.9c4.9,0,8.9-4,8.9-8.9
					c0-3.2-1.7-6-4.3-7.6c0.2-0.5,0.4-1,0.5-1.5c4,2.3,8.5,4.1,13.2,5c-0.9,0.6-1.7,1.2-2.4,2c-4,0.2-7.2,3.5-7.2,7.5
					c0,2.2,1,4.2,2.5,5.6c0.8,8.2,7.6,14.6,16,14.6c8.9,0,16-7.2,16-16.2c0-5.7-2.9-10.6-7.3-13.5c5.9-1.2,11.3-3.7,16.1-7
					c4.3,1.6,8.9,2.5,13.8,2.5c13.7,0,25.7-7,32.8-17.7c1.1,3.2,2.7,6.2,4.5,8.9c0,2.9,0.9,5.5,2.3,7.8
					c4.8,21.8,24.3,38.1,47.6,38.1c4.9,0,9.7-0.7,14.2-2.1c7,8.8,17.8,14.4,29.9,14.4c8.7,0,16.8-3,23.3-7.9
					C418.5,749.5,435,730.6,435,707.8z M283.7,648.3c0.8,0.1,1.5,0.1,2.3,0.1c0.6,1,1.3,1.9,2,2.7c-3.2,2.4-5.9,5.3-8.2,8.5
					c-1-2.9-2.2-5.7-3.8-8.3C278.7,650.5,281.2,649.5,283.7,648.3z"/>
			</g>
		</g>
	</g>
	<g>
		
			<image style="overflow:visible;opacity:0.35;enable-background:new    ;" width="690" height="355" xlink:href="8C23DA59.png"  transform="matrix(1 0 0 1 4 369)">
		</image>
		<g>
			<path class="st8" d="M618.2,600.7c0-14.3-11.6-25.9-25.9-25.9c-6.6,0-12.5,2.4-17.1,6.5c1.1-3.1,1.6-6.4,1.6-9.9
				c0-1.8-0.2-3.6-0.5-5.4c-0.6-15.6-10.8-28.8-25-33.6c-5.5-9.4-15.7-15.7-27.3-15.7c-3.6,0-7.1,0.6-10.3,1.7c-0.2,0-0.4,0-0.5,0
				c-2,0-4,0.2-5.9,0.6c-0.3,0-0.6-0.1-0.9-0.1c0-0.8,0.1-1.6,0.1-2.4c0-2.4-0.2-4.8-0.6-7.1c-0.4-7.2-3.5-13.8-8.4-18.6
				c-7.6-9.5-19.2-15.6-32.3-15.6c-3.7,0-7.3,0.5-10.8,1.4c-5.5-2.3-11.5-3.6-17.9-3.6c-16.2,0-30.4,8.4-38.5,21.1
				c-4.9-2.9-10.6-4.6-16.7-4.6c-5.5,0-10.6,1.4-15.1,3.7c-6.2-6.1-14.7-9.8-24-9.8c-12,0-22.6,6.2-28.8,15.6c-0.5,0-1-0.1-1.5-0.1
				c-9.8,0-18,6.7-20.3,15.8c-6.1-5.1-13.9-8.1-22.5-8.1c-1.7,0-3.3,0.1-4.9,0.4c-6-6.9-14.9-11.3-24.9-11.3
				c-15.3,0-28.1,10.4-31.9,24.4c0,0-0.1,0-0.1,0c-5.5,0-10.5,1.7-14.7,4.6c-5.7-5.5-12.7-9.6-20.5-11.8c-3.9-3.8-9.3-6.1-15.1-6.1
				c-6.5,0-12.3,2.8-16.3,7.3c-14.4,5.5-25.7,17.5-30.1,32.4c-2.6,1-4.7,2.8-6.1,5.2c-2.4-1.4-5.2-2.2-8.2-2.2
				c-9.1,0-16.4,7.3-16.4,16.4s7.3,16.4,16.4,16.4c0.8,0,1.7-0.1,2.5-0.2c-1,3.6-1.5,7.5-1.5,11.4c0,13.1,5.7,24.9,14.7,33
				c0.3,10.7,9,19.4,19.8,19.4c4.5,0,8.6-1.5,12-4c0.3,0,0.7,0.1,1,0.1c5.3,15.2,19.8,26.2,36.8,26.2c19.4,0,35.6-14.2,38.5-32.9
				c1.2,0.3,2.5,0.5,3.9,0.5c8.1,0,14.7-6.6,14.7-14.7c0-8.1-6.6-14.7-14.7-14.7c-3.3,0-6.4,1.1-8.8,2.9c-2.6-4.3-5.9-8-9.8-11.1
				c5.1-0.4,9.1-4.7,9.1-10c0-3.5-1.8-6.6-4.6-8.4c3.1-2.4,5.3-5.8,6-9.8c1.5-0.5,3-1.2,4.3-2c0,0.5,0,1,0,1.5
				c-2.2,3.7-3.5,8-3.5,12.6c0,13.4,10.9,24.3,24.3,24.3c2.4,0,4.7-0.3,6.9-1c0.4,5.9,5.3,10.6,11.3,10.6c3.6,0,6.9-1.7,8.9-4.4
				c0.7,0,1.4,0,2,0c1.5,0,3-0.1,4.5-0.3c5.1,18.7,22.1,32.5,42.4,32.5c8.7,0,16.8-2.5,23.7-6.9c0.6,0,1.2,0,1.9,0
				c1.9,0,3.8-0.1,5.7-0.4c3.9,1.7,8,2.8,12.4,3.3c0.9,0.6,1.8,1.2,2.7,1.8c5.8,20.1,24.2,34.7,46.1,34.7c26.4,0,47.7-21.2,48-47.5
				c9,10.2,22.3,16.7,37,16.7c6.2,0,12.1-1.2,17.6-3.3c7.5,14,22.4,23.6,39.4,23.6c18.6,0,34.5-11.3,41.3-27.4
				c7.8-3,13.8-9.6,15.8-17.8C614.6,615.9,618.2,608.7,618.2,600.7z"/>
		</g>
	</g>
</g>
</svg>
