<?xml version="1.0" encoding="utf-8"?>
<!-- Generator: Adobe Illustrator 21.0.0, SVG Export Plug-In . SVG Version: 6.00 Build 0)  -->
<svg version="1.1" id="Layer_1" xmlns="http://www.w3.org/2000/svg" xmlns:xlink="http://www.w3.org/1999/xlink" x="0px" y="0px"
	 viewBox="0 0 1366 768" style="enable-background:new 0 0 1366 768;" xml:space="preserve">
<style type="text/css">
	.st0{fill:url(#SVGID_1_);}
	.st1{fill:url(#SVGID_2_);}
	.st2{fill:#E8E6DD;}
	.st3{fill:none;stroke:#E2BD23;stroke-miterlimit:10;}
	.st4{fill:#FFFFFF;}
	.st5{fill:#EFDF9E;}
	.st6{fill:#FFFFFF;stroke:#BA7820;stroke-miterlimit:10;}
	.st7{fill:#DDD9C7;stroke:#EFC926;stroke-miterlimit:10;}
	.st8{fill:url(#SVGID_3_);stroke:url(#SVGID_4_);stroke-miterlimit:10;}
	.st9{fill:none;stroke:#7FCED1;stroke-miterlimit:10;}
	.st10{fill:#E7E5DC;stroke:#EFC926;stroke-miterlimit:10;}
	.st11{fill:url(#SVGID_5_);}
	.st12{fill:url(#SVGID_6_);stroke:#E2BD23;stroke-miterlimit:10;}
	.st13{fill:url(#SVGID_7_);stroke:url(#SVGID_8_);stroke-miterlimit:10;}
	.st14{fill:none;stroke:#000000;stroke-miterlimit:10;}
	.st15{fill:#F2D557;stroke:#000000;stroke-miterlimit:10;}
	.st16{opacity:0.35;enable-background:new    ;}
	.st17{fill:url(#SVGID_9_);}
	.st18{fill:url(#SVGID_10_);stroke:#EFC926;stroke-miterlimit:10;}
	.st19{fill:url(#SVGID_11_);stroke:#EFC926;stroke-miterlimit:10;}
	.st20{fill:url(#SVGID_12_);}
	.st21{fill:none;stroke:url(#SVGID_13_);stroke-miterlimit:10;}
	.st22{fill:url(#SVGID_14_);stroke:#E2BD23;stroke-miterlimit:10;}
	.st23{fill:url(#SVGID_15_);stroke:url(#SVGID_16_);stroke-miterlimit:10;}
	.st24{fill:#E8E6DD;stroke:#E2BD23;stroke-miterlimit:10;}
	.st25{fill:url(#SVGID_17_);stroke:url(#SVGID_18_);stroke-miterlimit:10;}
	.st26{fill:url(#SVGID_19_);stroke:#E2BD23;stroke-miterlimit:10;}
	.st27{opacity:0.1;fill:#FFFFFF;}
</style>
<linearGradient id="SVGID_1_" gradientUnits="userSpaceOnUse" x1="736.4618" y1="13.425" x2="-8.7382" y2="758.625" gradientTransform="matrix(1 0 0 -1 -9.6368 770)">
	<stop  offset="0" style="stop-color:#FFFFFF"/>
	<stop  offset="0.155" style="stop-color:#FFFEFB"/>
	<stop  offset="0.2987" style="stop-color:#FFF9F0"/>
	<stop  offset="0.4381" style="stop-color:#FFF1DD"/>
	<stop  offset="0.5747" style="stop-color:#FEE7C3"/>
	<stop  offset="0.7094" style="stop-color:#FED9A1"/>
	<stop  offset="0.8426" style="stop-color:#FEC877"/>
	<stop  offset="0.9722" style="stop-color:#FDB546"/>
	<stop  offset="1" style="stop-color:#FDB03B"/>
</linearGradient>
<polygon class="st0" points="707.1,776.3 7.1,765.4 -5.1,-1.9 707.1,8.3 "/>
<linearGradient id="SVGID_2_" gradientUnits="userSpaceOnUse" x1="4054.1445" y1="20.35" x2="3318.0945" y2="756.4" gradientTransform="matrix(-1 0 0 -1 4730.5947 770)">
	<stop  offset="0" style="stop-color:#FFFFFF"/>
	<stop  offset="0.155" style="stop-color:#FFFEFB"/>
	<stop  offset="0.2987" style="stop-color:#FFF9F0"/>
	<stop  offset="0.4381" style="stop-color:#FFF1DD"/>
	<stop  offset="0.5747" style="stop-color:#FEE7C3"/>
	<stop  offset="0.7094" style="stop-color:#FED9A1"/>
	<stop  offset="0.8426" style="stop-color:#FEC877"/>
	<stop  offset="0.9722" style="stop-color:#FDB546"/>
	<stop  offset="1" style="stop-color:#FDB03B"/>
</linearGradient>
<polygon class="st1" points="691,-3.8 1404.9,6 1391.7,773.3 691,764.2 "/>
<g id="Layer_1_1_">
	<g>
		
			<image style="overflow:visible;opacity:0.35;enable-background:new    ;" width="670" height="303" xlink:href="9FD1CA41.png"  transform="matrix(1 0 0 1 489 506)">
		</image>
		<g>
			<path class="st2" d="M600.1,624c12.9,0,24.2,7,30.3,17.3c2.5-14.2,15-25.1,29.9-25.1c13.2,0,24.4,8.4,28.6,20.1
				c1.3,0.9,2.5,1.9,3.6,3c1.4-0.3,2.8-0.5,4.3-0.6c5.3-17,19.9-29.8,37.8-32.7c3.4-0.9,6.9-1.3,10.6-1.3c11.8,0,22.6,4.8,30.3,12.6
				c10.5,0.6,19.8,6,25.7,13.9c1.2,0.2,2.4,0.5,3.5,0.8c4-22.8,23.9-40.2,47.8-40.2c24.1,0,44,17.5,47.9,40.5
				c3.8,0.5,7.5,1.7,10.8,3.3c7.9-8.9,19.3-14.5,32.1-14.5c5.3,0,10.4,1,15.1,2.7c4.5-1.7,9.3-2.6,14.4-2.6c16.2,0,30.1,9.4,36.7,23
				c6.8-4.8,15.2-7.6,24.1-7.6c9.2,0,17.7,2.9,24.6,7.9c14.7,6.5,25,21.2,25,38.3c0,23.1-18.7,41.8-41.8,41.8
				c-5.7,0-11.2-1.2-16.1-3.2c-7.7,13-22,21.8-38.2,21.8c-14.2,0-26.8-6.6-34.9-16.9c-17.4-0.1-32.5-10-40-24.5
				c-5,2.6-10.7,4.1-16.8,4.1c-6.3,4.8-14.1,7.6-22.6,7.6c-11.2,0-21.2-4.9-28.1-12.7c-5.2,8-14.1,13.2-24.3,13.2
				c-1.7,0-3.4-0.2-5-0.4c-5.3,15.1-19.7,25.9-36.6,25.9c-21.4,0-38.8-17.3-38.8-38.8c0-0.2,0-0.4,0-0.6c-8.2-0.3-15.9-2.7-22.5-6.7
				c-1.5,1.2-3.1,2.2-4.8,3.1c-3.1,4.2-8.1,7-13.8,7c-4.8,0-9.2-2-12.3-5.2c-2,1.3-4.2,2.3-6.4,3.2c-1.1,1-2.5,1.6-4.1,1.6
				c-0.3,0-0.6,0-0.9-0.1c-2.7,0.6-5.6,1-8.5,1c-17.4,0-32-11.8-36.2-27.9c-6,10.7-17.5,17.9-30.6,17.9c-0.6,0-1.1,0-1.7,0
				c-0.3,0-0.5,0-0.8,0c-1.7,0-3.3-0.3-4.8-0.7c-15.9-3.3-27.9-17.4-27.9-34.3C565,639.8,580.8,624,600.1,624z"/>
			<path class="st3" d="M600.1,624c12.9,0,24.2,7,30.3,17.3c2.5-14.2,15-25.1,29.9-25.1c13.2,0,24.4,8.4,28.6,20.1
				c1.3,0.9,2.5,1.9,3.6,3c1.4-0.3,2.8-0.5,4.3-0.6c5.3-17,19.9-29.8,37.8-32.7c3.4-0.9,6.9-1.3,10.6-1.3c11.8,0,22.6,4.8,30.3,12.6
				c10.5,0.6,19.8,6,25.7,13.9c1.2,0.2,2.4,0.5,3.5,0.8c4-22.8,23.9-40.2,47.8-40.2c24.1,0,44,17.5,47.9,40.5
				c3.8,0.5,7.5,1.7,10.8,3.3c7.9-8.9,19.3-14.5,32.1-14.5c5.3,0,10.4,1,15.1,2.7c4.5-1.7,9.3-2.6,14.4-2.6c16.2,0,30.1,9.4,36.7,23
				c6.8-4.8,15.2-7.6,24.1-7.6c9.2,0,17.7,2.9,24.6,7.9c14.7,6.5,25,21.2,25,38.3c0,23.1-18.7,41.8-41.8,41.8
				c-5.7,0-11.2-1.2-16.1-3.2c-7.7,13-22,21.8-38.2,21.8c-14.2,0-26.8-6.6-34.9-16.9c-17.4-0.1-32.5-10-40-24.5
				c-5,2.6-10.7,4.1-16.8,4.1c-6.3,4.8-14.1,7.6-22.6,7.6c-11.2,0-21.2-4.9-28.1-12.7c-5.2,8-14.1,13.2-24.3,13.2
				c-1.7,0-3.4-0.2-5-0.4c-5.3,15.1-19.7,25.9-36.6,25.9c-21.4,0-38.8-17.3-38.8-38.8c0-0.2,0-0.4,0-0.6c-8.2-0.3-15.9-2.7-22.5-6.7
				c-1.5,1.2-3.1,2.2-4.8,3.1c-3.1,4.2-8.1,7-13.8,7c-4.8,0-9.2-2-12.3-5.2c-2,1.3-4.2,2.3-6.4,3.2c-1.1,1-2.5,1.6-4.1,1.6
				c-0.3,0-0.6,0-0.9-0.1c-2.7,0.6-5.6,1-8.5,1c-17.4,0-32-11.8-36.2-27.9c-6,10.7-17.5,17.9-30.6,17.9c-0.6,0-1.1,0-1.7,0
				c-0.3,0-0.5,0-0.8,0c-1.7,0-3.3-0.3-4.8-0.7c-15.9-3.3-27.9-17.4-27.9-34.3C565,639.8,580.8,624,600.1,624z"/>
		</g>
	</g>
	<g>
		
			<image style="overflow:visible;opacity:0.35;enable-background:new    ;" width="245" height="460" xlink:href="9FD1CA42.png"  transform="matrix(1 0 0 1 684 147)">
		</image>
		<g>
			<g>
				<path class="st4" d="M773.6,412v48.4l-0.3,0.2c-2.4,2-4.8,3.9-7.3,5.7v-57.1l0.3,0.1C768.6,410.6,771,411.4,773.6,412z"/>
				<path class="st4" d="M778.7,455.7c-1.4,1.4-2.9,2.8-4.3,4v-47.6c1.5,0.3,3.1,0.5,4.6,0.6v42.7
					C778.9,455.5,778.8,455.6,778.7,455.7z"/>
				<path class="st4" d="M773.6,375.3V398l-5.5,0.6l-2.1,10.7v-38.5C767.8,372.3,770.4,374.2,773.6,375.3z"/>
				<path class="st4" d="M774.3,375.6c1.4,0.5,3,0.8,4.6,0.9v20.9l-4.6,0.5V375.6z"/>
				<path class="st4" d="M794.8,386.8c0.2,2-0.8,4.4-2.7,6.3v-10.9C793.8,383.5,794.7,385,794.8,386.8z"/>
				<path class="st4" d="M796.5,433.5c-0.1,0.2-0.2,0.4-0.3,0.5c-1.3,2-2.7,3.9-4,5.8v-29.2c1.6-0.6,3.1-1.4,4.5-2.2L796.5,433.5z"
					/>
				<path class="st4" d="M816.5,375.1c-1.5,0.3-3.1,0.6-4.7,1.2l-0.6-55.9c1.9,0.6,3.8,1.3,5.7,2.2L816.5,375.1z"/>
				<path class="st4" d="M803.3,404.6c2.7,0,5.4-0.4,8.1-1v8.1c-0.1,0.1-0.2,0.2-0.3,0.3c-3,3.2-6,7.9-9.3,13.4
					c-1.5,2.4-2.9,4.7-4.4,7l0.1-24.3c1.4-0.9,3-2.1,4.5-3.4C802.4,404.6,802.8,404.6,803.3,404.6z"/>
				<path class="st4" d="M791.4,381.8V394c-1.4,1.2-3.2,2.2-5.3,2.7l-6.3,0.7v-20.8c0.1,0,0.2,0,0.2,0c0.3,0,0.5,0,0.7,0
					c4-0.2,8.1-1.7,10.7-4v5.9c-2.7,0.3-5.5,1-8.1,2.2l0.3,0.7C786.3,380.5,789.2,380.6,791.4,381.8z"/>
				<path class="st4" d="M791.4,410.9v30c-0.1,0.1-0.2,0.3-0.3,0.5c-3.5,4.7-7,8.8-10.7,12.6c-0.2,0.2-0.4,0.4-0.6,0.6l0,0v-41.8
					c0.3,0,0.6,0,0.9,0C784.3,412.8,788,412.2,791.4,410.9z"/>
				<path class="st4" d="M846.5,390.6v149.3h-8.9c0-18.3,0-36.7,0-55l0.3,1l-0.3-6.9c0-27.5,0-55.1,0-82.7c1.5-0.6,2.9-1.3,4.2-2.1
					C843.3,393.3,844.9,392.1,846.5,390.6z"/>
				<path class="st4" d="M811.4,461.9v28.8l-13.2-10.3h0.1v-0.3c-0.2-6.7,0.3-23.9,9.8-39.3c1-1.6,2.1-3.2,3.3-4.7v13.6
					c-7.7,9.3-9.7,24.8-10.2,29.6l0.8,0.1C804,471.4,807.4,465.2,811.4,461.9z"/>
				<path class="st4" d="M816.2,445.2c-1.1,0.7-2.2,1.6-3.3,2.7c-0.3,0.3-0.5,0.5-0.7,0.8V435c0.1-0.1,0.2-0.3,0.3-0.4
					c1.2-1.4,2.4-2.7,3.7-3.9V445.2L816.2,445.2z"/>
				<path class="st4" d="M797.6,319.3c4.5-0.5,9-0.1,13.3,1.1l0.3,56.1c-0.7,0.3-1.5,0.6-2.2,0.9l0.3,0.7c0.7-0.2,1.3-0.4,1.9-0.5
					l0.1,12.8c-0.2,0-0.3,0.1-0.5,0.1l-0.7,0.1c0-0.6,0-1.2-0.1-1.8c-0.6-3.3-2.8-6.3-6.3-8.2c-1.9-1-4-1.7-6.2-2.1v-22.3
					c0-0.1,0.1-0.1,0.1-0.2c0.6-1.2,0.5-2.6-0.1-4.1L797.6,319.3z"/>
				<path class="st4" d="M813.5,460.4c0.9-0.5,1.8-0.9,2.7-1.1v35.1l-4-3.1v-30C812.6,460.9,813.1,460.6,813.5,460.4z"/>
				<path class="st4" d="M779.8,326.7c3.2-2.6,7-4.8,11.7-6.2v24.3c-2.8-2.3-6.4-4.6-10.8-6.8l-0.9-0.5V326.7z"/>
				<path class="st4" d="M792.2,356c0.3,0.9,0.7,1.8,0.9,2.6c-0.3,0.1-0.6,0.2-0.9,0.3V356z"/>
				<path class="st4" d="M797.2,356.8l-0.2,21.7c-1.5-0.2-3.1-0.2-4.8-0.1v-6.6c2.8-3,3.3-7.5,1.9-12.8
					C795.4,358.4,796.5,357.7,797.2,356.8z"/>
				<path class="st4" d="M791.4,359.1c-2.6,0.6-5.7,0.8-8.2,0c-1.2-0.4-2.3-0.9-3.4-1.5v-19.5l0.4,0.4c5.1,5.2,8.9,10.6,11.2,15.6
					V359.1z"/>
				<path class="st4" d="M797.5,319.3l-0.3,32c-0.9-1.8-2.6-3.8-5-5.8v-25.2c0.9-0.3,1.8-0.5,2.7-0.6
					C795.8,319.5,796.6,319.4,797.5,319.3z"/>
				<path class="st4" d="M816.4,387.5c-1.2,1.1-2.7,2.1-4.4,2.7l-0.1-12.7c1.7-0.2,3.3,0,4.6,0.6L816.4,387.5z"/>
				<polygon class="st4" points="762,492.6 761.9,492.6 761.9,492.2 762,492.3 				"/>
				<path class="st4" d="M836.7,243.4v125.8c-2.2,0.3-4.4,0.9-6.6,1.9l0.3,0.7c2.2-0.8,4.5-0.7,6.3,0.1v10.4c-1,0.9-2.3,1.6-3.8,2
					c0-0.5,0-1,0-1.5c-0.3-2.5-1.9-4.6-4.4-6.1c-3.1-1.8-7.1-2.3-11.4-1.7v-52.3c6.5,3.2,12.3,8.3,16.4,15l1.6,2.6l-0.9-2.9
					c-1.3-4.1-5.8-16.2-17.2-24.9v-13.2l0.1-18c0.1,0.3,0.2,0.5,0.4,0.5l0.2,0.1l0.2-0.1c1.1-0.5,0.8-13.3-0.2-18.2
					c-0.2-1-0.4-1.8-0.7-2.3v-4.7l-1.1,3.8c0,0,0,0-0.1,0c-0.8,0-1.6,0.9-2.5,3.2c-2,4.8-4.6,16.5-3.3,17.5c0.1,0.1,0.3,0.1,0.5,0.1
					c0.1,0,0.1,0,0.2-0.1l0.1,27.5c-0.8-0.4-1.6-0.8-2.5-1.2c-3.7-1.7-7.3-2.7-10.8-3.2v-11.4v-1.3c0.1,0.2,0.2,0.3,0.3,0.4l0.2,0.1
					h0.2c1.2-0.4,0.3-9.3,0.1-10.6c-0.2-1.7-0.5-2.9-0.8-3.8v-2l-0.4,0.9c-0.6-1.2-1.2-1.3-1.4-1.3c-1.1-0.1-2.4,1.7-3.6,5.3
					c-1,2.8-2.9,10-1.6,10.7c0.3,0.2,0.5,0.1,0.8-0.1v12.7c-4.3,0-8.2,0.6-11.7,1.4v-3.7c0.1,0.2,0.2,0.4,0.4,0.5l0.2,0.1h0.2
					c1.2-0.4,0.3-9.3,0.1-10.6c-0.3-1.8-0.5-3.1-0.8-4v-2.4l-0.6,1.1c-0.5-0.9-1-0.9-1.2-1c-0.1,0-0.2,0-0.3,0
					c19.8-17.5,48.5-37.5,51.5-38.8C831.7,245.3,834.2,244.3,836.7,243.4z"/>
				<path class="st4" d="M792.2,303.7v-13.5c0.1-0.1,0.2-0.2,0.3-0.4c0.3-0.3,0.5-0.7,0.8-1l2.8-0.7c0.6,0.6,1,1.8,1.2,2.5
					c0.1,0.3,0.2,0.6,0.3,0.8v1.3l-0.1,11.4C795.7,303.9,794,303.7,792.2,303.7z"/>
				<path class="st4" d="M811,308.7l-0.3-27.6c0.4-0.2,0.7-0.7,1.3-1.7c0.3-0.5,0.7-1.1,1.1-1.6l2.1-1.2c0.9,0.5,1.4,2.6,1.7,3.8
					c0,0.2,0.1,0.3,0.1,0.5v18.5l-0.1,13.1C815.2,311.1,813.2,309.8,811,308.7z"/>
				<path class="st4" d="M839.9,376.3c0.1,1.7-0.8,3.8-2.4,5.4c0-3.1,0-6.2,0-9.2c0,0,0.1,0.1,0.2,0.1
					C839,373.5,839.8,374.8,839.9,376.3z"/>
				<path class="st4" d="M829.2,235.8c5.5-2.3,9.7-2.7,12.6-1c2.4,1.3,4,4.1,4.7,8.1v127.5c-2.7-1.2-5.7-1.6-8.9-1.3
					c0-31.6,0-63.1,0-94.7c0-10.7,0-21.4,0-32.1c-0.2,0.1-0.4,0.1-0.5,0.2c-2.7,0.9-5.5,2-8.2,3.1c-4.6,1.9-7.4,4.6-8.5,5.4
					c-14.6,11.7-28.1,17.9-48.2,38c-2.3,2.3-6,6-10.2,10.9v-7.1C792.6,260.9,815.1,241.8,829.2,235.8z"/>
				<path class="st4" d="M776.1,286.5c-0.6,0.9-1.2,2.2-1.8,3.8c-1,2.8-2.9,10-1.6,10.7c0.3,0.2,0.6,0.1,0.9-0.1v6.2
					c-3.5,1.4-6.2,2.9-7.6,3.8v-12.4h-0.8v12.9l-0.1,0.1l-0.2,0.1l0.3,8.1v12.4l-0.5-2.5l-1.3,38.7l0.1,0.1c0.2,0.2,0.8,0.9,1.7,1.7
					v96.8c-0.8,0.6-1.7,1.1-2.5,1.7l-0.2,0.1l-0.4,22.4H762v-190c2.3-3.1,5.9-7.1,10.8-11.7C773.8,288.6,774.9,287.5,776.1,286.5z"
					/>
				<path class="st4" d="M762.6,492.6l72.9,43.4v-26.5L817,495.1v-35.9c1.3-0.2,2.5-0.1,3.8,0.2c9.8,2.5,15,19.3,15.9,22.5v57.8
					l-74.5-46.8L762.6,492.6L762.6,492.6z"/>
				<path class="st4" d="M779,357.1c-1.7-1.1-3.3-2.6-4.6-4.3V332c1.3-1.6,2.9-3.2,4.6-4.7v9.7l-0.5-0.3l0.5,0.5V357.1z"/>
				<path class="st4" d="M773.6,333v18.8c-2.4-3.2-4.2-6.9-5.5-10.2C769.1,339.5,770.9,336.3,773.6,333z"/>
				<path class="st4" d="M836.7,396.6v61.6l-0.3-8.4v-0.1l-0.1-0.1c-0.6-0.6-6-6.4-12.8-6.5c-2.2,0-4.4,0.5-6.4,1.6v-14.8
					c0.1-0.1,0.2-0.2,0.3-0.3c7.7-6.7,15.3-8.5,18.2-8.9l0.6-0.1l-0.3-0.5c-5.3-8.5-10.6-12.8-15.7-12.9c-0.2,0-0.3,0-0.5,0
					c-0.9,0-1.7,0.2-2.6,0.5v-6.3c1.1-0.5,2.2-1.1,3.3-1.8c0.8-0.5,1.8-1.1,2.7-1.8c1.5,0.2,2.9,0.4,4.4,0.4
					C830.6,398.3,833.8,397.7,836.7,396.6z"/>
				<path class="st4" d="M816.1,408.1c-1.3,0.6-2.6,1.4-3.9,2.6l-0.1-7.5c1.4-0.4,2.8-0.9,4.2-1.5v6.2
					C816.2,408.1,816.1,408.1,816.1,408.1z"/>
				<path class="st4" d="M819.2,381.9c0,1.3-0.6,2.9-1.7,4.3l-0.5,0.1v0.1v-8c0.1,0.1,0.2,0.1,0.3,0.2
					C818.5,379.4,819.2,380.6,819.2,381.9z"/>
				<path class="st4" d="M774.3,300.1c0.1-0.1,0.2-0.2,0.3-0.3c0.8-1,1.9-2.4,3-2.2c0.6,0.1,1.1,0.9,1.5,1.7v6
					c-1.7,0.5-3.2,1-4.7,1.5L774.3,300.1L774.3,300.1z"/>
				<polygon class="st5" points="834.7,534.6 762.9,491.9 762.9,491.9 762.9,491.7 797.8,481.3 797.7,481 834.7,509.8 				"/>
				<path class="st5" d="M773.8,461.2l0.3-0.3c0.2-0.1,0.3-0.3,0.5-0.4c1.5-1.3,3.1-2.8,4.6-4.3c0.2-0.2,0.4-0.4,0.6-0.6l0.5-0.5
					c0.2-0.2,0.4-0.4,0.6-0.6c3.8-3.9,7.3-8,10.7-12.7c0.3-0.4,0.5-0.7,0.8-1.1c1.5-2,2.9-4,4.3-6.3c0.3-0.4,0.5-0.8,0.8-1.2
					c1.7-2.5,3.1-4.9,4.8-7.6c3.3-5.4,6.3-10.1,9.2-13.2c0.3-0.3,0.5-0.5,0.8-0.8c1.3-1.3,2.6-2.2,3.9-2.8c0.3-0.1,0.5-0.2,0.8-0.3
					c0.8-0.3,1.7-0.4,2.5-0.5c0.1,0,0.3,0,0.4,0c4.8,0.1,9.7,4.1,14.8,12c-3.3,0.6-10.7,2.6-18,9c-0.3,0.2-0.5,0.5-0.8,0.7
					c-1.4,1.3-2.8,2.7-4.1,4.3c-0.3,0.3-0.5,0.6-0.8,1c-1.3,1.6-2.5,3.4-3.7,5.2c-9.5,15.4-10.2,32.5-10,39.5l-0.8,0.3l0.7,0.5
					L762.9,491l0.4-21.8C766.9,466.8,770.4,464.1,773.8,461.2z"/>
				<path class="st5" d="M823.8,397.3c4.1-3.2,8.2-7.8,9-12.1c4.5-1.1,8.1-5.2,7.8-9c-0.1-1.7-1-3.3-2.5-4.3
					c-1.2-0.8-2.6-1.3-4.2-1.3c4.8-1.3,9.7-1,13.4,1.1c2.7,1.5,4.4,3.8,4.8,6.3c1,6-5.9,12.6-10.8,15.6
					C836.2,396.8,829.9,398.1,823.8,397.3z"/>
				<path class="st6" d="M761,491.7l0.1,0.1v1.2v0.8l75.8,46.9l0.7,0.4v-0.3h9.8v-151c3.4-3.4,6.3-7.8,5.6-12
					c-0.5-2.8-2.3-5.2-5.2-6.8c-0.1-0.1-0.3-0.1-0.4-0.2V242.9v-0.1c-0.8-4.3-2.5-7.2-5.1-8.7c-2.8-1.6-6.6-1.5-11.5,0.2
					c-14.2,5-37.1,24.3-69.5,58.1l-0.1,0.1v8.5v190.6L761,491.7z M837.5,396.3c1.5-0.6,2.9-1.3,4.2-2.1c1.5-0.9,3.2-2.2,4.7-3.6
					v149.3h-8.9c0-18.3,0-36.7,0-55l0.3,1l-0.3-6.9C837.5,451.4,837.5,423.9,837.5,396.3z M823.8,397.3c4.1-3.2,8.2-7.8,9-12.1
					c4.5-1.1,8.1-5.2,7.8-9c-0.1-1.7-1-3.3-2.5-4.3c-1.2-0.8-2.6-1.3-4.2-1.3c4.8-1.3,9.7-1,13.4,1.1c2.7,1.5,4.4,3.8,4.8,6.3
					c1,6-5.9,12.6-10.8,15.6C836.2,396.8,829.9,398.1,823.8,397.3z M834.7,509.8v24.8l-71.8-42.7l0,0v-0.1l35-10.5l-0.1-0.3
					L834.7,509.8z M812.2,491.3v-30c0.4-0.3,0.9-0.6,1.3-0.9c0.9-0.5,1.8-0.9,2.7-1.1v35.1L812.2,491.3z M801.2,479.1l0.8,0.1
					c2-7.9,5.4-14,9.4-17.4v28.8l-13.2-10.3h0.1V480c-0.2-6.7,0.3-23.9,9.8-39.3c1-1.6,2.1-3.2,3.3-4.7v13.6
					C803.7,458.9,801.7,474.4,801.2,479.1z M762.9,490.9l0.4-21.8c3.6-2.3,7.1-5,10.5-7.9l0.3-0.3c0.2-0.1,0.3-0.3,0.5-0.4
					c1.5-1.3,3.1-2.8,4.6-4.3c0.2-0.2,0.4-0.4,0.6-0.6l0.5-0.5c0.2-0.2,0.4-0.4,0.6-0.6c3.8-3.9,7.3-8,10.7-12.7
					c0.3-0.4,0.5-0.7,0.8-1.1c1.5-2,2.9-4,4.3-6.3c0.3-0.4,0.5-0.8,0.8-1.2c1.7-2.5,3.1-4.9,4.8-7.6c3.3-5.4,6.3-10.1,9.2-13.2
					c0.3-0.3,0.5-0.5,0.8-0.8c1.3-1.3,2.6-2.2,3.9-2.8c0.3-0.1,0.5-0.2,0.8-0.3c0.8-0.3,1.7-0.4,2.5-0.5c0.1,0,0.3,0,0.4,0
					c4.8,0.1,9.7,4.1,14.8,12c-3.3,0.6-10.7,2.6-18,9c-0.3,0.2-0.5,0.5-0.8,0.7c-1.4,1.3-2.8,2.7-4.1,4.3c-0.3,0.3-0.5,0.6-0.8,1
					c-1.3,1.6-2.5,3.4-3.7,5.2c-9.5,15.4-10.2,32.5-10,39.5l-0.8,0.3l0.7,0.5L762.9,490.9z M812.5,434.6c1.2-1.4,2.4-2.7,3.7-3.9
					v14.5c-1.1,0.7-2.2,1.6-3.3,2.7c-0.3,0.3-0.5,0.5-0.7,0.8V435C812.3,434.9,812.4,434.7,812.5,434.6z M797.5,352l0.1-32.8
					c4.5-0.5,9-0.1,13.3,1.1l0.3,56.1c-0.7,0.3-1.5,0.6-2.2,0.9l0.3,0.7c0.7-0.2,1.3-0.4,1.9-0.5l0.1,12.8c-0.2,0-0.3,0.1-0.5,0.1
					l-0.7,0.1c0-0.6,0-1.2-0.1-1.8c-0.6-3.3-2.8-6.3-6.3-8.2c-1.9-1-4-1.7-6.2-2.1v-22.3c0-0.1,0.1-0.1,0.1-0.2
					C798.2,354.9,798.2,353.5,797.5,352z M779.8,337.5v-10.8c3.2-2.6,7-4.8,11.7-6.2v24.3c-2.8-2.3-6.4-4.6-10.8-6.8L779.8,337.5z
					 M780.2,338.6c5.1,5.2,8.9,10.6,11.2,15.6v4.9c-2.6,0.6-5.7,0.8-8.2,0c-1.2-0.4-2.3-0.9-3.4-1.5v-19.5L780.2,338.6z
					 M796.9,355.8c-0.5,1-1.6,1.8-3,2.5c-1.7-5.6-5.6-12-11.5-18.4C792.9,345.6,798.7,352,796.9,355.8z M793.1,358.6
					c-0.3,0.1-0.6,0.2-0.9,0.3V356C792.5,356.9,792.9,357.7,793.1,358.6z M794.1,359c1.3-0.6,2.3-1.3,3-2.2l-0.2,21.7
					c-1.5-0.2-3.1-0.2-4.8-0.1v-6.6C795,368.7,795.5,364.2,794.1,359z M792.2,320.3c0.9-0.3,1.8-0.5,2.7-0.6
					c0.8-0.2,1.7-0.3,2.5-0.4l-0.3,32c-0.9-1.8-2.6-3.8-5-5.8L792.2,320.3L792.2,320.3z M803.3,381.3c3.3,1.9,5.4,4.6,5.9,7.7
					c1.2,7.1-6.8,15-12.5,18.5c-8.9,5.5-20.3,6-29.9,1.3l1.9-9.6l17.5-1.9c5.4-1.2,9.7-6,9.4-10.6c-0.2-2.1-1.2-3.9-3.1-5.2
					c-1.5-1-3.3-1.6-5.3-1.6C793,378.4,798.8,378.8,803.3,381.3z M783.3,380.7l0.3,0.7c2.8-0.9,5.7-0.8,7.9,0.4V394
					c-1.4,1.2-3.2,2.2-5.3,2.7l-6.3,0.7v-20.8c0.1,0,0.2,0,0.2,0c0.3,0,0.5,0,0.7,0c4-0.2,8.1-1.7,10.7-4v5.9
					C788.7,378.8,786,379.5,783.3,380.7z M794.8,386.8c0.2,2-0.8,4.4-2.7,6.3v-10.9C793.8,383.5,794.7,385,794.8,386.8z M779,397.4
					l-4.6,0.5v-22.3c1.4,0.5,3,0.8,4.6,0.9V397.4z M766,409.3l0.3,0.1c2.3,1.2,4.8,2,7.3,2.6v48.4l-0.3,0.2c-2.4,2-4.8,3.9-7.3,5.7
					V409.3v-38.5c1.8,1.5,4.4,3.3,7.6,4.5V398l-5.5,0.6L766,409.3z M779,412.7v42.7c-0.1,0.1-0.2,0.2-0.3,0.3
					c-1.4,1.4-2.9,2.8-4.3,4v-47.6C775.9,412.5,777.4,412.7,779,412.7z M780.6,412.8c3.7,0,7.3-0.6,10.8-1.9v30
					c-0.1,0.1-0.2,0.3-0.3,0.5c-3.5,4.7-7,8.8-10.7,12.6c-0.2,0.2-0.4,0.4-0.6,0.6l0,0v-41.8C780.1,412.8,780.3,412.8,780.6,412.8z
					 M796.7,408.4l-0.2,25.1c-0.1,0.2-0.2,0.4-0.3,0.5c-1.3,2-2.7,3.9-4,5.8v-29.2C793.8,410,795.3,409.3,796.7,408.4z M797.4,408
					c1.4-0.9,3-2.1,4.5-3.4c0.4,0,0.9,0,1.3,0c2.7,0,5.4-0.4,8.1-1v8.1c-0.1,0.1-0.2,0.2-0.3,0.3c-3,3.2-6,7.9-9.3,13.4
					c-1.5,2.4-2.9,4.7-4.4,7L797.4,408z M811.2,320.5c1.9,0.6,3.8,1.3,5.7,2.2l-0.4,52.5c-1.5,0.3-3.1,0.6-4.7,1.2L811.2,320.5z
					 M816.5,378.1l-0.1,9.5c-1.2,1.1-2.7,2.1-4.4,2.7l-0.1-12.7C813.5,377.3,815.1,377.5,816.5,378.1z M828.1,377.4
					c2.3,1.3,3.8,3.3,4.1,5.5c0.8,5.8-7.1,13-12.2,16.1c-5.3,3.2-11.3,4.8-17.3,4.7c3.7-3.4,6.9-7.9,7.3-12.3l0.9-0.1
					c5-1.3,9.1-5.6,9-9.4c0-1.6-0.8-3-2.2-4c-1.3-0.9-2.8-1.3-4.6-1.3l0,0C819.7,374.7,825,375.6,828.1,377.4z M817.4,378.6
					c1.2,0.8,1.8,2,1.9,3.4c0,1.3-0.6,2.9-1.7,4.3l-0.5,0.1v0.1v-8C817.2,378.5,817.3,378.5,817.4,378.6z M816.3,401.8v6.2
					c-0.1,0-0.1,0-0.2,0.1c-1.3,0.6-2.6,1.4-3.9,2.6l-0.1-7.5C813.5,402.9,814.9,402.4,816.3,401.8z M823,397.9
					c1.5,0.2,2.9,0.4,4.4,0.4c3.2,0,6.3-0.5,9.3-1.6v61.6l-0.3-8.4v-0.1l-0.1-0.1c-0.6-0.6-6-6.4-12.8-6.5c-2.2,0-4.4,0.5-6.4,1.6
					V430c0.1-0.1,0.2-0.2,0.3-0.3c7.7-6.7,15.3-8.5,18.2-8.9l0.6-0.1l-0.3-0.5c-5.3-8.5-10.6-12.8-15.7-12.9c-0.2,0-0.3,0-0.5,0
					c-0.9,0-1.7,0.2-2.6,0.5v-6.3c1.1-0.5,2.2-1.1,3.3-1.8C821.2,399.2,822.1,398.6,823,397.9z M764.2,368.1l1-32.2
					c1.8,6.3,7,21,17.7,24c3,0.9,7.2,0.6,10.4-0.5c1.3,5.1,0.8,9.4-2,12.2c-2.4,2.4-6.5,4-10.6,4.2c-0.2,0-0.5,0-0.7,0
					C771.6,375.8,765.3,369.3,764.2,368.1z M778.5,336.9l0.5,0.5v19.8c-1.7-1.1-3.3-2.6-4.6-4.3V332c1.3-1.6,2.9-3.2,4.6-4.7v9.7
					L778.5,336.9z M773.6,351.8c-2.4-3.2-4.2-6.9-5.5-10.2c1-2.1,2.8-5.3,5.5-8.6V351.8z M765.7,312c2.8-1.9,21.4-13.3,42.4-3.9
					c15,6.7,21.8,20.2,24.3,26.6c-9-12.3-23.4-18.5-37.6-15.8c-15.7,3-24,15.6-27.1,21.7c-0.4-1-0.7-1.9-1-2.8L765.7,312z
					 M779,305.3c-1.7,0.5-3.2,1-4.7,1.5v-6.7c0.1-0.1,0.2-0.2,0.3-0.3c0.8-1,1.9-2.4,3-2.2c0.6,0.1,1.1,0.9,1.5,1.7L779,305.3z
					 M774,299.3c-0.3,0.3-0.6,0.8-0.8,0.9c-0.4-1.4,1.4-9.7,3.6-13.3c0.7-1.1,1.1-1.2,1.2-1.2l0,0c0.2,0,0.4,0.2,0.6,0.6
					c1.5,2.6,1.9,11,1.7,13.9c-0.4-1.3-1.1-3.1-2.5-3.4C776.2,296.6,774.9,298.2,774,299.3z M777.7,285.1
					c19.8-17.5,48.5-37.5,51.5-38.8c2.5-1,5-2,7.6-2.9v125.8c-2.2,0.3-4.4,0.9-6.6,1.9l0.3,0.7c2.2-0.8,4.5-0.7,6.3,0.1v10.4
					c-1,0.9-2.3,1.6-3.8,2c0-0.5,0-1,0-1.5c-0.3-2.5-1.9-4.6-4.4-6.1c-3.1-1.8-7.1-2.3-11.4-1.7v-52.3c6.5,3.2,12.3,8.3,16.4,15
					l1.6,2.6l-0.9-2.9c-1.3-4.1-5.8-16.2-17.2-24.9v-13.2l-0.1,13.1c-1.8-1.4-3.8-2.6-5.9-3.8l-0.3-27.6c0.4-0.2,0.7-0.7,1.3-1.7
					c0.3-0.5,0.7-1.1,1.1-1.6l2.1-1.2c0.9,0.5,1.4,2.6,1.7,3.8c0,0.2,0.1,0.3,0.1,0.5v18.5l0.1-18c0.1,0.3,0.2,0.5,0.4,0.5l0.2,0.1
					l0.2-0.1c1.1-0.5,0.8-13.3-0.2-18.2c-0.2-1-0.4-1.8-0.7-2.3v-4.7l-1.1,3.8c0,0,0,0-0.1,0c-0.8,0-1.6,0.9-2.5,3.2
					c-2,4.8-4.6,16.5-3.3,17.5c0.1,0.1,0.3,0.1,0.5,0.1c0.1,0,0.1,0,0.2-0.1l0.1,27.5c-0.8-0.4-1.6-0.8-2.5-1.2
					c-3.7-1.7-7.3-2.7-10.8-3.2v-11.4l-0.1,11.4c-1.8-0.3-3.6-0.5-5.4-0.5v-13.5c0.1-0.1,0.2-0.2,0.3-0.4c0.3-0.3,0.5-0.7,0.8-1
					l2.8-0.7c0.6,0.6,1,1.8,1.2,2.5c0.1,0.3,0.2,0.6,0.3,0.8v1.3v-1.3c0.1,0.2,0.2,0.3,0.3,0.4l0.2,0.1h0.2
					c1.2-0.4,0.3-9.3,0.1-10.6c-0.2-1.7-0.5-2.9-0.8-3.8v-2l-0.4,0.9c-0.6-1.2-1.2-1.3-1.4-1.3c-1.1-0.1-2.4,1.7-3.6,5.3
					c-1,2.8-2.9,10-1.6,10.7c0.3,0.2,0.5,0.1,0.8-0.1v12.7c-4.3,0-8.2,0.6-11.7,1.4v-3.7c0.1,0.2,0.2,0.4,0.4,0.5l0.2,0.1h0.2
					c1.2-0.4,0.3-9.3,0.1-10.6c-0.3-1.8-0.5-3.1-0.8-4V285l-0.6,1.1c-0.5-0.9-1-0.9-1.2-1C777.9,285,777.8,285.1,777.7,285.1z
					 M791,290.3c-0.4-1.4,1.4-9.7,3.6-13.3c0.7-1.1,1.1-1.2,1.2-1.2l0,0c0.2,0,0.4,0.2,0.6,0.6c1.5,2.6,1.9,11,1.7,13.9
					c-0.4-1.3-1.1-3.1-2.5-3.4c-1.5-0.3-2.8,1.3-3.8,2.5C791.6,289.7,791.2,290.1,791,290.3z M810.5,280.3
					c-0.4-2.1,2.2-14.6,4.5-18.3c0.4-0.6,0.7-0.8,0.8-0.8l0,0c0.1,0,0.2,0.1,0.4,0.4c1.6,2.8,1.8,14.4,1.4,18.4
					c-0.4-1.6-1-3.9-2.4-4.2c-1.5-0.4-2.8,1.6-3.9,3.3C811.1,279.5,810.8,280,810.5,280.3z M837.7,372.5c1.3,0.9,2.1,2.3,2.2,3.7
					c0.1,1.7-0.8,3.8-2.4,5.4c0-3.1,0-6.2,0-9.2C837.6,372.5,837.7,372.5,837.7,372.5z M836.7,479.1c-2-5.9-7.1-18.4-15.7-20.5
					c-0.8-0.2-1.7-0.3-2.5-0.3c-1.8,0-3.6,0.5-5.4,1.5c-4.3,2.4-7.9,7.5-10.5,14.6c1.2-7,4.1-19.1,10.9-25.9c3-3.1,6.4-4.6,9.9-4.5
					c6.3,0.1,11.3,5.2,12.2,6.2L836.7,479.1z M762.2,492.8l0.4-0.1l0,0l72.9,43.4v-26.5L817,495.2v-35.9c1.3-0.2,2.5-0.1,3.8,0.2
					c9.8,2.5,15,19.3,15.9,22.5v57.8L762.2,492.8z M761.9,492.2l0.1,0.1v0.3l-0.1-0.1V492.2L761.9,492.2z M761.9,301.3
					c2.3-3.1,5.9-7.1,10.8-11.7c1.1-1,2.2-2,3.4-3.1c-0.6,0.9-1.2,2.2-1.8,3.8c-1,2.8-2.9,10-1.6,10.7c0.3,0.2,0.6,0.1,0.9-0.1v6.2
					c-3.5,1.4-6.2,2.9-7.6,3.8v-12.4h-0.8v12.9l-0.1,0.1l-0.2,0.1l0.3,8.1v12.4l-0.5-2.5l-1.3,38.7l0.1,0.1c0.2,0.2,0.8,0.9,1.7,1.7
					v96.8c-0.8,0.6-1.7,1.1-2.5,1.7l-0.2,0.1l-0.4,22.4H762L761.9,301.3L761.9,301.3z M761.9,292.9c30.6-32,53.2-51.1,67.3-57.1
					c5.5-2.3,9.7-2.7,12.6-1c2.4,1.3,4,4.1,4.7,8.1v127.5c-2.7-1.2-5.7-1.6-8.9-1.3c0-31.6,0-63.1,0-94.7c0-10.7,0-21.4,0-32.1
					c-0.2,0.1-0.4,0.1-0.5,0.2c-2.7,0.9-5.5,2-8.2,3.1c-4.6,1.9-7.4,4.6-8.5,5.4c-14.6,11.7-28.1,17.9-48.2,38
					c-2.3,2.3-6,6-10.2,10.9L761.9,292.9L761.9,292.9z"/>
				<path class="st5" d="M828.1,377.4c2.3,1.3,3.8,3.3,4.1,5.5c0.8,5.8-7.1,13-12.2,16.1c-5.3,3.2-11.3,4.8-17.3,4.7
					c3.7-3.4,6.9-7.9,7.3-12.3l0.9-0.1c5-1.3,9.1-5.6,9-9.4c0-1.6-0.8-3-2.2-4c-1.3-0.9-2.8-1.3-4.6-1.3l0,0
					C819.7,374.7,825,375.6,828.1,377.4z"/>
				<path class="st5" d="M809.3,389c1.2,7.1-6.8,15-12.5,18.5c-8.9,5.5-20.3,6-29.9,1.3l1.9-9.6l17.5-1.9c5.4-1.2,9.7-6,9.4-10.6
					c-0.2-2.1-1.2-3.9-3.1-5.2c-1.5-1-3.3-1.6-5.3-1.6c5.8-1.6,11.6-1.2,16,1.3C806.6,383.2,808.7,385.9,809.3,389z"/>
				<path class="st5" d="M794.6,277.1c0.7-1.1,1.1-1.2,1.2-1.2l0,0c0.2,0,0.4,0.2,0.6,0.6c1.5,2.6,1.9,11,1.7,13.9
					c-0.4-1.3-1.1-3.1-2.5-3.4c-1.5-0.3-2.8,1.3-3.8,2.5c-0.3,0.3-0.6,0.8-0.8,0.9C790.6,288.9,792.4,280.7,794.6,277.1z"/>
				<path class="st5" d="M776.7,287c0.7-1.1,1.1-1.2,1.2-1.2l0,0c0.2,0,0.4,0.2,0.6,0.6c1.5,2.6,1.9,11,1.7,13.9
					c-0.4-1.3-1.1-3.1-2.5-3.4c-1.5-0.3-2.8,1.3-3.8,2.5c-0.3,0.3-0.6,0.8-0.8,0.9C772.8,298.9,774.5,290.6,776.7,287z"/>
				<path class="st5" d="M815.1,262c0.4-0.6,0.7-0.8,0.8-0.8l0,0c0.1,0,0.2,0.1,0.4,0.4c1.6,2.8,1.8,14.4,1.4,18.4
					c-0.4-1.6-1-3.9-2.4-4.2c-1.5-0.4-2.8,1.6-3.9,3.3c-0.3,0.4-0.6,0.9-0.8,1.2C810.1,278.2,812.7,265.7,815.1,262z"/>
				<path class="st5" d="M808.1,308.1c15,6.7,21.8,20.2,24.3,26.6c-9-12.3-23.4-18.5-37.6-15.8c-15.7,3-24,15.6-27.1,21.7
					c-0.4-1-0.7-1.9-1-2.8l-1-25.9C768.5,310.1,787.1,298.7,808.1,308.1z"/>
				<path class="st5" d="M821,458.5c-0.8-0.2-1.7-0.3-2.5-0.3c-1.8,0-3.6,0.5-5.4,1.5c-4.3,2.4-7.9,7.5-10.5,14.6
					c1.2-7,4.1-19.1,10.9-25.9c3-3.1,6.4-4.6,9.9-4.5c6.3,0.1,11.3,5.2,12.2,6.2l1.1,29C834.8,473.2,829.6,460.7,821,458.5z"/>
				<path class="st5" d="M796.9,355.8c-0.5,1-1.6,1.8-3,2.5c-1.7-5.6-5.6-12-11.5-18.4C792.9,345.6,798.7,352,796.9,355.8z"/>
				<path class="st5" d="M765.3,335.8c1.8,6.3,7,21,17.7,24c3,0.9,7.2,0.6,10.4-0.5c1.3,5.1,0.8,9.4-2,12.2c-2.4,2.4-6.5,4-10.6,4.2
					c-0.2,0-0.5,0-0.7,0c-8.4,0-14.7-6.5-15.8-7.7L765.3,335.8z"/>
			</g>
		</g>
	</g>
	<g>
		
			<image style="overflow:visible;opacity:0.35;enable-background:new    ;" width="999" height="494" xlink:href="9FD1CA43.png"  transform="matrix(1 0 0 1 496 -234)">
		</image>
		<g>
			<g>
				<path class="st7" d="M819.3-9.5c-0.7-1.6-1.6-3-2.6-4.4c1.2,0.5,2.5,0.9,3.7,1.3C819.9-11.6,819.5-10.6,819.3-9.5z"/>
				<path class="st7" d="M1326.3,132.5c0.6,0.5,1.3,1,1.9,1.4c-0.7,0.8-1.3,1.7-1.9,2.6c0.1-0.6,0.1-1.2,0.1-1.8
					C1326.5,134,1326.4,133.3,1326.3,132.5z"/>
				<path class="st7" d="M1088.9,48.2c0.4,0.2,0.8,0.4,1.2,0.5c-0.1,1.4-0.2,2.9-0.2,4.3c0,1,0.1,2.1,0.1,3.1
					c-1.1,1.3-2.2,2.7-3.2,4.1c-6.2,1.7-11.8,4.9-16.3,9.3c4.4-5.6,7.6-12.3,8.9-19.5C1082.7,49.8,1085.9,49.1,1088.9,48.2z"/>
				<g>
					
						<image style="overflow:visible;opacity:0.75;enable-background:new    ;" width="879" height="374" xlink:href="9FD1CA44.png"  transform="matrix(1 0 0 1 544 -156)">
					</image>
					<g>
						
							<linearGradient id="SVGID_3_" gradientUnits="userSpaceOnUse" x1="976.4501" y1="916.9" x2="976.4501" y2="574.7" gradientTransform="matrix(1 0 0 -1 0 770)">
							<stop  offset="0" style="stop-color:#DDD9C7"/>
							<stop  offset="0.4554" style="stop-color:#DBD9C7"/>
							<stop  offset="0.6194" style="stop-color:#D4D8C8"/>
							<stop  offset="0.7363" style="stop-color:#C9D7C9"/>
							<stop  offset="0.8309" style="stop-color:#B8D5CB"/>
							<stop  offset="0.9118" style="stop-color:#A2D2CD"/>
							<stop  offset="0.9822" style="stop-color:#87CFD0"/>
							<stop  offset="1" style="stop-color:#7FCED1"/>
							<stop  offset="1" style="stop-color:#000000"/>
						</linearGradient>
						<linearGradient id="SVGID_4_" gradientUnits="userSpaceOnUse" x1="552.4" y1="24.2" x2="1400.5001" y2="24.2">
							<stop  offset="0" style="stop-color:#FFFFFF"/>
							<stop  offset="0.4343" style="stop-color:#FDFEFE"/>
							<stop  offset="0.5907" style="stop-color:#F6FAFA"/>
							<stop  offset="0.7023" style="stop-color:#EBF3F4"/>
							<stop  offset="0.7924" style="stop-color:#DAE9EB"/>
							<stop  offset="0.8696" style="stop-color:#C4DCDF"/>
							<stop  offset="0.9367" style="stop-color:#A9CCD1"/>
							<stop  offset="0.9972" style="stop-color:#8ABAC0"/>
							<stop  offset="1" style="stop-color:#88B9BF"/>
						</linearGradient>
						<path class="st8" d="M552.9-13.2c0,21,17.3,38.1,38.7,38.1c2.8,0,5.6-0.3,8.2-0.9c6.7,4.9,15,7.8,24,7.8c4.4,0,8.7-0.7,12.7-2
							c0.1,14.9,12.5,27,27.7,27c9.8,0,18.4-5,23.3-12.6c3.7,2,7.8,3.1,12.3,3.1c8.3,0,15.6-3.9,20.3-9.9c2,0.2,4,0.3,6,0.3
							c3.1,0,6.1-0.3,9-0.8c0,0.2,0,0.4,0,0.6c0,6.9,5.7,12.4,12.6,12.4c1.1,0,2.2-0.2,3.3-0.4c4.7,2.4,10,3.8,15.7,3.8
							c3.4,0,6.6-0.5,9.7-1.4c5.1,4.1,11.6,6.5,18.7,6.5c10.8,0,20.3-5.7,25.5-14.2c4.4,2.8,9.6,4.4,15.2,4.4
							c9.4,0,17.7-4.5,22.7-11.5c0.8,0.1,1.5,0.1,2.3,0.1c2,0,3.9-0.2,5.8-0.5c3.3,1.1,6.8,1.7,10.5,1.7c2.2,0,4.3-0.2,6.4-0.6
							c3.2,8.8,11.8,15.1,21.9,15.1c1.3,0,2.6-0.1,3.9-0.3c2.5,3.8,5.5,7.3,9,10.2c3.4,22.2,22.8,39.2,46.3,39.2
							c14.3,0,27-6.3,35.6-16.2c4.7,1.6,9.6,2.4,14.8,2.4c13,0,24.8-5.3,33.2-13.9c-4.6,6-7.3,13.4-7.3,21.5
							c0,19.7,16.3,35.8,36.3,35.8c3.2,0,6.3-0.4,9.3-1.2c6.3,3.1,13.5,4.8,21,4.8c22.6,0,41.6-15.4,46.7-36.2
							c8.5,7.1,19.6,11.5,31.7,11.5c1.2,0,2.3-0.1,3.5-0.1c4.6,4.9,11.2,8,18.5,8c9.3,0,17.5-5,21.8-12.5
							c8.1,9.3,20.2,15.1,33.6,15.1c11.7,0,22.4-4.5,30.3-11.8c0.4,3.2,1.2,6.3,2.3,9.2c-2.4-1-5.1-1.6-7.8-1.6
							c-10.7,0-19.4,8.6-19.4,19.1c0,10.6,8.7,19.1,19.4,19.1c5.8,0,10.9-2.5,14.5-6.4c-0.8,3-1.2,6.1-1.2,9.3
							c0,20.6,17,37.4,37.9,37.4s37.9-16.7,37.9-37.4c0-8-2.6-15.4-6.9-21.5c3.3-3.9,5.2-8.8,5.2-14.2c0-6.5-2.8-12.3-7.3-16.4
							c0-0.3,0-0.6,0-0.9c0-5.3-1.1-10.3-3.2-14.9c20.4-6.9,35-25.9,35-48.3c0-28.2-23.2-51.1-51.9-51.1c-5.8,0-11.4,1-16.6,2.7
							c-7.9-7.7-18.7-12.5-30.6-12.6c-1.5-0.3-3.1-0.5-4.7-0.5c-4.4,0-8.4,1.3-11.8,3.4c-1.2,0.5-2.4,1-3.5,1.5
							c-7.8-7.8-18.4-12.8-30.3-13.2c-9-7.1-20.3-11.3-32.7-11.3c-9.9,0-19.1,2.7-27,7.4c-7.2-18.3-25.2-31.3-46.4-31.3
							c-3.7,0-7.3,0.4-10.8,1.2c-5.6-4.9-12.5-8.5-20.1-10.4c-2.2-10-11.2-17.5-22-17.5c-12.4,0-22.5,9.9-22.5,22.2
							c0,2.2,0.3,4.4,1,6.4c-6.7,6.1-11.6,14.1-13.8,23.1c-1.7-0.3-3.4-0.5-5.2-0.5c-11.4,0-21.1,7.5-24.1,17.9
							c-4-6.1-10.9-10.1-18.8-10.1c-0.8,0-1.6,0-2.4,0.1c0.1-0.8,0.1-1.6,0.1-2.4c0-3.4-0.6-6.7-1.6-9.8c1-1,1.6-2.3,1.6-3.9
							c0-2.6-1.8-4.8-4.3-5.3c-3.5-7.7-10-13.7-18-16.7c1.9-3.6,2.9-7.7,2.9-12.1c0-14.7-12.1-26.7-27.1-26.7c-0.7,0-1.4,0-2.1,0.1
							c-1.7-2.8-3.8-5.4-6-7.8c-4.3-18-20.7-31.4-40.3-31.4c-9.2,0-17.7,3-24.6,7.9c-5.6-2.8-12-4.4-18.8-4.4
							c-19.8,0-36.3,13.6-40.6,31.8c-1.7,1.5-3.2,3.1-4.5,4.8c-7-5-15.6-8-25-8c-10.2,0-19.5,3.5-26.8,9.4
							c-6.7-4.3-14.6-6.7-23.2-6.7c-23.6,0-42.7,18.8-42.7,42c0,2.7,0.3,5.4,0.8,8c-13.2,5.4-23.7,16-28.9,29.2
							c-4.3,6.9-6.7,15-6.7,23.7c0,4.4,0.7,8.7,1.8,12.7c-2.5-0.7-5.1-1.1-7.8-1.1c-0.4,0-0.8,0-1.3,0c0.9-3.3,1.4-6.8,1.4-10.4
							c0-10.2-3.9-19.5-10.3-26.5c-4.6-13.2-17.3-22.7-32.3-22.7c-7.9,0-15.2,2.7-21,7.1c-2.9-0.7-6-1.1-9.1-1.1
							C570.2-51.3,552.9-34.2,552.9-13.2z M797.7-12.8c1.2,0.5,2.5,0.9,3.7,1.3c-0.5,1-0.9,2-1.1,3.1
							C799.5-10,798.7-11.5,797.7-12.8z M1307.4,137.6c0.1-0.6,0.1-1.2,0.1-1.8c0-0.8-0.1-1.5-0.1-2.2c0.6,0.5,1.3,1,1.9,1.4
							C1308.6,135.8,1308,136.6,1307.4,137.6z M1051.5,70.5c4.4-5.6,7.6-12.3,8.9-19.5c3.3-0.2,6.4-0.9,9.4-1.8
							c0.4,0.2,0.8,0.4,1.2,0.5c-0.1,1.4-0.2,2.9-0.2,4.3c0,1,0.1,2.1,0.1,3.1c-1.1,1.3-2.2,2.7-3.2,4.1
							C1061.6,62.9,1056,66.2,1051.5,70.5z"/>
						<path class="st9" d="M552.9-13.2c0,21,17.3,38.1,38.7,38.1c2.8,0,5.6-0.3,8.2-0.9c6.7,4.9,15,7.8,24,7.8c4.4,0,8.7-0.7,12.7-2
							c0.1,14.9,12.5,27,27.7,27c9.8,0,18.4-5,23.3-12.6c3.7,2,7.8,3.1,12.3,3.1c8.3,0,15.6-3.9,20.3-9.9c2,0.2,4,0.3,6,0.3
							c3.1,0,6.1-0.3,9-0.8c0,0.2,0,0.4,0,0.6c0,6.9,5.7,12.4,12.6,12.4c1.1,0,2.2-0.2,3.3-0.4c4.7,2.4,10,3.8,15.7,3.8
							c3.4,0,6.6-0.5,9.7-1.4c5.1,4.1,11.6,6.5,18.7,6.5c10.8,0,20.3-5.7,25.5-14.2c4.4,2.8,9.6,4.4,15.2,4.4
							c9.4,0,17.7-4.5,22.7-11.5c0.8,0.1,1.5,0.1,2.3,0.1c2,0,3.9-0.2,5.8-0.5c3.3,1.1,6.8,1.7,10.5,1.7c2.2,0,4.3-0.2,6.4-0.6
							c3.2,8.8,11.8,15.1,21.9,15.1c1.3,0,2.6-0.1,3.9-0.3c2.5,3.8,5.5,7.3,9,10.2c3.4,22.2,22.8,39.2,46.3,39.2
							c14.3,0,27-6.3,35.6-16.2c4.7,1.6,9.6,2.4,14.8,2.4c13,0,24.8-5.3,33.2-13.9c-4.6,6-7.3,13.4-7.3,21.5
							c0,19.7,16.3,35.8,36.3,35.8c3.2,0,6.3-0.4,9.3-1.2c6.3,3.1,13.5,4.8,21,4.8c22.6,0,41.6-15.4,46.7-36.2
							c8.5,7.1,19.6,11.5,31.7,11.5c1.2,0,2.3-0.1,3.5-0.1c4.6,4.9,11.2,8,18.5,8c9.3,0,17.5-5,21.8-12.5
							c8.1,9.3,20.2,15.1,33.6,15.1c11.7,0,22.4-4.5,30.3-11.8c0.4,3.2,1.2,6.3,2.3,9.2c-2.4-1-5.1-1.6-7.8-1.6
							c-10.7,0-19.4,8.6-19.4,19.1c0,10.6,8.7,19.1,19.4,19.1c5.8,0,10.9-2.5,14.5-6.4c-0.8,3-1.2,6.1-1.2,9.3
							c0,20.6,17,37.4,37.9,37.4s37.9-16.7,37.9-37.4c0-8-2.6-15.4-6.9-21.5c3.3-3.9,5.2-8.8,5.2-14.2c0-6.5-2.8-12.3-7.3-16.4
							c0-0.3,0-0.6,0-0.9c0-5.3-1.1-10.3-3.2-14.9c20.4-6.9,35-25.9,35-48.3c0-28.2-23.2-51.1-51.9-51.1c-5.8,0-11.4,1-16.6,2.7
							c-7.9-7.7-18.7-12.5-30.6-12.6c-1.5-0.3-3.1-0.5-4.7-0.5c-4.4,0-8.4,1.3-11.8,3.4c-1.2,0.5-2.4,1-3.5,1.5
							c-7.8-7.8-18.4-12.8-30.3-13.2c-9-7.1-20.3-11.3-32.7-11.3c-9.9,0-19.1,2.7-27,7.4c-7.2-18.3-25.2-31.3-46.4-31.3
							c-3.7,0-7.3,0.4-10.8,1.2c-5.6-4.9-12.5-8.5-20.1-10.4c-2.2-10-11.2-17.5-22-17.5c-12.4,0-22.5,9.9-22.5,22.2
							c0,2.2,0.3,4.4,1,6.4c-6.7,6.1-11.6,14.1-13.8,23.1c-1.7-0.3-3.4-0.5-5.2-0.5c-11.4,0-21.1,7.5-24.1,17.9
							c-4-6.1-10.9-10.1-18.8-10.1c-0.8,0-1.6,0-2.4,0.1c0.1-0.8,0.1-1.6,0.1-2.4c0-3.4-0.6-6.7-1.6-9.8c1-1,1.6-2.3,1.6-3.9
							c0-2.6-1.8-4.8-4.3-5.3c-3.5-7.7-10-13.7-18-16.7c1.9-3.6,2.9-7.7,2.9-12.1c0-14.7-12.1-26.7-27.1-26.7c-0.7,0-1.4,0-2.1,0.1
							c-1.7-2.8-3.8-5.4-6-7.8c-4.3-18-20.7-31.4-40.3-31.4c-9.2,0-17.7,3-24.6,7.9c-5.6-2.8-12-4.4-18.8-4.4
							c-19.8,0-36.3,13.6-40.6,31.8c-1.7,1.5-3.2,3.1-4.5,4.8c-7-5-15.6-8-25-8c-10.2,0-19.5,3.5-26.8,9.4
							c-6.7-4.3-14.6-6.7-23.2-6.7c-23.6,0-42.7,18.8-42.7,42c0,2.7,0.3,5.4,0.8,8c-13.2,5.4-23.7,16-28.9,29.2
							c-4.3,6.9-6.7,15-6.7,23.7c0,4.4,0.7,8.7,1.8,12.7c-2.5-0.7-5.1-1.1-7.8-1.1c-0.4,0-0.8,0-1.3,0c0.9-3.3,1.4-6.8,1.4-10.4
							c0-10.2-3.9-19.5-10.3-26.5c-4.6-13.2-17.3-22.7-32.3-22.7c-7.9,0-15.2,2.7-21,7.1c-2.9-0.7-6-1.1-9.1-1.1
							C570.2-51.3,552.9-34.2,552.9-13.2z M797.7-12.8c1.2,0.5,2.5,0.9,3.7,1.3c-0.5,1-0.9,2-1.1,3.1
							C799.5-10,798.7-11.5,797.7-12.8z M1307.4,137.6c0.1-0.6,0.1-1.2,0.1-1.8c0-0.8-0.1-1.5-0.1-2.2c0.6,0.5,1.3,1,1.9,1.4
							C1308.6,135.8,1308,136.6,1307.4,137.6z M1051.5,70.5c4.4-5.6,7.6-12.3,8.9-19.5c3.3-0.2,6.4-0.9,9.4-1.8
							c0.4,0.2,0.8,0.4,1.2,0.5c-0.1,1.4-0.2,2.9-0.2,4.3c0,1,0.1,2.1,0.1,3.1c-1.1,1.3-2.2,2.7-3.2,4.1
							C1061.6,62.9,1056,66.2,1051.5,70.5z"/>
					</g>
				</g>
			</g>
		</g>
	</g>
	<g>
		
			<image style="overflow:visible;opacity:0.35;enable-background:new    ;" width="437" height="283" xlink:href="9FD1CA45.png"  transform="matrix(1 0 0 1 -103 340)">
		</image>
		<g>
			<path class="st2" d="M258.1,515.6c0-11.6-9.3-21-20.9-21c-2.8,0-5.4,0.5-7.8,1.5c-0.6-2.7-1.6-5.3-2.7-7.7c2.4-1.4,4-4,4-7
				c0-4.5-3.6-8.2-8.1-8.2c-2,0-3.8,0.7-5.2,1.9c-7.7-7.5-18.2-12.1-29.8-12.1c-1,0-1.9,0-2.9,0.1c0.9-2.8,1.4-5.8,1.4-9
				c0-15.5-12.4-28.1-27.8-28.1c-6.6,0-12.6,2.3-17.4,6.1c-4.1-1.2-8.5-1.9-13-1.9c-18,0-33.7,10.2-41.7,25.1
				c-4.2-2.4-8.7-4.2-13.5-5.3c-8.4-10.6-21.2-17.4-35.7-17.4C12,432.9-8.4,453.5-8.4,479c0,1,0,2,0.1,3
				c-10.6,2.1-18.5,11.4-18.5,22.7c0,12.8,10.3,23.1,22.9,23.1c7.4,0,13.9-3.5,18.1-9c1.4,0.8,2.9,1.6,4.3,2.3
				c8.1,16,24.6,27,43.6,27c6.7,0,13.2-1.4,19-3.8c5.8,7.6,14.8,12.5,25,12.5c17.3,0,31.4-14.2,31.5-31.7c3.4-0.7,6.7-1.8,9.8-3.2
				c6.1,16.4,21.8,28.1,40.2,28.1c14.7,0,27.6-7.4,35.4-18.8c0.7,0.6,1.4,1.2,2.2,1.8c-1.6,1.4-2.6,3.4-2.6,5.8
				c0,4.2,3.3,7.5,7.4,7.5s7.4-3.4,7.4-7.5c0-0.7-0.1-1.3-0.3-1.9l0,0C248.8,536.7,258.1,527.3,258.1,515.6z"/>
			<path class="st3" d="M258.1,515.6c0-11.6-9.3-21-20.9-21c-2.8,0-5.4,0.5-7.8,1.5c-0.6-2.7-1.6-5.3-2.7-7.7c2.4-1.4,4-4,4-7
				c0-4.5-3.6-8.2-8.1-8.2c-2,0-3.8,0.7-5.2,1.9c-7.7-7.5-18.2-12.1-29.8-12.1c-1,0-1.9,0-2.9,0.1c0.9-2.8,1.4-5.8,1.4-9
				c0-15.5-12.4-28.1-27.8-28.1c-6.6,0-12.6,2.3-17.4,6.1c-4.1-1.2-8.5-1.9-13-1.9c-18,0-33.7,10.2-41.7,25.1
				c-4.2-2.4-8.7-4.2-13.5-5.3c-8.4-10.6-21.2-17.4-35.7-17.4C12,432.9-8.4,453.5-8.4,479c0,1,0,2,0.1,3
				c-10.6,2.1-18.5,11.4-18.5,22.7c0,12.8,10.3,23.1,22.9,23.1c7.4,0,13.9-3.5,18.1-9c1.4,0.8,2.9,1.6,4.3,2.3
				c8.1,16,24.6,27,43.6,27c6.7,0,13.2-1.4,19-3.8c5.8,7.6,14.8,12.5,25,12.5c17.3,0,31.4-14.2,31.5-31.7c3.4-0.7,6.7-1.8,9.8-3.2
				c6.1,16.4,21.8,28.1,40.2,28.1c14.7,0,27.6-7.4,35.4-18.8c0.7,0.6,1.4,1.2,2.2,1.8c-1.6,1.4-2.6,3.4-2.6,5.8
				c0,4.2,3.3,7.5,7.4,7.5s7.4-3.4,7.4-7.5c0-0.7-0.1-1.3-0.3-1.9l0,0C248.8,536.7,258.1,527.3,258.1,515.6z"/>
		</g>
	</g>
	<g>
		
			<image style="overflow:visible;opacity:0.35;enable-background:new    ;" width="690" height="355" xlink:href="9FD1CA46.png"  transform="matrix(1 0 0 1 325 519)">
		</image>
		<g>
			<path class="st10" d="M949.6,689.7c0-14.3-11.6-25.9-25.9-25.9c-6.6,0-12.5,2.4-17.1,6.5c1.1-3.1,1.6-6.4,1.6-9.9
				c0-1.8-0.2-3.6-0.5-5.4c-0.6-15.6-10.8-28.8-25-33.6c-5.5-9.4-15.7-15.7-27.3-15.7c-3.6,0-7.1,0.6-10.3,1.7c-0.2,0-0.3,0-0.5,0
				c-2,0-4,0.2-5.9,0.6c-0.3,0-0.6-0.1-0.9-0.1c0-0.8,0.1-1.6,0.1-2.4c0-2.4-0.2-4.8-0.6-7.1c-0.4-7.2-3.5-13.8-8.3-18.6
				c-7.6-9.5-19.2-15.6-32.3-15.6c-3.7,0-7.3,0.5-10.8,1.4c-5.5-2.3-11.5-3.6-17.9-3.6c-16.2,0-30.4,8.4-38.5,21.1
				c-4.9-2.9-10.6-4.6-16.7-4.6c-5.5,0-10.6,1.4-15.1,3.7c-6.2-6.1-14.7-9.8-24-9.8c-12,0-22.6,6.2-28.8,15.6c-0.5,0-1-0.1-1.5-0.1
				c-9.8,0-18,6.7-20.3,15.8c-6.1-5.1-13.9-8.1-22.5-8.1c-1.7,0-3.3,0.1-4.9,0.3c-6-6.9-14.9-11.3-24.8-11.3
				c-15.3,0-28.1,10.4-31.9,24.4h-0.1c-5.5,0-10.5,1.7-14.7,4.6c-5.7-5.5-12.7-9.6-20.5-11.8c-3.9-3.8-9.3-6.1-15.1-6.1
				c-6.5,0-12.3,2.8-16.3,7.3c-14.5,5.5-25.7,17.5-30.1,32.4c-2.6,1-4.7,2.8-6.1,5.2c-2.4-1.4-5.2-2.2-8.2-2.2
				c-9.1,0-16.4,7.3-16.4,16.4s7.4,16.4,16.4,16.4c0.9,0,1.7-0.1,2.5-0.2c-1,3.6-1.5,7.5-1.5,11.4c0,13.1,5.7,24.9,14.7,33
				c0.3,10.7,9,19.4,19.8,19.4c4.5,0,8.6-1.5,12-4c0.3,0,0.7,0.1,1,0.1c5.3,15.2,19.8,26.2,36.8,26.2c19.5,0,35.6-14.2,38.5-32.9
				c1.2,0.3,2.5,0.5,3.8,0.5c8.1,0,14.7-6.6,14.7-14.7c0-8.1-6.6-14.7-14.7-14.7c-3.3,0-6.3,1.1-8.8,2.9c-2.5-4.3-5.9-8-9.8-11.1
				c5.1-0.4,9.2-4.7,9.2-10c0-3.5-1.8-6.6-4.6-8.4c3.1-2.4,5.3-5.8,6-9.8c1.5-0.5,3-1.2,4.3-2c0,0.5,0,1,0,1.5
				c-2.2,3.7-3.5,8-3.5,12.6c0,13.4,10.9,24.3,24.3,24.3c2.4,0,4.7-0.3,6.9-1c0.3,5.9,5.3,10.6,11.3,10.6c3.7,0,6.9-1.7,9-4.4
				c0.7,0,1.4,0,2,0c1.5,0,3-0.1,4.5-0.3c5.1,18.7,22.1,31.5,42.4,31.5c8.7,0,16.8-1.5,23.7-5.9c0.6,0,1.2,0,1.8,0
				c1.9,0,11.8,2.7,13.7,2.4c3.9,1.7,0,0,4.4,0.5c0.9,0.6,1.8,1.2,2.7,1.8c5.8,20.1,24.2,34.7,46.1,34.7c26.3,0,47.7-21.2,48-47.5
				c9,10.2,22.3,16.7,37,16.7c6.2,0,12.1-1.2,17.6-3.3c7.5,14,22.4,23.6,39.4,23.6c18.6,0,34.5-11.3,41.3-27.4
				c7.8-3,13.8-9.6,15.8-17.8C946,704.9,949.6,697.7,949.6,689.7z"/>
		</g>
	</g>
	<g>
		
			<image style="overflow:visible;opacity:0.35;enable-background:new    ;" width="437" height="283" xlink:href="9FD1CA47.png"  transform="matrix(1 0 0 1 937 351)">
		</image>
		<g>
			<path class="st2" d="M1298.1,526.6c0-11.6-9.3-21-20.8-21c-2.8,0-5.4,0.5-7.8,1.5c-0.7-2.7-1.6-5.3-2.7-7.7c2.4-1.4,4-4,4-7
				c0-4.5-3.6-8.2-8.1-8.2c-2,0-3.8,0.7-5.2,1.9c-7.7-7.5-18.2-12.1-29.8-12.1c-1,0-1.9,0-2.9,0.1c0.9-2.8,1.4-5.8,1.4-9
				c0-15.5-12.4-28.1-27.8-28.1c-6.6,0-12.6,2.3-17.4,6.1c-4.1-1.2-8.5-1.9-13-1.9c-18,0-33.7,10.2-41.7,25.1
				c-4.2-2.4-8.7-4.2-13.5-5.3c-8.4-10.6-21.2-17.4-35.7-17.4c-25.2,0-45.6,20.6-45.6,46.1c0,1,0,2,0.1,3
				c-10.5,2.1-18.5,11.4-18.5,22.7c0,12.8,10.3,23.1,22.9,23.1c7.4,0,13.9-3.5,18.1-9c1.4,0.8,2.8,1.6,4.3,2.3
				c8.1,16,24.6,27,43.6,27c6.7,0,13.2-1.4,19-3.8c5.8,7.6,14.8,12.5,25,12.5c17.3,0,31.4-14.2,31.5-31.7c3.4-0.7,6.7-1.8,9.8-3.2
				c6.1,16.4,21.8,28.1,40.2,28.1c14.7,0,27.6-7.4,35.4-18.8c0.7,0.6,1.4,1.2,2.2,1.8c-1.6,1.4-2.7,3.4-2.7,5.8
				c0,4.2,3.3,7.5,7.4,7.5s7.4-3.4,7.4-7.5c0-0.7-0.1-1.3-0.3-1.9l0,0C1288.8,547.7,1298.1,538.3,1298.1,526.6z"/>
			<path class="st3" d="M1298.1,526.6c0-11.6-9.3-21-20.8-21c-2.8,0-5.4,0.5-7.8,1.5c-0.7-2.7-1.6-5.3-2.7-7.7c2.4-1.4,4-4,4-7
				c0-4.5-3.6-8.2-8.1-8.2c-2,0-3.8,0.7-5.2,1.9c-7.7-7.5-18.2-12.1-29.8-12.1c-1,0-1.9,0-2.9,0.1c0.9-2.8,1.4-5.8,1.4-9
				c0-15.5-12.4-28.1-27.8-28.1c-6.6,0-12.6,2.3-17.4,6.1c-4.1-1.2-8.5-1.9-13-1.9c-18,0-33.7,10.2-41.7,25.1
				c-4.2-2.4-8.7-4.2-13.5-5.3c-8.4-10.6-21.2-17.4-35.7-17.4c-25.2,0-45.6,20.6-45.6,46.1c0,1,0,2,0.1,3
				c-10.5,2.1-18.5,11.4-18.5,22.7c0,12.8,10.3,23.1,22.9,23.1c7.4,0,13.9-3.5,18.1-9c1.4,0.8,2.8,1.6,4.3,2.3
				c8.1,16,24.6,27,43.6,27c6.7,0,13.2-1.4,19-3.8c5.8,7.6,14.8,12.5,25,12.5c17.3,0,31.4-14.2,31.5-31.7c3.4-0.7,6.7-1.8,9.8-3.2
				c6.1,16.4,21.8,28.1,40.2,28.1c14.7,0,27.6-7.4,35.4-18.8c0.7,0.6,1.4,1.2,2.2,1.8c-1.6,1.4-2.7,3.4-2.7,5.8
				c0,4.2,3.3,7.5,7.4,7.5s7.4-3.4,7.4-7.5c0-0.7-0.1-1.3-0.3-1.9l0,0C1288.8,547.7,1298.1,538.3,1298.1,526.6z"/>
		</g>
	</g>
	<g>
		
			<image style="overflow:visible;opacity:0.35;enable-background:new    ;" width="568" height="379" xlink:href="19523DCD.png"  transform="matrix(1 0 0 1 891 405)">
		</image>
		<g>
			<linearGradient id="SVGID_5_" gradientUnits="userSpaceOnUse" x1="1174.65" y1="717.7999" x2="1174.65" y2="490.7999">
				<stop  offset="0" style="stop-color:#DDD9C7"/>
				<stop  offset="0.4554" style="stop-color:#DBD9C7"/>
				<stop  offset="0.6194" style="stop-color:#D4D8C8"/>
				<stop  offset="0.7363" style="stop-color:#C9D7C9"/>
				<stop  offset="0.8309" style="stop-color:#B8D5CB"/>
				<stop  offset="0.9118" style="stop-color:#A2D2CD"/>
				<stop  offset="0.9822" style="stop-color:#87CFD0"/>
				<stop  offset="1" style="stop-color:#7FCED1"/>
				<stop  offset="1" style="stop-color:#000000"/>
			</linearGradient>
			<path class="st11" d="M1363.8,596.3c1-3.6,1.6-7.4,1.6-11.4c0-0.9,0-1.8-0.1-2.8c10.6-7.2,17.6-19.4,17.6-33.2
				c0-22.2-18-40.2-40.2-40.2c-11.3,0-21.4,4.6-28.7,12.1c-7.4-11.4-20.2-19-34.8-19c-9.9,0-19,3.5-26.1,9.3
				c-10.4,5.9-17.4,17.1-17.4,29.9c0,1.7,0.1,3.4,0.4,5.1c-4.7-3.5-10.6-5.5-16.9-5.5c-4.2,0-8.3,0.9-11.9,2.6
				c-0.9-0.8-2.2-1.2-3.5-1.2c-3.1,0-5.5,2.5-5.5,5.5c0,0.7,0.1,1.3,0.3,1.8c-0.2,0.2-0.4,0.4-0.6,0.6
				c-3.9-10.8-14.3-18.6-26.4-18.6c-11,0-20.5,6.3-25.1,15.5c-3.5-13.4-15.7-23.3-30.2-23.3c-11.8,0-22.2,6.6-27.5,16.3
				c-0.5-0.9-1.1-1.7-1.7-2.5c2.1-4.3,3.2-9.1,3.2-14.1c0-17.9-14.5-32.4-32.4-32.4c-15.8,0-28.9,11.3-31.8,26.2
				c-13.3,3.5-23.1,15.6-23.1,29.9c0,17.1,13.8,30.9,30.9,30.9c1.4,0,2.8-0.1,4.2-0.3c-1.4,1.8-2.7,3.8-3.8,5.8
				c-2.8-0.7-5.8-1-8.8-1c-9.5,0-18.3,3.4-25,9.1c-19.3,2.9-34.1,19.6-34.1,39.8c0,10.2,3.8,19.5,10.1,26.6
				c-0.7,3.3-1.1,6.8-1.1,10.3c0,27.5,22.3,49.7,49.7,49.7c27.4,0,49.7-22.3,49.7-49.7c0-0.6,0-1.2,0-1.7c2.9-1.1,5.7-2.5,8.2-4.2
				c0,0.3,0,0.6,0,1c0,16.1,13.1,29.2,29.2,29.2c14.6,0,26.7-10.7,28.8-24.8c0.4,0,0.8,0,1.2,0c5.2,0,10.2-1,14.8-2.7
				c4.4,8.1,12.9,13.5,22.7,13.5c7.9,0,15-3.6,19.8-9.2c3.1,0.8,6.4,1.2,9.7,1.2c22.5,0,40.8-18.3,40.8-40.8c0-1.9-0.1-3.7-0.4-5.5
				c2.3-1.9,4.4-4.2,6.1-6.8c0.6-0.2,1.2-0.4,1.8-0.7c0.3,5.2,4.6,9.2,9.8,9.2c2.3,0,4.5-0.8,6.2-2.2c6.4,6.5,15.4,10.5,25.3,10.5
				c7.3,0,14-2.2,19.6-5.9c-0.6,2.1-0.9,4.3-0.9,6.6c0,13.8,11.2,25,25,25s25-11.2,25-25c0-2-0.2-4-0.7-5.8
				c3.9-3.9,6.3-9.3,6.3-15.3C1373.3,606.7,1369.5,600.2,1363.8,596.3z"/>
			<path class="st3" d="M1363.8,596.3c1-3.6,1.6-7.4,1.6-11.4c0-0.9,0-1.8-0.1-2.8c10.6-7.2,17.6-19.4,17.6-33.2
				c0-22.2-18-40.2-40.2-40.2c-11.3,0-21.4,4.6-28.7,12.1c-7.4-11.4-20.2-19-34.8-19c-9.9,0-19,3.5-26.1,9.3
				c-10.4,5.9-17.4,17.1-17.4,29.9c0,1.7,0.1,3.4,0.4,5.1c-4.7-3.5-10.6-5.5-16.9-5.5c-4.2,0-8.3,0.9-11.9,2.6
				c-0.9-0.8-2.2-1.2-3.5-1.2c-3.1,0-5.5,2.5-5.5,5.5c0,0.7,0.1,1.3,0.3,1.8c-0.2,0.2-0.4,0.4-0.6,0.6
				c-3.9-10.8-14.3-18.6-26.4-18.6c-11,0-20.5,6.3-25.1,15.5c-3.5-13.4-15.7-23.3-30.2-23.3c-11.8,0-22.2,6.6-27.5,16.3
				c-0.5-0.9-1.1-1.7-1.7-2.5c2.1-4.3,3.2-9.1,3.2-14.1c0-17.9-14.5-32.4-32.4-32.4c-15.8,0-28.9,11.3-31.8,26.2
				c-13.3,3.5-23.1,15.6-23.1,29.9c0,17.1,13.8,30.9,30.9,30.9c1.4,0,2.8-0.1,4.2-0.3c-1.4,1.8-2.7,3.8-3.8,5.8
				c-2.8-0.7-5.8-1-8.8-1c-9.5,0-18.3,3.4-25,9.1c-19.3,2.9-34.1,19.6-34.1,39.8c0,10.2,3.8,19.5,10.1,26.6
				c-0.7,3.3-1.1,6.8-1.1,10.3c0,27.5,22.3,49.7,49.7,49.7c27.4,0,49.7-22.3,49.7-49.7c0-0.6,0-1.2,0-1.7c2.9-1.1,5.7-2.5,8.2-4.2
				c0,0.3,0,0.6,0,1c0,16.1,13.1,29.2,29.2,29.2c14.6,0,26.7-10.7,28.8-24.8c0.4,0,0.8,0,1.2,0c5.2,0,10.2-1,14.8-2.7
				c4.4,8.1,12.9,13.5,22.7,13.5c7.9,0,15-3.6,19.8-9.2c3.1,0.8,6.4,1.2,9.7,1.2c22.5,0,40.8-18.3,40.8-40.8c0-1.9-0.1-3.7-0.4-5.5
				c2.3-1.9,4.4-4.2,6.1-6.8c0.6-0.2,1.2-0.4,1.8-0.7c0.3,5.2,4.6,9.2,9.8,9.2c2.3,0,4.5-0.8,6.2-2.2c6.4,6.5,15.4,10.5,25.3,10.5
				c7.3,0,14-2.2,19.6-5.9c-0.6,2.1-0.9,4.3-0.9,6.6c0,13.8,11.2,25,25,25s25-11.2,25-25c0-2-0.2-4-0.7-5.8
				c3.9-3.9,6.3-9.3,6.3-15.3C1373.3,606.7,1369.5,600.2,1363.8,596.3z"/>
		</g>
	</g>
	<g>
		
			<image style="overflow:visible;opacity:0.35;enable-background:new    ;" width="437" height="283" xlink:href="19523DCE.png"  transform="matrix(1 0 0 1 -200 435)">
		</image>
		<g>
			<path class="st3" d="M161.1,610.6c0-11.6-9.3-21-20.9-21c-2.8,0-5.4,0.5-7.8,1.5c-0.6-2.7-1.6-5.3-2.7-7.7c2.4-1.4,4-4,4-7
				c0-4.5-3.6-8.2-8.1-8.2c-2,0-3.8,0.7-5.2,1.9c-7.7-7.5-18.2-12.1-29.8-12.1c-1,0-1.9,0-2.9,0.1c0.9-2.8,1.4-5.8,1.4-9
				c0-15.5-12.4-28.1-27.8-28.1c-6.6,0-12.6,2.3-17.4,6.2c-4.1-1.2-8.5-1.8-13-1.8c-18,0-33.7,10.2-41.7,25.1
				c-4.2-2.4-8.7-4.2-13.5-5.3c-8.4-10.6-21.2-17.4-35.7-17.4c-25.2,0-45.6,20.6-45.6,46.1c0,1,0,2,0.1,3
				c-10.6,2.1-18.5,11.4-18.5,22.7c0,12.8,10.3,23.1,22.9,23.1c7.4,0,13.9-3.5,18.1-9c1.4,0.8,2.8,1.6,4.3,2.3
				c8.1,16,24.6,27,43.6,27c6.7,0,13.1-1.4,19-3.8c5.8,7.6,14.8,12.5,25,12.5c17.4,0,31.4-14.2,31.5-31.7c3.4-0.7,6.7-1.8,9.8-3.2
				c6.1,16.4,21.8,28.1,40.2,28.1c14.7,0,27.6-7.4,35.4-18.8c0.7,0.6,1.4,1.2,2.2,1.8c-1.6,1.4-2.7,3.4-2.7,5.8
				c0,4.2,3.3,7.5,7.4,7.5s7.4-3.4,7.4-7.5c0-0.7-0.1-1.3-0.3-1.9l0,0C151.8,631.7,161.1,622.3,161.1,610.6z"/>
			<linearGradient id="SVGID_6_" gradientUnits="userSpaceOnUse" x1="18.55" y1="651.7" x2="18.55" y2="521">
				<stop  offset="0" style="stop-color:#FFFFFF"/>
				<stop  offset="0.2947" style="stop-color:#FDFEFE"/>
				<stop  offset="0.4683" style="stop-color:#F4F9F9"/>
				<stop  offset="0.6105" style="stop-color:#E6F0F2"/>
				<stop  offset="0.7357" style="stop-color:#D2E5E7"/>
				<stop  offset="0.8497" style="stop-color:#B8D5D9"/>
				<stop  offset="0.9541" style="stop-color:#98C3C8"/>
				<stop  offset="1" style="stop-color:#88B9BF"/>
			</linearGradient>
			<path class="st12" d="M161.1,610.6c0-11.6-9.3-21-20.9-21c-2.8,0-5.4,0.5-7.8,1.5c-0.6-2.7-1.6-5.3-2.7-7.7c2.4-1.4,4-4,4-7
				c0-4.5-3.6-8.2-8.1-8.2c-2,0-3.8,0.7-5.2,1.9c-7.7-7.5-18.2-12.1-29.8-12.1c-1,0-1.9,0-2.9,0.1c0.9-2.8,1.4-5.8,1.4-9
				c0-15.5-12.4-28.1-27.8-28.1c-6.6,0-12.6,2.3-17.4,6.2c-4.1-1.2-8.5-1.8-13-1.8c-18,0-33.7,10.2-41.7,25.1
				c-4.2-2.4-8.7-4.2-13.5-5.3c-8.4-10.6-21.2-17.4-35.7-17.4c-25.2,0-45.6,20.6-45.6,46.1c0,1,0,2,0.1,3
				c-10.6,2.1-18.5,11.4-18.5,22.7c0,12.8,10.3,23.1,22.9,23.1c7.4,0,13.9-3.5,18.1-9c1.4,0.8,2.8,1.6,4.3,2.3
				c8.1,16,24.6,27,43.6,27c6.7,0,13.1-1.4,19-3.8c5.8,7.6,14.8,12.5,25,12.5c17.4,0,31.4-14.2,31.5-31.7c3.4-0.7,6.7-1.8,9.8-3.2
				c6.1,16.4,21.8,28.1,40.2,28.1c14.7,0,27.6-7.4,35.4-18.8c0.7,0.6,1.4,1.2,2.2,1.8c-1.6,1.4-2.7,3.4-2.7,5.8
				c0,4.2,3.3,7.5,7.4,7.5s7.4-3.4,7.4-7.5c0-0.7-0.1-1.3-0.3-1.9l0,0C151.8,631.7,161.1,622.3,161.1,610.6z"/>
		</g>
	</g>
	<g>
		
			<image style="overflow:visible;opacity:0.35;enable-background:new    ;" width="437" height="283" xlink:href="19523E10.png"  transform="matrix(1 0 0 1 700 567)">
		</image>
		<g>
			<linearGradient id="SVGID_7_" gradientUnits="userSpaceOnUse" x1="918.6499" y1="637" x2="918.6499" y2="767.7">
				<stop  offset="0.7333" style="stop-color:#FFFFFF"/>
				<stop  offset="0.9256" style="stop-color:#C8C7C8"/>
				<stop  offset="0.9588" style="stop-color:#C6C5C6"/>
				<stop  offset="0.9707" style="stop-color:#BFBEBF"/>
				<stop  offset="0.9792" style="stop-color:#B4B3B4"/>
				<stop  offset="0.9861" style="stop-color:#A3A2A3"/>
				<stop  offset="0.992" style="stop-color:#8D8C8D"/>
				<stop  offset="0.9971" style="stop-color:#727272"/>
				<stop  offset="1" style="stop-color:#5F5F5F"/>
			</linearGradient>
			<linearGradient id="SVGID_8_" gradientUnits="userSpaceOnUse" x1="918.6499" y1="768.2" x2="918.6499" y2="636.5">
				<stop  offset="0" style="stop-color:#FFFFFF"/>
				<stop  offset="0.5154" style="stop-color:#C8C7C8"/>
				<stop  offset="0.705" style="stop-color:#C6C5C6"/>
				<stop  offset="0.7733" style="stop-color:#BFBEBF"/>
				<stop  offset="0.822" style="stop-color:#B4B3B4"/>
				<stop  offset="0.8614" style="stop-color:#A3A2A3"/>
				<stop  offset="0.8952" style="stop-color:#8D8C8D"/>
				<stop  offset="0.925" style="stop-color:#717171"/>
				<stop  offset="0.952" style="stop-color:#515151"/>
				<stop  offset="0.9761" style="stop-color:#2D2C2D"/>
				<stop  offset="0.9983" style="stop-color:#040404"/>
				<stop  offset="1" style="stop-color:#000000"/>
			</linearGradient>
			<path class="st13" d="M1061.1,726.6c0-11.6-9.3-21-20.8-21c-2.8,0-5.4,0.5-7.8,1.5c-0.7-2.7-1.6-5.3-2.7-7.7c2.4-1.4,4-4,4-7
				c0-4.5-3.6-8.2-8.1-8.2c-2,0-3.8,0.7-5.2,1.9c-7.7-7.5-18.2-12.1-29.8-12.1c-1,0-1.9,0-2.9,0.1c0.9-2.8,1.5-5.8,1.5-9
				c0-15.5-12.5-28.1-27.8-28.1c-6.6,0-12.6,2.3-17.4,6.2c-4.1-1.2-8.5-1.8-13-1.8c-18,0-33.7,10.2-41.7,25.1
				c-4.2-2.4-8.7-4.2-13.5-5.3c-8.4-10.6-21.2-17.4-35.7-17.4c-25.2,0-45.6,20.6-45.6,46.1c0,1,0,2,0.1,3
				c-10.5,2.1-18.5,11.4-18.5,22.7c0,12.8,10.3,23.1,22.9,23.1c7.4,0,13.9-3.5,18.1-9c1.4,0.8,2.8,1.6,4.3,2.3
				c8.1,16,24.6,27,43.6,27c6.7,0,13.2-1.4,19-3.8c5.8,7.6,14.8,12.5,25,12.5c17.3,0,31.4-14.2,31.5-31.7c3.4-0.7,6.7-1.8,9.8-3.2
				c6.1,16.4,21.8,28.1,40.2,28.1c14.7,0,27.6-7.4,35.4-18.8c0.7,0.6,1.4,1.2,2.2,1.8c-1.6,1.4-2.7,3.4-2.7,5.8
				c0,4.2,3.3,7.5,7.4,7.5s7.4-3.4,7.4-7.5c0-0.7-0.1-1.3-0.3-1.9l0,0C1051.8,747.7,1061.1,738.3,1061.1,726.6z"/>
			<path class="st3" d="M909.1,768.7c17.3,0,31.4-14.2,31.5-31.7c3.4-0.7,6.7-1.8,9.8-3.2c6.1,16.4,21.8,28.1,40.2,28.1
				c14.7,0,27.6-7.4,35.4-18.8c0.7,0.6,1.4,1.2,2.2,1.8c-1.6,1.4-2.7,3.4-2.7,5.8c0,4.2,3.3,7.5,7.4,7.5s7.4-3.4,7.4-7.5
				c0-0.7-0.1-1.3-0.3-1.9l0,0c11.8-0.1,21.1-9.5,21.1-21.2c0-11.6-9.3-21-20.8-21c-2.8,0-5.4,0.5-7.8,1.5c-0.7-2.7-1.6-5.3-2.7-7.7
				c2.4-1.4,4-4,4-7c0-4.5-3.6-8.2-8.1-8.2c-2,0-3.8,0.7-5.2,1.9c-7.7-7.5-18.2-12.1-29.8-12.1c-1,0-1.9,0-2.9,0.1
				c0.9-2.8,1.5-5.8,1.5-9c0-15.5-12.5-28.1-27.8-28.1c-6.6,0-12.6,2.3-17.4,6.2c-4.1-1.2-8.5-1.8-13-1.8c-18,0-33.7,10.2-41.7,25.1
				c-4.2-2.4-8.7-4.2-13.5-5.3c-8.4-10.6-21.2-17.4-35.7-17.4c-25.2,0-45.6,20.6-45.6,46.1c0,1,0,2,0.1,3
				c-10.5,2.1-18.5,11.4-18.5,22.7c0,12.8,10.3,23.1,22.9,23.1c7.4,0,13.9-3.5,18.1-9c1.4,0.8,2.8,1.6,4.3,2.3
				c8.1,16,24.6,27,43.6,27c6.7,0,13.2-1.4,19-3.8"/>
		</g>
	</g>
	<g>
		
			<image style="overflow:visible;opacity:0.35;enable-background:new    ;" width="245" height="460" xlink:href="19523E11.png"  transform="matrix(1 0 0 1 438 147)">
		</image>
		<g>
			<g>
				<path class="st4" d="M593.4,412v48.4l0.3,0.2c2.4,2,4.8,3.9,7.3,5.7v-57.1l-0.3,0.1C598.4,410.6,596,411.4,593.4,412z"/>
				<path class="st4" d="M588.3,455.7c1.4,1.4,2.9,2.8,4.3,4v-47.6c-1.5,0.3-3.1,0.5-4.6,0.6v42.7
					C588.1,455.5,588.2,455.6,588.3,455.7z"/>
				<path class="st4" d="M593.4,375.3V398l5.5,0.6l2.1,10.7v-38.5C599.2,372.3,596.6,374.2,593.4,375.3z"/>
				<path class="st4" d="M592.7,375.6c-1.4,0.5-3,0.8-4.6,0.9v20.9l4.6,0.5V375.6z"/>
				<path class="st4" d="M572.2,386.8c-0.2,2,0.8,4.4,2.7,6.3v-10.9C573.2,383.5,572.3,385,572.2,386.8z"/>
				<path class="st4" d="M570.5,433.5c0.1,0.2,0.2,0.4,0.3,0.5c1.3,2,2.7,3.9,4,5.8v-29.2c-1.6-0.6-3.1-1.4-4.5-2.2L570.5,433.5z"/>
				<path class="st4" d="M550.5,375.1c1.5,0.3,3.1,0.6,4.7,1.2l0.6-55.9c-1.9,0.6-3.8,1.3-5.7,2.2L550.5,375.1z"/>
				<path class="st4" d="M563.8,404.6c-2.7,0-5.4-0.4-8.1-1v8.1c0.1,0.1,0.2,0.2,0.3,0.3c3,3.2,6,7.9,9.3,13.4
					c1.5,2.4,2.9,4.7,4.4,7l-0.1-24.3c-1.4-0.9-3-2.1-4.5-3.4C564.6,404.6,564.2,404.6,563.8,404.6z"/>
				<path class="st4" d="M575.6,381.8V394c1.4,1.2,3.2,2.2,5.3,2.7l6.3,0.7v-20.8c-0.1,0-0.2,0-0.2,0c-0.3,0-0.5,0-0.7,0
					c-4-0.2-8.1-1.7-10.7-4v5.9c2.7,0.3,5.5,1,8.1,2.2l-0.3,0.7C580.7,380.5,577.8,380.6,575.6,381.8z"/>
				<path class="st4" d="M575.6,410.9v30c0.1,0.1,0.2,0.3,0.3,0.5c3.5,4.7,7,8.8,10.7,12.6c0.2,0.2,0.4,0.4,0.6,0.6l0,0v-41.8
					c-0.3,0-0.6,0-0.9,0C582.7,412.8,579,412.2,575.6,410.9z"/>
				<path class="st4" d="M520.5,390.6v149.3h8.9c0-18.3,0-36.7,0-55l-0.3,1l0.3-6.9c0-27.5,0-55.1,0-82.7c-1.5-0.6-2.9-1.3-4.2-2.1
					C523.8,393.3,522.1,392.1,520.5,390.6z"/>
				<path class="st4" d="M555.6,461.9v28.8l13.2-10.3h-0.1v-0.3c0.2-6.7-0.3-23.9-9.8-39.3c-1-1.6-2.1-3.2-3.3-4.7v13.6
					c7.7,9.3,9.7,24.8,10.2,29.6l-0.8,0.1C563,471.4,559.6,465.2,555.6,461.9z"/>
				<path class="st4" d="M550.8,445.2c1.1,0.7,2.2,1.6,3.3,2.7c0.3,0.3,0.5,0.5,0.7,0.8V435c-0.1-0.1-0.2-0.3-0.3-0.4
					c-1.2-1.4-2.4-2.7-3.7-3.9V445.2L550.8,445.2z"/>
				<path class="st4" d="M569.4,319.3c-4.5-0.5-9-0.1-13.3,1.1l-0.3,56.1c0.7,0.3,1.5,0.6,2.2,0.9l-0.3,0.7
					c-0.7-0.2-1.3-0.4-1.9-0.5l-0.1,12.8c0.2,0,0.3,0.1,0.5,0.1l0.7,0.1c0-0.6,0-1.2,0.1-1.8c0.6-3.3,2.8-6.3,6.3-8.2
					c1.9-1,4-1.7,6.2-2.1v-22.3c0-0.1-0.1-0.1-0.1-0.2c-0.6-1.2-0.5-2.6,0.1-4.1L569.4,319.3z"/>
				<path class="st4" d="M553.5,460.4c-0.9-0.5-1.8-0.9-2.7-1.1v35.1l4-3.1v-30C554.4,460.9,553.9,460.6,553.5,460.4z"/>
				<path class="st4" d="M587.2,326.7c-3.2-2.6-7-4.8-11.7-6.2v24.3c2.8-2.3,6.4-4.6,10.8-6.8l0.9-0.5V326.7z"/>
				<path class="st4" d="M574.8,356c-0.3,0.9-0.7,1.8-0.9,2.6c0.3,0.1,0.6,0.2,0.9,0.3V356z"/>
				<path class="st4" d="M569.8,356.8l0.2,21.7c1.5-0.2,3.1-0.2,4.8-0.1v-6.6c-2.8-3-3.3-7.5-1.9-12.8
					C571.6,358.4,570.5,357.7,569.8,356.8z"/>
				<path class="st4" d="M575.6,359.1c2.6,0.6,5.7,0.8,8.2,0c1.2-0.4,2.3-0.9,3.4-1.5v-19.5l-0.4,0.4c-5.1,5.2-8.9,10.6-11.2,15.6
					V359.1z"/>
				<path class="st4" d="M569.5,319.3l0.3,32c0.9-1.8,2.6-3.8,5-5.8v-25.2c-0.9-0.3-1.8-0.5-2.7-0.6
					C571.2,319.5,570.4,319.4,569.5,319.3z"/>
				<path class="st4" d="M550.6,387.5c1.2,1.1,2.7,2.1,4.4,2.7l0.1-12.7c-1.7-0.2-3.3,0-4.6,0.6L550.6,387.5z"/>
				<polygon class="st4" points="605,492.6 605.1,492.6 605.1,492.2 605,492.3 				"/>
				<path class="st4" d="M530.3,243.4v125.8c2.2,0.3,4.4,0.9,6.6,1.9l-0.3,0.7c-2.2-0.8-4.5-0.7-6.3,0.1v10.4c1,0.9,2.3,1.6,3.8,2
					c0-0.5,0-1,0-1.5c0.3-2.5,1.9-4.6,4.4-6.1c3.1-1.8,7.1-2.3,11.4-1.7v-52.3c-6.5,3.2-12.3,8.3-16.4,15l-1.6,2.6l0.9-2.9
					c1.3-4.1,5.8-16.2,17.2-24.9v-13.2l-0.1-18c-0.1,0.3-0.2,0.5-0.4,0.5l-0.2,0.1l-0.2-0.1c-1.1-0.5-0.8-13.3,0.2-18.2
					c0.2-1,0.4-1.8,0.7-2.3v-4.7l1.1,3.8c0,0,0,0,0.1,0c0.8,0,1.6,0.9,2.5,3.2c2,4.8,4.6,16.5,3.3,17.5c-0.1,0.1-0.3,0.1-0.5,0.1
					c-0.1,0-0.1,0-0.2-0.1l-0.1,27.5c0.8-0.4,1.6-0.8,2.5-1.2c3.7-1.7,7.3-2.7,10.8-3.2v-11.4v-1.3c-0.1,0.2-0.2,0.3-0.3,0.4
					L569,292h-0.2c-1.2-0.4-0.3-9.3-0.1-10.6c0.2-1.7,0.5-2.9,0.8-3.8v-2l0.4,0.9c0.6-1.2,1.2-1.3,1.4-1.3c1.1-0.1,2.4,1.7,3.6,5.3
					c1,2.8,2.9,10,1.6,10.7c-0.3,0.2-0.5,0.1-0.8-0.1v12.7c4.3,0,8.2,0.6,11.7,1.4v-3.7c-0.1,0.2-0.2,0.4-0.4,0.5l-0.2,0.1h-0.2
					c-1.2-0.4-0.3-9.3-0.1-10.6c0.3-1.8,0.5-3.1,0.8-4v-2.4l0.6,1.1c0.5-0.9,1-0.9,1.2-1c0.1,0,0.2,0,0.3,0
					c-19.8-17.5-48.5-37.5-51.5-38.8C535.3,245.3,532.8,244.3,530.3,243.4z"/>
				<path class="st4" d="M574.8,303.7v-13.5c-0.1-0.1-0.2-0.2-0.3-0.4c-0.3-0.3-0.5-0.7-0.8-1l-2.8-0.7c-0.6,0.6-1,1.8-1.2,2.5
					c-0.1,0.3-0.2,0.6-0.3,0.8v1.3l0.1,11.4C571.3,303.9,573,303.7,574.8,303.7z"/>
				<path class="st4" d="M556,308.7l0.3-27.6c-0.4-0.2-0.7-0.7-1.3-1.7c-0.3-0.5-0.7-1.1-1.1-1.6l-2.1-1.2c-0.9,0.5-1.4,2.6-1.7,3.8
					c0,0.2-0.1,0.3-0.1,0.5v18.5l0.1,13.1C551.8,311.1,553.8,309.8,556,308.7z"/>
				<path class="st4" d="M527.1,376.3c-0.1,1.7,0.8,3.8,2.4,5.4c0-3.1,0-6.2,0-9.2c0,0-0.1,0.1-0.2,0.1
					C528,373.5,527.2,374.8,527.1,376.3z"/>
				<path class="st4" d="M537.8,235.8c-5.5-2.3-9.7-2.7-12.6-1c-2.4,1.3-4,4.1-4.7,8.1v127.5c2.6-1.2,5.7-1.6,8.9-1.3
					c0-31.6,0-63.1,0-94.7c0-10.7,0-21.4,0-32.1c0.2,0.1,0.4,0.1,0.5,0.2c2.7,0.9,5.5,2,8.2,3.1c4.6,1.9,7.4,4.6,8.5,5.4
					c14.6,11.7,28.1,17.9,48.2,38c2.3,2.3,6,6,10.2,10.9v-7.1C574.4,260.9,551.9,241.8,537.8,235.8z"/>
				<path class="st4" d="M590.9,286.5c0.6,0.9,1.2,2.2,1.8,3.8c1,2.8,2.9,10,1.6,10.7c-0.3,0.2-0.6,0.1-0.9-0.1v6.2
					c3.5,1.4,6.2,2.9,7.6,3.8v-12.4h0.8v12.9l0.1,0.1l0.2,0.1l-0.3,8.1v12.4l0.5-2.5l1.3,38.7l-0.1,0.1c-0.2,0.2-0.8,0.9-1.7,1.7
					v96.8c0.8,0.6,1.7,1.1,2.5,1.7l0.2,0.1l0.4,22.4h0.1v-190c-2.3-3.1-5.9-7.1-10.8-11.7C593.2,288.6,592.1,287.5,590.9,286.5z"/>
				<path class="st4" d="M604.4,492.6L531.5,536v-26.5l18.5-14.4v-35.9c-1.3-0.2-2.5-0.1-3.8,0.2c-9.8,2.5-15,19.3-15.9,22.5v57.8
					l74.5-46.8L604.4,492.6L604.4,492.6z"/>
				<path class="st4" d="M588,357.1c1.7-1.1,3.3-2.6,4.6-4.3V332c-1.3-1.6-2.9-3.2-4.6-4.7v9.7l0.5-0.3l-0.5,0.5V357.1z"/>
				<path class="st4" d="M593.4,333v18.8c2.4-3.2,4.2-6.9,5.5-10.2C597.9,339.5,596.1,336.3,593.4,333z"/>
				<path class="st4" d="M530.3,396.6v61.6l0.3-8.4v-0.1l0.1-0.1c0.6-0.6,6-6.4,12.8-6.5c2.2,0,4.4,0.5,6.4,1.6v-14.8
					c-0.1-0.1-0.2-0.2-0.3-0.3c-7.7-6.7-15.3-8.5-18.2-8.9l-0.6-0.1l0.3-0.5c5.3-8.5,10.6-12.8,15.7-12.9c0.2,0,0.3,0,0.5,0
					c0.9,0,1.7,0.2,2.6,0.5v-6.3c-1.1-0.5-2.2-1.1-3.3-1.8c-0.8-0.5-1.8-1.1-2.7-1.8c-1.5,0.2-2.9,0.4-4.4,0.4
					C536.4,398.3,533.3,397.7,530.3,396.6z"/>
				<path class="st4" d="M550.9,408.1c1.3,0.6,2.6,1.4,3.9,2.6l0.1-7.5c-1.4-0.4-2.8-0.9-4.2-1.5v6.2
					C550.8,408.1,550.9,408.1,550.9,408.1z"/>
				<path class="st4" d="M547.8,381.9c0,1.3,0.6,2.9,1.7,4.3l0.5,0.1v0.1v-8c-0.1,0.1-0.2,0.1-0.3,0.2
					C548.5,379.4,547.8,380.6,547.8,381.9z"/>
				<path class="st4" d="M592.7,300.1c-0.1-0.1-0.2-0.2-0.3-0.3c-0.8-1-1.9-2.4-3-2.2c-0.6,0.1-1.1,0.9-1.5,1.7v6
					c1.7,0.5,3.2,1,4.7,1.5L592.7,300.1L592.7,300.1z"/>
				<polygon class="st5" points="532.3,534.6 604.1,491.9 604.1,491.9 604.1,491.7 569.2,481.3 569.3,481 532.3,509.8 				"/>
				<path class="st5" d="M593.2,461.2l-0.3-0.3c-0.2-0.1-0.3-0.3-0.5-0.4c-1.5-1.3-3.1-2.8-4.6-4.3c-0.2-0.2-0.4-0.4-0.6-0.6
					l-0.5-0.5c-0.2-0.2-0.4-0.4-0.6-0.6c-3.8-3.9-7.3-8-10.7-12.7c-0.3-0.4-0.5-0.7-0.8-1.1c-1.5-2-2.9-4-4.3-6.3
					c-0.3-0.4-0.5-0.8-0.8-1.2c-1.7-2.5-3.1-4.9-4.8-7.6c-3.3-5.4-6.3-10.1-9.2-13.2c-0.3-0.3-0.5-0.5-0.8-0.8
					c-1.3-1.3-2.6-2.2-3.9-2.8c-0.3-0.1-0.5-0.2-0.8-0.3c-0.8-0.3-1.7-0.4-2.5-0.5c-0.1,0-0.3,0-0.4,0c-4.8,0.1-9.7,4.1-14.8,12
					c3.3,0.6,10.7,2.6,18,9c0.3,0.2,0.5,0.5,0.8,0.7c1.4,1.3,2.8,2.7,4.1,4.3c0.3,0.3,0.5,0.6,0.8,1c1.3,1.6,2.5,3.4,3.7,5.2
					c9.5,15.4,10.2,32.5,10,39.5l0.8,0.3l-0.7,0.5l34.4,10.3l-0.4-21.8C600.1,466.8,596.6,464.1,593.2,461.2z"/>
				<path class="st5" d="M543.2,397.3c-4.1-3.2-8.2-7.8-9-12.1c-4.5-1.1-8.1-5.2-7.8-9c0.1-1.7,1-3.3,2.5-4.3
					c1.2-0.8,2.6-1.3,4.2-1.3c-4.8-1.3-9.7-1-13.4,1.1c-2.7,1.5-4.4,3.8-4.8,6.3c-1,6,5.9,12.6,10.8,15.6
					C530.8,396.8,537.1,398.1,543.2,397.3z"/>
				<path class="st6" d="M605.9,491.6V301v-8.5l-0.1-0.1c-32.4-33.9-55.4-53.1-69.5-58.1c-4.8-1.7-8.7-1.8-11.5-0.2
					c-2.6,1.5-4.3,4.4-5.1,8.7v0.1v127.9c-0.1,0.1-0.3,0.1-0.4,0.2c-2.9,1.6-4.8,4-5.2,6.8c-0.7,4.1,2.1,8.6,5.6,12v150.9h9.8v0.3
					l0.7-0.4l75.8-46.9V493v-1.2l0.1-0.1L605.9,491.6z M529.5,479l-0.3,6.9l0.3-1c0,18.3,0,36.7,0,55h-8.9V390.6
					c1.6,1.5,3.3,2.7,4.7,3.6c1.3,0.8,2.8,1.5,4.2,2.1C529.5,423.9,529.5,451.4,529.5,479z M525.6,393.6c-4.9-3-11.8-9.7-10.8-15.6
					c0.4-2.5,2.1-4.8,4.8-6.3c3.7-2.1,8.5-2.5,13.4-1.1c-1.5,0.1-3,0.5-4.2,1.3c-1.5,1.1-2.4,2.6-2.5,4.3c-0.2,3.8,3.3,7.8,7.8,9
					c0.8,4.3,4.9,8.9,9,12.1C537.1,398.1,530.8,396.8,525.6,393.6z M569.3,481l-0.1,0.3l35,10.5v0.1l0,0l-71.8,42.7v-24.8L569.3,481
					z M550.8,494.4v-35.1c0.9,0.2,1.8,0.6,2.7,1.1c0.5,0.3,0.9,0.6,1.3,0.9v30L550.8,494.4z M555.6,449.5V436
					c1.2,1.5,2.3,3.1,3.3,4.7c9.5,15.4,10,32.6,9.8,39.3v0.3h0.1l-13.2,10.3v-28.8c4,3.4,7.4,9.5,9.4,17.4l0.8-0.1
					C565.3,474.4,563.3,458.9,555.6,449.5z M569.7,480.6l0.7-0.5l-0.8-0.3c0.2-7-0.5-24.1-10-39.5c-1.1-1.8-2.4-3.6-3.7-5.2
					c-0.3-0.3-0.5-0.7-0.8-1c-1.3-1.5-2.7-3-4.1-4.3c-0.3-0.3-0.5-0.5-0.8-0.7c-7.4-6.4-14.7-8.4-18-9c5-7.9,10-12,14.8-12
					c0.1,0,0.3,0,0.4,0c0.8,0,1.6,0.2,2.5,0.5c0.3,0.1,0.5,0.2,0.8,0.3c1.3,0.6,2.6,1.5,3.9,2.8c0.3,0.3,0.5,0.5,0.8,0.8
					c3,3.2,5.9,7.8,9.2,13.2c1.6,2.6,3.1,5,4.8,7.6c0.3,0.4,0.5,0.8,0.8,1.2c1.5,2.2,2.9,4.3,4.3,6.3c0.3,0.4,0.5,0.7,0.8,1.1
					c3.5,4.7,7,8.8,10.7,12.7c0.2,0.2,0.4,0.4,0.6,0.6l0.5,0.5c0.2,0.2,0.4,0.4,0.6,0.6c1.5,1.5,3.1,3,4.6,4.3
					c0.2,0.1,0.3,0.3,0.5,0.4l0.3,0.3c3.4,2.9,7,5.6,10.5,7.9L604,491L569.7,480.6z M554.8,435v13.6c-0.2-0.3-0.5-0.5-0.7-0.8
					c-1.1-1.1-2.2-2-3.3-2.7v-14.5c1.3,1.2,2.5,2.5,3.7,3.9C554.6,434.7,554.7,434.9,554.8,435z M569.4,356.1c0,0.1,0.1,0.1,0.1,0.2
					v22.3c-2.2,0.4-4.3,1-6.2,2.1c-3.5,2-5.8,4.9-6.3,8.2c-0.1,0.6-0.1,1.2-0.1,1.8l-0.7-0.1c-0.2,0-0.3-0.1-0.5-0.1l0.1-12.8
					c0.6,0.1,1.3,0.3,1.9,0.5l0.3-0.7c-0.7-0.3-1.5-0.6-2.2-0.9l0.3-56.1c4.3-1.2,8.8-1.6,13.3-1.1l0.1,32.8
					C568.8,353.5,568.8,354.9,569.4,356.1z M586.3,338c-4.3,2.2-7.9,4.5-10.8,6.8v-24.3c4.6,1.4,8.5,3.6,11.7,6.2v10.8L586.3,338z
					 M587.2,338.2v19.5c-1.1,0.6-2.2,1.1-3.4,1.5c-2.5,0.7-5.6,0.6-8.2,0v-4.9c2.3-5,6.1-10.4,11.2-15.6L587.2,338.2z M584.6,339.8
					c-5.9,6.4-9.8,12.8-11.5,18.4c-1.4-0.6-2.5-1.5-3-2.5C568.3,352,574.1,345.6,584.6,339.8z M574.8,356v2.9
					c-0.3-0.1-0.6-0.2-0.9-0.3C574.1,357.7,574.5,356.9,574.8,356z M574.8,371.8v6.6c-1.6-0.1-3.2-0.1-4.8,0.1l-0.2-21.7
					c0.7,0.9,1.7,1.6,3,2.2C571.5,364.2,572,368.7,574.8,371.8z M574.8,345.5c-2.4,2-4.1,4-5,5.8l-0.3-32c0.8,0.1,1.7,0.2,2.5,0.4
					c0.9,0.2,1.8,0.4,2.7,0.6L574.8,345.5L574.8,345.5z M579.7,380c-1.9,0-3.8,0.6-5.3,1.6c-1.8,1.3-2.9,3.1-3.1,5.2
					c-0.3,4.6,4,9.4,9.4,10.6l17.5,1.9l1.9,9.6c-9.6,4.7-21,4.2-29.9-1.3c-5.7-3.5-13.7-11.4-12.5-18.5c0.5-3.1,2.6-5.8,5.9-7.7
					C568.2,378.8,574,378.4,579.7,380z M575.6,378.5v-5.9c2.5,2.3,6.6,3.8,10.7,4c0.3,0,0.5,0,0.7,0c0.1,0,0.2,0,0.2,0v20.8
					l-6.3-0.7c-2.1-0.5-3.9-1.4-5.3-2.7v-12.1c2.2-1.2,5.1-1.4,7.9-0.4l0.3-0.7C581,379.5,578.3,378.8,575.6,378.5z M574.8,382.3
					v10.9c-1.8-1.9-2.8-4.3-2.7-6.3C572.3,385,573.2,383.5,574.8,382.3z M588,376.5c1.6-0.1,3.2-0.4,4.6-0.9v22.3l-4.6-0.5V376.5z
					 M598.9,398.6l-5.5-0.6v-22.6c3.2-1.2,5.8-3,7.6-4.5v38.5v57.1c-2.5-1.8-4.9-3.7-7.3-5.7l-0.3-0.2v-48.4c2.5-0.6,5-1.4,7.3-2.6
					l0.3-0.1L598.9,398.6z M592.7,412.2v47.6c-1.4-1.3-2.9-2.6-4.3-4c-0.1-0.1-0.2-0.2-0.3-0.3v-42.7
					C589.6,412.7,591.1,412.5,592.7,412.2z M587.2,412.8v41.8l0,0c-0.2-0.2-0.4-0.4-0.6-0.6c-3.7-3.8-7.2-8-10.7-12.6
					c-0.1-0.1-0.2-0.3-0.3-0.5v-30c3.4,1.2,7.1,1.9,10.8,1.9C586.7,412.8,586.9,412.8,587.2,412.8z M574.8,410.6v29.2
					c-1.3-1.8-2.6-3.7-4-5.8c-0.1-0.2-0.2-0.4-0.3-0.5l-0.2-25.1C571.7,409.3,573.2,410,574.8,410.6z M569.7,432.3
					c-1.5-2.3-2.9-4.6-4.4-7c-3.4-5.4-6.3-10.1-9.3-13.4c-0.1-0.1-0.2-0.2-0.3-0.3v-8.1c2.7,0.7,5.4,1,8.1,1c0.5,0,0.9,0,1.3,0
					c1.5,1.4,3.1,2.5,4.5,3.4L569.7,432.3z M555.2,376.3c-1.6-0.5-3.1-0.9-4.7-1.2l-0.4-52.5c1.8-0.9,3.7-1.6,5.7-2.2L555.2,376.3z
					 M555.2,377.5l-0.1,12.7c-1.7-0.6-3.2-1.6-4.4-2.7l-0.1-9.5C551.9,377.5,553.5,377.3,555.2,377.5z M553.8,376.6L553.8,376.6
					c-1.8,0-3.4,0.5-4.6,1.3c-1.4,1-2.1,2.4-2.2,4c-0.1,3.8,4,8.1,9,9.4l0.9,0.1c0.5,4.4,3.7,8.9,7.3,12.3c-5.9,0.1-12-1.5-17.3-4.7
					c-5.1-3.1-13-10.3-12.2-16.1c0.3-2.2,1.7-4.2,4.1-5.5C542,375.6,547.3,374.7,553.8,376.6z M550,378.4v8v-0.1l-0.5-0.1
					c-1.1-1.4-1.7-3-1.7-4.3s0.7-2.5,1.9-3.4C549.7,378.5,549.8,378.5,550,378.4z M554.9,403.3l-0.1,7.5c-1.3-1.2-2.6-2.1-3.9-2.6
					c-0.1,0-0.1,0-0.2-0.1v-6.2C552.1,402.4,553.5,402.9,554.9,403.3z M546.7,399.7c1.1,0.7,2.2,1.2,3.3,1.8v6.3
					c-0.9-0.3-1.7-0.4-2.6-0.5c-0.2,0-0.3,0-0.5,0c-5.2,0.1-10.5,4.4-15.7,12.9l-0.3,0.5l0.6,0.1c2.9,0.5,10.5,2.2,18.2,8.9
					c0.1,0.1,0.2,0.2,0.3,0.3v14.8c-2-1.1-4.2-1.7-6.4-1.6c-6.9,0.1-12.3,5.9-12.8,6.5l-0.1,0.1v0.1l-0.3,8.4v-61.6
					c3,1.1,6.1,1.6,9.3,1.6c1.5,0,3-0.1,4.4-0.4C544.9,398.6,545.8,399.2,546.7,399.7z M587,375.8c-0.2,0-0.5,0-0.7,0
					c-4.1-0.2-8.3-1.8-10.6-4.2c-2.8-2.8-3.3-7.1-2-12.2c3.2,1.2,7.3,1.4,10.4,0.5c10.7-3,15.9-17.8,17.7-24l1,32.2
					C601.7,369.3,595.4,375.8,587,375.8z M588,337.1v-9.7c1.8,1.5,3.3,3.1,4.6,4.7v20.8c-1.4,1.7-2.9,3.1-4.6,4.3v-19.8l0.5-0.5
					L588,337.1z M593.4,333c2.7,3.3,4.5,6.5,5.5,8.6c-1.3,3.3-3.1,7-5.5,10.2V333z M600.3,337.8c-0.3,0.9-0.6,1.8-1,2.8
					c-3.2-6.1-11.4-18.8-27.1-21.7c-14.2-2.7-28.6,3.5-37.6,15.8c2.5-6.4,9.4-19.9,24.3-26.6c21-9.4,39.6,2,42.4,3.9L600.3,337.8z
					 M588,299.3c0.3-0.8,0.8-1.5,1.5-1.7c1-0.2,2.1,1.2,3,2.2c0.1,0.1,0.2,0.2,0.3,0.3v6.7c-1.4-0.5-3-1-4.7-1.5L588,299.3z
					 M589.3,296.9c-1.4,0.3-2.1,2.1-2.5,3.4c-0.2-2.9,0.2-11.3,1.7-13.9c0.2-0.4,0.4-0.6,0.6-0.6l0,0c0.1,0,0.5,0.1,1.2,1.2
					c2.2,3.6,3.9,11.9,3.6,13.3c-0.2-0.2-0.6-0.6-0.8-0.9C592.1,298.2,590.8,296.6,589.3,296.9z M589,285.1c-0.2,0-0.7,0.1-1.2,1
					l-0.6-1.1v2.4c-0.3,0.9-0.6,2.2-0.8,4c-0.2,1.3-1.1,10.2,0.1,10.6h0.2l0.2-0.1c0.2-0.1,0.3-0.2,0.4-0.5v3.7
					c-3.5-0.9-7.4-1.5-11.7-1.4V291c0.3,0.2,0.5,0.3,0.8,0.1c1.3-0.8-0.6-7.9-1.6-10.7c-1.3-3.6-2.5-5.4-3.6-5.3
					c-0.3,0-0.8,0.1-1.4,1.3l-0.4-0.9v2c-0.3,0.9-0.6,2.1-0.8,3.8c-0.2,1.3-1.1,10.2,0.1,10.6h0.2l0.2-0.1c0.2-0.1,0.3-0.2,0.3-0.4
					v1.3v-1.3c0.1-0.2,0.2-0.4,0.3-0.8c0.3-0.8,0.6-1.9,1.2-2.5l2.8,0.7c0.3,0.3,0.6,0.7,0.8,1c0.1,0.1,0.2,0.2,0.3,0.4v13.5
					c-1.7,0-3.5,0.2-5.4,0.5l-0.1-11.4v11.4c-3.5,0.5-7.1,1.6-10.8,3.2c-0.8,0.4-1.7,0.8-2.5,1.2l0.1-27.5c0.1,0,0.1,0,0.2,0.1
					c0.2,0,0.3,0,0.5-0.1c1.3-1-1.3-12.7-3.3-17.5c-0.9-2.2-1.7-3.2-2.5-3.2c0,0,0,0-0.1,0l-1.1-3.8v4.7c-0.3,0.5-0.5,1.3-0.7,2.3
					c-1,4.9-1.3,17.7-0.2,18.2l0.2,0.1l0.2-0.1c0.2-0.1,0.3-0.2,0.4-0.5l0.1,18v-18.5c0-0.1,0.1-0.3,0.1-0.5
					c0.3-1.2,0.8-3.3,1.7-3.8l2.1,1.2c0.4,0.5,0.8,1.1,1.1,1.6c0.6,1,1,1.5,1.3,1.7l-0.3,27.6c-2.1,1.1-4.1,2.4-5.9,3.8l-0.1-13.1
					v13.2c-11.4,8.7-15.9,20.8-17.2,24.9l-0.9,2.9l1.6-2.6c4.2-6.7,9.9-11.8,16.4-15V375c-4.3-0.6-8.4,0-11.4,1.7
					c-2.5,1.5-4.1,3.6-4.4,6.1c-0.1,0.5-0.1,1,0,1.5c-1.5-0.4-2.8-1.1-3.8-2V372c1.8-0.8,4.1-0.9,6.3-0.1l0.3-0.7
					c-2.2-1-4.4-1.6-6.6-1.9V243.4c2.5,0.9,5.1,1.9,7.6,2.9c3,1.3,31.7,21.3,51.5,38.8C589.2,285.1,589.1,285,589,285.1z
					 M575.2,289.4c-1-1.2-2.3-2.8-3.8-2.5c-1.4,0.3-2.1,2.1-2.5,3.4c-0.2-2.9,0.2-11.3,1.7-13.9c0.2-0.4,0.4-0.6,0.6-0.6l0,0
					c0.1,0,0.5,0.1,1.2,1.2c2.2,3.6,3.9,11.9,3.6,13.3C575.8,290.1,575.4,289.7,575.2,289.4z M555.6,279.1c-1-1.6-2.4-3.6-3.9-3.3
					c-1.4,0.3-2,2.6-2.4,4.2c-0.3-4-0.2-15.6,1.4-18.4c0.2-0.3,0.3-0.4,0.4-0.4l0,0c0.1,0,0.4,0.2,0.8,0.8
					c2.4,3.7,4.9,16.1,4.5,18.3C556.2,280,555.9,279.5,555.6,279.1z M529.5,372.4c0,3.1,0,6.2,0,9.2c-1.6-1.6-2.5-3.7-2.4-5.4
					c0.1-1.5,0.9-2.8,2.2-3.7C529.3,372.5,529.4,372.5,529.5,372.4z M531.4,450c0.9-1,5.9-6,12.2-6.2c3.5-0.1,6.9,1.4,9.9,4.5
					c6.8,6.8,9.7,18.9,10.9,25.9c-2.5-7.1-6.2-12.2-10.5-14.6c-1.8-1-3.5-1.5-5.4-1.5c-0.8,0-1.7,0.1-2.5,0.3
					c-8.6,2.2-13.7,14.6-15.7,20.5L531.4,450z M530.3,539.6v-57.8c0.9-3.2,6.1-20,15.9-22.5c1.3-0.3,2.5-0.4,3.8-0.2V495l-18.5,14.4
					V536l72.9-43.4l0,0l0.4,0.1L530.3,539.6z M605.1,492.6l-0.1,0.1v-0.3l0.1-0.1V492.6L605.1,492.6z M605.1,491.2L605.1,491.2
					l-0.5-22.4l-0.2-0.1c-0.8-0.5-1.7-1.1-2.5-1.7v-96.8c0.9-0.8,1.5-1.5,1.7-1.7l0.1-0.1l-1.3-38.7l-0.5,2.5v-12.4l0.3-8.1
					l-0.2-0.1l-0.1-0.1v-12.9H601V311c-1.4-0.9-4-2.4-7.6-3.8V301c0.3,0.2,0.6,0.3,0.9,0.1c1.3-0.8-0.6-7.9-1.6-10.7
					c-0.6-1.7-1.2-3-1.8-3.8c1.2,1,2.3,2.1,3.4,3.1c4.9,4.6,8.5,8.5,10.8,11.7L605.1,491.2L605.1,491.2z M605.1,299.9
					c-4.3-4.8-7.9-8.6-10.2-10.9c-20.1-20.1-33.6-26.3-48.2-38c-1.1-0.9-3.8-3.5-8.5-5.4c-2.7-1.1-5.4-2.1-8.2-3.1
					c-0.2-0.1-0.4-0.1-0.5-0.2c0,10.7,0,21.4,0,32.1c0,31.6,0,63.1,0,94.7c-3.2-0.3-6.3,0.1-8.9,1.3V242.9c0.7-4.1,2.3-6.8,4.7-8.1
					c2.9-1.6,7.1-1.3,12.6,1c14.1,6,36.6,25.1,67.3,57.1L605.1,299.9L605.1,299.9z"/>
				<path class="st5" d="M538.9,377.4c-2.3,1.3-3.8,3.3-4.1,5.5c-0.8,5.8,7.1,13,12.2,16.1c5.3,3.2,11.3,4.8,17.3,4.7
					c-3.7-3.4-6.9-7.9-7.3-12.3l-0.9-0.1c-5-1.3-9.1-5.6-9-9.4c0-1.6,0.8-3,2.2-4c1.3-0.9,2.8-1.3,4.6-1.3l0,0
					C547.3,374.7,542,375.6,538.9,377.4z"/>
				<path class="st5" d="M557.7,389c-1.2,7.1,6.8,15,12.5,18.5c8.9,5.5,20.3,6,29.9,1.3l-1.9-9.6l-17.5-1.9c-5.4-1.2-9.7-6-9.4-10.6
					c0.2-2.1,1.2-3.9,3.1-5.2c1.5-1,3.3-1.6,5.3-1.6c-5.8-1.6-11.6-1.2-16,1.3C560.4,383.2,558.3,385.9,557.7,389z"/>
				<path class="st5" d="M572.4,277.1c-0.7-1.1-1.1-1.2-1.2-1.2l0,0c-0.2,0-0.4,0.2-0.6,0.6c-1.5,2.6-1.9,11-1.7,13.9
					c0.4-1.3,1.1-3.1,2.5-3.4c1.5-0.3,2.8,1.3,3.8,2.5c0.3,0.3,0.6,0.8,0.8,0.9C576.4,288.9,574.6,280.7,572.4,277.1z"/>
				<path class="st5" d="M590.3,287c-0.7-1.1-1.1-1.2-1.2-1.2l0,0c-0.2,0-0.4,0.2-0.6,0.6c-1.5,2.6-1.9,11-1.7,13.9
					c0.4-1.3,1.1-3.1,2.5-3.4c1.5-0.3,2.8,1.3,3.8,2.5c0.3,0.3,0.6,0.8,0.8,0.9C594.2,298.9,592.5,290.6,590.3,287z"/>
				<path class="st5" d="M551.9,262c-0.4-0.6-0.7-0.8-0.8-0.8l0,0c-0.1,0-0.2,0.1-0.4,0.4c-1.6,2.8-1.8,14.4-1.4,18.4
					c0.4-1.6,1-3.9,2.4-4.2c1.5-0.4,2.8,1.6,3.9,3.3c0.3,0.4,0.6,0.9,0.8,1.2C556.9,278.2,554.3,265.7,551.9,262z"/>
				<path class="st5" d="M558.9,308.1c-15,6.7-21.8,20.2-24.3,26.6c9-12.3,23.4-18.5,37.6-15.8c15.7,3,24,15.6,27.1,21.7
					c0.4-1,0.7-1.9,1-2.8l1-25.9C598.5,310.1,579.9,298.7,558.9,308.1z"/>
				<path class="st5" d="M546,458.5c0.8-0.2,1.7-0.3,2.5-0.3c1.8,0,3.6,0.5,5.4,1.5c4.3,2.4,7.9,7.5,10.5,14.6
					c-1.2-7-4.1-19.1-10.9-25.9c-3-3.1-6.4-4.6-9.9-4.5c-6.3,0.1-11.3,5.2-12.2,6.2l-1.1,29C532.2,473.2,537.4,460.7,546,458.5z"/>
				<path class="st5" d="M570.1,355.8c0.5,1,1.6,1.8,3,2.5c1.7-5.6,5.6-12,11.5-18.4C574.1,345.6,568.3,352,570.1,355.8z"/>
				<path class="st5" d="M601.7,335.8c-1.8,6.3-7,21-17.7,24c-3,0.9-7.2,0.6-10.4-0.5c-1.3,5.1-0.8,9.4,2,12.2
					c2.4,2.4,6.5,4,10.6,4.2c0.2,0,0.5,0,0.7,0c8.4,0,14.7-6.5,15.8-7.7L601.7,335.8z"/>
			</g>
		</g>
	</g>
</g>
<g id="Layer_3">
	<path class="st14" d="M1384,443.8"/>
	<path class="st15" d="M1071.5,359.5"/>
	<path class="st15" d="M1168.5,250.5"/>
	<g>
		<g class="st16">
			
				<image style="overflow:visible;opacity:0.75;" width="323" height="437" xlink:href="19523DC7.png"  transform="matrix(1 0 0 1 525 144)">
			</image>
			<g>
				<image style="overflow:visible;" width="324" height="427" xlink:href="19523E2C.png"  transform="matrix(1 0 0 1 0 768)">
				</image>
			</g>
		</g>
		<g>
			<g>
				<linearGradient id="SVGID_9_" gradientUnits="userSpaceOnUse" x1="683.4" y1="428" x2="683.4" y2="7.4904">
					<stop  offset="0" style="stop-color:#FFFFFF"/>
					<stop  offset="0.155" style="stop-color:#FFFEFB"/>
					<stop  offset="0.2987" style="stop-color:#FFF9F0"/>
					<stop  offset="0.4381" style="stop-color:#FFF1DD"/>
					<stop  offset="0.5747" style="stop-color:#FEE7C3"/>
					<stop  offset="0.7094" style="stop-color:#FED9A1"/>
					<stop  offset="0.8426" style="stop-color:#FEC877"/>
					<stop  offset="0.9722" style="stop-color:#FDB546"/>
					<stop  offset="1" style="stop-color:#FDB03B"/>
				</linearGradient>
				<path class="st17" d="M684.5,237.1c-26.7-0.5-51.8,18.7-64.2,48.8V490h126.3V286C734.5,256.3,710.8,237.6,684.5,237.1z"/>
				<path class="st6" d="M687.4,227c-31.5-2.1-61.8,21.4-75.3,58.5v214.6h142.2V285.5C742.1,251.4,716.4,228.9,687.4,227z
					 M745.7,285.7v205.2H618.1V285.7v-0.1c6.1-15.1,15.4-27.7,26.9-36.4s24.6-13.2,37.9-13C709.4,236.7,733.5,255.6,745.7,285.7
					L745.7,285.7z"/>
				<path class="st6" d="M753.5,281.2l-8.8-17.5c-13.9-22.2-34.5-36.1-57.2-37.6c-15.7-1-31.2,4-44.8,14.6
					c-7.3,5.7-13.8,12.7-19.2,20.9l-7.6,13.5c-1.6,3.3-3,6.7-4.3,10.2v215.8h143.6V285.4v-0.2c-0.5-1.3-1-2.6-1.5-3.9l0,0
					L753.5,281.2z M754.4,500.1H612.2V285.5c13.5-37.1,43.7-60.6,75.3-58.5c29,1.9,54.6,24.3,67,58.5L754.4,500.1L754.4,500.1z"/>
				<path class="st6" d="M683,236.2c-13.3-0.2-26.4,4.3-37.9,13s-20.8,21.3-26.9,36.4v0.1v205.2h127.6V285.7v-0.1
					C733.5,255.7,709.5,236.7,683,236.2z M745,490H618.8V286c12.3-30.2,37.5-49.3,64.2-48.8c26.2,0.5,50,19.2,62.1,48.8L745,490
					L745,490z"/>
				<path class="st6" d="M765.1,263c-1.2,2.1-3.1,3.9-4.9,4.6c-6,2.4-13.2-4-16.5-7.4l10.2,20.3c1.1,0.3,6.5,1.8,10.6-2
					c1.9-1.8,3.4-4.6,3.7-7.1C768.6,268.6,767.4,265.6,765.1,263z"/>
				<path class="st6" d="M765,261.6c0.4-0.9,0.6-1.8,0.5-2.6c-0.3-2.6-4.4-4.6-11.8-4.1C758.4,256.5,762.3,258.9,765,261.6z"/>
				<path class="st6" d="M765.5,262.2c0.5-1.1,0.8-2.3,0.7-3.3c-0.5-3.9-6.4-5.7-14.7-4.6l-2.1,0.3l2.1,0.6
					c5.6,1.5,10.1,4.2,13.1,7.2c-1,1.9-2.8,3.7-4.6,4.4c-7.5,3-17.3-8.7-17.7-9.3l-2.1-2.6l4.4,8.7l8.8,17.5l0.1,0.1l0,0h0.1
					c0.3,0.1,2,0.6,4.1,0.6c2.2,0,4.9-0.6,7.2-2.8c2.1-2,3.6-5,4-7.6C769.3,268.3,768.1,265.1,765.5,262.2z M768.2,271.4
					c-0.3,2.5-1.8,5.3-3.7,7.1c-4,3.8-9.5,2.4-10.6,2l-10.2-20.3c3.3,3.5,10.5,9.8,16.5,7.4c1.8-0.7,3.7-2.6,4.9-4.6
					C767.4,265.6,768.6,268.6,768.2,271.4z M765.5,259c0.1,0.8-0.1,1.7-0.5,2.6c-2.7-2.7-6.5-5.1-11.3-6.7
					C761.1,254.4,765.2,256.5,765.5,259z"/>
				<path class="st6" d="M624.7,257.9c-4,4.3-12.4,12.1-18.2,10c-1.7-0.6-3.3-2.4-4.3-4.7c0-0.1,0-0.1-0.1-0.2
					c-2.9,3.3-4.6,6.9-4.7,10.2c0,2.8,1,5.9,2.7,7.8c3.6,4,9.6,1.7,10.7,1.3L624.7,257.9z"/>
				<path class="st6" d="M615.4,252.6c-7,0-12.3,2.4-13.1,6c-0.2,0.9-0.2,1.9,0.1,2.9C605.6,258.1,610.1,254.9,615.4,252.6z"/>
				<path class="st6" d="M627.1,255.2l-0.5-0.6c-0.5,0.6-12.5,15.2-19.9,12.4c-1.5-0.6-3-2.2-3.9-4.2c0-0.1-0.1-0.2-0.1-0.4
					c3.6-3.9,8.8-7.4,14.9-9.8l1.9-0.7l-2-0.1c-8.4-0.5-14.8,2.1-15.9,6.5c-0.3,1.1-0.2,2.4,0.2,3.8c-3.1,3.5-5,7.4-5,11
					c-0.1,3.1,1.1,6.4,2.9,8.5c1.8,2,4,2.5,6.1,2.5c2.7,0,5-1,5.4-1.2h0.1l4.5-7.9l7.6-13.5L627.1,255.2z M600.2,281
					c-1.7-1.9-2.8-5-2.7-7.8c0.1-3.3,1.8-6.9,4.7-10.2c0,0.1,0,0.1,0.1,0.2c0.9,2.2,2.6,4,4.3,4.7c5.8,2.2,14.2-5.6,18.2-10
					L611,282.2C609.8,282.7,603.8,285,600.2,281z M602.3,258.6c0.9-3.6,6.2-6,13.1-6c-5.3,2.3-9.8,5.4-13,8.9
					C602.1,260.5,602,259.5,602.3,258.6z"/>
			</g>
		</g>
	</g>
</g>
<g id="Layer_2">
	<g>
		
			<image style="overflow:visible;opacity:0.35;enable-background:new    ;" width="670" height="303" xlink:href="19523E2E.png"  transform="matrix(1 0 0 1 441 359)">
		</image>
		<g>
			<linearGradient id="SVGID_10_" gradientUnits="userSpaceOnUse" x1="899.4501" y1="669.2999" x2="899.4501" y2="517.9">
				<stop  offset="0" style="stop-color:#FFFFFF"/>
				<stop  offset="0.2947" style="stop-color:#FDFEFE"/>
				<stop  offset="0.4683" style="stop-color:#F4F9F9"/>
				<stop  offset="0.6105" style="stop-color:#E6F0F2"/>
				<stop  offset="0.7357" style="stop-color:#D2E5E7"/>
				<stop  offset="0.8497" style="stop-color:#B8D5D9"/>
				<stop  offset="0.9541" style="stop-color:#98C3C8"/>
				<stop  offset="1" style="stop-color:#88B9BF"/>
			</linearGradient>
			<path class="st18" d="M947.9,543.4c-10.5,0.6-19.8,6-25.7,13.9c-1.2,0.2-2.4,0.5-3.5,0.8c-4-22.8-23.9-40.2-47.8-40.2
				c-24.1,0-44,17.5-47.9,40.5c-3.8,0.5-7.5,1.6-10.8,3.3c-7.9-8.9-19.3-14.5-32.1-14.5c-5.3,0-10.4,1-15.1,2.7
				c-4.5-1.7-9.3-2.6-14.4-2.6c-16.2,0-30.1,9.4-36.7,23c-6.8-4.8-15.2-7.6-24.1-7.6c-9.2,0-17.7,2.9-24.6,7.9
				c-14.7,6.5-25,21.2-25,38.3c0,23.1,18.7,41.8,41.8,41.8c5.7,0,11.2-1.2,16.1-3.2c7.7,13,22,21.8,38.2,21.8
				c14.2,0,26.8-6.6,34.9-16.9c17.4-0.1,32.5-10,40-24.5c5,2.6,10.7,4.1,16.8,4.1c6.3,4.8,14.1,7.6,22.6,7.6
				c11.2,0,21.2-4.9,28.1-12.7c5.2,8,14.1,13.2,24.3,13.2c1.7,0,3.4-0.2,5-0.4c5.3,15.1,19.7,25.9,36.6,25.9
				c21.4,0,38.8-17.3,38.8-38.8c0-0.2,0-0.4,0-0.6c8.2-0.3,15.9-2.7,22.5-6.7c1.5,1.2,3.1,2.2,4.8,3.1c3.1,4.2,8.1,7,13.8,7
				c4.8,0,9.2-2,12.3-5.2c2,1.3,4.2,2.3,6.4,3.2c1.1,1,2.5,1.6,4.1,1.6c0.3,0,0.6,0,0.9-0.1c2.7,0.6,5.6,1,8.5,1
				c17.4,0,32-11.8,36.2-27.9c6,10.7,17.5,17.9,30.6,17.9c0.6,0,1.1,0,1.7,0c0.3,0,0.5,0,0.8,0c1.7,0,3.3-0.3,4.8-0.7
				c15.9-3.3,27.9-17.4,27.9-34.3c-0.3-19.3-16.1-35.1-35.4-35.1c-12.9,0-24.2,7-30.3,17.4c-2.5-14.2-15-25.1-29.9-25.1
				c-13.2,0-24.4,8.4-28.6,20.1c-1.3,0.9-2.5,1.9-3.6,3c-1.4-0.3-2.8-0.5-4.3-0.6c-5.3-17-19.9-29.9-37.8-32.7"/>
			<linearGradient id="SVGID_11_" gradientUnits="userSpaceOnUse" x1="886.4501" y1="588.2999" x2="886.4501" y2="436.9">
				<stop  offset="0" style="stop-color:#FFFFFF"/>
				<stop  offset="0.2853" style="stop-color:#FCFDFE"/>
				<stop  offset="0.4596" style="stop-color:#F4F9F9"/>
				<stop  offset="0.6042" style="stop-color:#E6F0F1"/>
				<stop  offset="0.7324" style="stop-color:#D1E4E6"/>
				<stop  offset="0.8499" style="stop-color:#B7D4D8"/>
				<stop  offset="0.958" style="stop-color:#97C2C7"/>
				<stop  offset="1" style="stop-color:#88B9BF"/>
			</linearGradient>
			<path class="st19" d="M1110.3,469c-12.9,0-24.2,7-30.3,17.4c-2.5-14.2-15-25.1-29.9-25.1c-13.2,0-24.4,8.4-28.6,20.1
				c-1.3,0.9-2.5,1.9-3.6,3c-1.4-0.3-2.8-0.5-4.3-0.6c-5.3-17-19.9-29.9-37.8-32.7c-3.4-0.9-6.9-1.3-10.6-1.3
				c-11.8,0-22.6,4.8-30.3,12.6c-10.5,0.6-19.8,6-25.7,13.9c-1.2,0.2-2.4,0.5-3.5,0.8c-4-22.8-23.9-40.2-47.8-40.2
				c-24.1,0-44,17.5-47.9,40.5c-3.8,0.5-7.5,1.6-10.8,3.3c-7.9-8.9-19.3-14.5-32.1-14.5c-5.3,0-10.4,1-15.1,2.7
				c-4.5-1.7-9.3-2.6-14.4-2.6c-16.2,0-30.1,9.4-36.7,23c-6.8-4.8-15.2-7.6-24.1-7.6c-9.2,0-17.7,2.9-24.6,7.9
				c-14.7,6.5-25,21.2-25,38.3c0,23.1,18.7,41.8,41.8,41.8c5.7,0,11.2-1.2,16.1-3.2c7.7,13,22,21.8,38.2,21.8
				c14.2,0,26.8-6.6,34.9-16.9c17.4-0.1,31,7.3,38.5-7.2c5,2.6,9.4-2.5,15.5-2.5c6.3,4.8,16.9-3.1,25.4-3.1
				c11.2,0,21.2-4.9,28.1-12.7c5.2,8,14.1,13.2,24.3,13.2c1.7,0,3.4-0.2,5-0.4c5.3,15.1,19.7,25.9,36.6,25.9
				c21.4,0,38.8-17.3,38.8-38.8c0-0.2,0-0.4,0-0.6c8.2-0.3,15.9-2.7,22.5-6.7c1.5,1.2,3.1,2.2,4.8,3.1c3.1,4.2,8.1,7,13.8,7
				c4.8,0,9.2-2,12.3-5.2c2,1.3,4.2,2.3,6.4,3.2c1.1,1,2.5,1.6,4.1,1.6c0.3,0,0.6,0,0.9-0.1c2.7,0.6,5.6,1,8.5,1
				c17.4,0,32-11.8,36.2-27.9c6,10.7,17.5,17.9,30.6,17.9c0.6,0,1.1,0,1.7,0c0.3,0,0.5,0,0.8,0c1.7,0,3.3-0.3,4.8-0.7
				c15.9-3.3,27.9-17.4,27.9-34.3C1145.4,484.8,1129.6,469,1110.3,469z"/>
		</g>
	</g>
	<g>
		
			<image style="overflow:visible;opacity:0.35;enable-background:new    ;" width="747" height="380" xlink:href="19523E2F.png"  transform="matrix(1 0 0 1 -103 -178)">
		</image>
		<g>
			<g>
				<path class="st7" d="M394,0.4c0.5-1,1.1-2,1.8-2.9c-0.8,0.3-1.7,0.6-2.6,0.9C393.6-1,393.9-0.3,394,0.4z"/>
				<path class="st7" d="M38.1,95.1c-0.4,0.3-0.9,0.6-1.3,0.9c0.5,0.6,0.9,1.1,1.3,1.7c0-0.4-0.1-0.8-0.1-1.2
					C38,96,38,95.5,38.1,95.1z"/>
				<path class="st7" d="M204.8,38.8c-0.3,0.1-0.6,0.2-0.8,0.4c0.1,1,0.1,1.9,0.1,2.9c0,0.7,0,1.4-0.1,2.1c0.8,0.9,1.6,1.8,2.3,2.8
					c4.4,1.1,8.3,3.3,11.4,6.2c-3.1-3.7-5.3-8.2-6.3-13C209.1,39.9,206.9,39.5,204.8,38.8z"/>
				<g>
					
						<image style="overflow:visible;opacity:0.75;" width="627" height="260" xlink:href="19523DCA.png"  transform="matrix(1 0 0 1 -36 -101)">
					</image>
					<g>
						<linearGradient id="SVGID_12_" gradientUnits="userSpaceOnUse" x1="270.2012" y1="-92" x2="270.2012" y2="136.1">
							<stop  offset="0" style="stop-color:#DDD9C7"/>
							<stop  offset="0.4554" style="stop-color:#DBD9C7"/>
							<stop  offset="0.6194" style="stop-color:#D4D8C8"/>
							<stop  offset="0.7363" style="stop-color:#C9D7C9"/>
							<stop  offset="0.8309" style="stop-color:#B8D5CB"/>
							<stop  offset="0.9118" style="stop-color:#A2D2CD"/>
							<stop  offset="0.9822" style="stop-color:#87CFD0"/>
							<stop  offset="1" style="stop-color:#7FCED1"/>
							<stop  offset="1" style="stop-color:#000000"/>
						</linearGradient>
						<path class="st20" d="M540.6-28.1c-2.2,0-4.3,0.3-6.4,0.7c-4.1-3-9.2-4.7-14.7-4.7c-10.5,0-19.4,6.3-22.7,15.1
							c-4.5,4.7-7.2,10.9-7.2,17.7c0,2.4,0.3,4.7,1,6.9c-0.3,0-0.6,0-0.9,0c-1.9,0-3.8,0.3-5.5,0.7c0.8-2.7,1.3-5.5,1.3-8.5
							c0-5.8-1.7-11.2-4.7-15.8c-3.6-8.8-11-15.8-20.3-19.4c0.4-1.7,0.5-3.5,0.5-5.3c0-15.5-13.4-28-30-28c-6,0-11.6,1.7-16.3,4.5
							c-5.1-3.9-11.7-6.3-18.8-6.3c-6.5,0-12.6,2-17.5,5.3c-1-1.2-2-2.3-3.2-3.2c-3-12.1-14.6-21.2-28.5-21.2
							c-4.7,0-9.2,1.1-13.2,2.9c-4.8-3.3-10.8-5.3-17.3-5.3c-13.8,0-25.3,8.9-28.3,21c-1.6,1.6-3,3.3-4.2,5.2c-0.5,0-1-0.1-1.5-0.1
							c-10.5,0-19,8-19,17.8c0,2.9,0.8,5.6,2.1,8.1c-5.6,2-10.2,6-12.7,11.1c-1.7,0.4-3,1.8-3,3.6c0,1,0.4,1.9,1.1,2.6
							c-0.7,2-1.1,4.2-1.1,6.5c0,0.5,0,1.1,0.1,1.6c-0.6-0.1-1.1-0.1-1.7-0.1c-5.5,0-10.4,2.7-13.2,6.8c-2.1-6.9-8.9-11.9-16.9-11.9
							c-1.3,0-2.5,0.1-3.6,0.4c-1.6-6-5-11.4-9.7-15.4c0.4-1.4,0.7-2.8,0.7-4.3c0-8.2-7.1-14.8-15.8-14.8c-7.6,0-13.9,5-15.4,11.7
							c-5.3,1.2-10.1,3.6-14.1,6.9c-2.4-0.5-5-0.8-7.6-0.8c-14.8,0-27.5,8.7-32.6,20.9c-5.5-3.1-12-4.9-19-4.9
							c-8.7,0-16.7,2.8-22.9,7.5C69.6-12.3,62.1-9,56.6-3.8c-0.8-0.4-1.6-0.7-2.5-1c-2.4-1.4-5.3-2.3-8.3-2.3
							c-1.1,0-2.2,0.1-3.3,0.3c-8.4,0.1-16,3.3-21.5,8.4c-3.7-1.2-7.6-1.8-11.7-1.8c-20.1,0-36.4,15.2-36.4,34
							C-27,48.7-16.7,61.4-2.4,66c-1.4,3-2.2,6.4-2.2,9.9c0,0.2,0,0.4,0,0.6c-3.2,2.7-5.2,6.6-5.2,10.9c0,3.6,1.4,6.9,3.7,9.5
							c-3.1,4.1-4.9,9-4.9,14.3c0,13.8,11.9,24.9,26.6,24.9s26.6-11.2,26.6-24.9c0-2.2-0.3-4.2-0.8-6.2c2.5,2.6,6.1,4.3,10.1,4.3
							c7.5,0,13.6-5.7,13.6-12.8S59,83.7,51.5,83.7c-2,0-3.8,0.4-5.5,1.1c0.8-1.9,1.4-4,1.6-6.1c5.6,4.9,13,7.8,21.3,7.8
							c9.4,0,17.8-3.9,23.6-10.1c3,5,8.8,8.3,15.3,8.3c5.1,0,9.8-2.1,13-5.3c0.8,0.1,1.6,0.1,2.4,0.1c8.5,0,16.2-2.9,22.2-7.6
							C149,85.7,162.3,96,178.2,96c5.3,0,10.3-1.1,14.8-3.2c2.1,0.5,4.3,0.8,6.5,0.8c14.1,0,25.5-10.7,25.5-23.8
							c0-5.4-1.9-10.3-5.1-14.3c5.9,5.7,14.2,9.2,23.3,9.2c3.6,0,7.1-0.6,10.4-1.6c6,6.6,15,10.8,25,10.8
							c16.5,0,30.1-11.3,32.5-26.1c2.5-2,4.6-4.3,6.3-6.8c0.9,0.1,1.8,0.2,2.7,0.2c7.1,0,13.1-4.2,15.4-10.1c1.5,0.3,3,0.4,4.5,0.4
							c2.6,0,5-0.4,7.4-1.1c1.3,0.2,2.7,0.4,4.1,0.4c0.5,0,1.1,0,1.6-0.1c3.6,4.6,9.4,7.7,16,7.7c3.9,0,7.6-1.1,10.7-3
							c3.7,5.7,10.3,9.5,17.9,9.5c5,0,9.5-1.6,13.1-4.3c2.2,0.6,4.4,0.9,6.8,0.9c4,0,7.7-0.9,11-2.5c0.7,0.2,1.5,0.3,2.3,0.3
							c4.9,0,8.9-3.7,8.9-8.3c0-0.1,0-0.3,0-0.4c2,0.3,4.2,0.5,6.3,0.5c1.4,0,2.8-0.1,4.2-0.2c3.3,4,8.4,6.6,14.2,6.6
							c3.1,0,6.1-0.8,8.6-2.1c3.5,5,9.5,8.4,16.4,8.4c10.7,0,19.3-8,19.4-18c2.8,0.9,5.8,1.3,8.9,1.3c6.3,0,12.1-1.9,16.8-5.2
							c1.9,0.4,3.8,0.6,5.8,0.6c15,0,27.1-11.4,27.1-25.4C567.7-16.8,555.6-28.1,540.6-28.1z M394,0.4c-0.2-0.7-0.4-1.4-0.8-2.1
							c0.9-0.2,1.8-0.5,2.6-0.9C395.2-1.6,394.5-0.6,394,0.4z M36.7,96c0.5-0.3,0.9-0.6,1.3-0.9c0,0.4,0,0.9,0,1.4
							c0,0.4,0,0.8,0.1,1.2C37.6,97.1,37.2,96.6,36.7,96z M206.2,46.9c-0.7-1-1.4-1.9-2.3-2.8c0.1-0.7,0.1-1.4,0.1-2.1
							c0-1-0.1-1.9-0.1-2.9c0.3-0.1,0.6-0.2,0.8-0.4c2.1,0.7,4.3,1.1,6.6,1.2c1,4.8,3.1,9.3,6.3,13C214.5,50.1,210.6,48,206.2,46.9z
							"/>
						<linearGradient id="SVGID_13_" gradientUnits="userSpaceOnUse" x1="-27.6001" y1="22.05" x2="568.0024" y2="22.05">
							<stop  offset="0" style="stop-color:#FFFFFF"/>
							<stop  offset="0.4343" style="stop-color:#FDFEFE"/>
							<stop  offset="0.5907" style="stop-color:#F6FAFA"/>
							<stop  offset="0.7023" style="stop-color:#EBF3F4"/>
							<stop  offset="0.7924" style="stop-color:#DAE9EB"/>
							<stop  offset="0.8696" style="stop-color:#C4DCDF"/>
							<stop  offset="0.9367" style="stop-color:#A9CCD1"/>
							<stop  offset="0.9972" style="stop-color:#8ABAC0"/>
							<stop  offset="1" style="stop-color:#88B9BF"/>
						</linearGradient>
						<path class="st21" d="M540.6-28.1c-2.2,0-4.3,0.3-6.4,0.7c-4.1-3-9.2-4.7-14.7-4.7c-10.5,0-19.4,6.3-22.7,15.1
							c-4.5,4.7-7.2,10.9-7.2,17.7c0,2.4,0.3,4.7,1,6.9c-0.3,0-0.6,0-0.9,0c-1.9,0-3.8,0.3-5.5,0.7c0.8-2.7,1.3-5.5,1.3-8.5
							c0-5.8-1.7-11.2-4.7-15.8c-3.6-8.8-11-15.8-20.3-19.4c0.4-1.7,0.5-3.5,0.5-5.3c0-15.5-13.4-28-30-28c-6,0-11.6,1.7-16.3,4.5
							c-5.1-3.9-11.7-6.3-18.8-6.3c-6.5,0-12.6,2-17.5,5.3c-1-1.2-2-2.3-3.2-3.2c-3-12.1-14.6-21.2-28.5-21.2
							c-4.7,0-9.2,1.1-13.2,2.9c-4.8-3.3-10.8-5.3-17.3-5.3c-13.8,0-25.3,8.9-28.3,21c-1.6,1.6-3,3.3-4.2,5.2c-0.5,0-1-0.1-1.5-0.1
							c-10.5,0-19,8-19,17.8c0,2.9,0.8,5.6,2.1,8.1c-5.6,2-10.2,6-12.7,11.1c-1.7,0.4-3,1.8-3,3.6c0,1,0.4,1.9,1.1,2.6
							c-0.7,2-1.1,4.2-1.1,6.5c0,0.5,0,1.1,0.1,1.6c-0.6-0.1-1.1-0.1-1.7-0.1c-5.5,0-10.4,2.7-13.2,6.8c-2.1-6.9-8.9-11.9-16.9-11.9
							c-1.3,0-2.5,0.1-3.6,0.4c-1.6-6-5-11.4-9.7-15.4c0.4-1.4,0.7-2.8,0.7-4.3c0-8.2-7.1-14.8-15.8-14.8c-7.6,0-13.9,5-15.4,11.7
							c-5.3,1.2-10.1,3.6-14.1,6.9c-2.4-0.5-5-0.8-7.6-0.8c-14.8,0-27.5,8.7-32.6,20.9c-5.5-3.1-12-4.9-19-4.9
							c-8.7,0-16.7,2.8-22.9,7.5C69.6-12.3,62.1-9,56.6-3.8c-0.8-0.4-1.6-0.7-2.5-1c-2.4-1.4-5.3-2.3-8.3-2.3
							c-1.1,0-2.2,0.1-3.3,0.3c-8.4,0.1-16,3.3-21.5,8.4c-3.7-1.2-7.6-1.8-11.7-1.8c-20.1,0-36.4,15.2-36.4,34
							C-27,48.7-16.7,61.4-2.4,66c-1.4,3-2.2,6.4-2.2,9.9c0,0.2,0,0.4,0,0.6c-3.2,2.7-5.2,6.6-5.2,10.9c0,3.6,1.4,6.9,3.7,9.5
							c-3.1,4.1-4.9,9-4.9,14.3c0,13.8,11.9,24.9,26.6,24.9s26.6-11.2,26.6-24.9c0-2.2-0.3-4.2-0.8-6.2c2.5,2.6,6.1,4.3,10.1,4.3
							c7.5,0,13.6-5.7,13.6-12.8S59,83.7,51.5,83.7c-2,0-3.8,0.4-5.5,1.1c0.8-1.9,1.4-4,1.6-6.1c5.6,4.9,13,7.8,21.3,7.8
							c9.4,0,17.8-3.9,23.6-10.1c3,5,8.8,8.3,15.3,8.3c5.1,0,9.8-2.1,13-5.3c0.8,0.1,1.6,0.1,2.4,0.1c8.5,0,16.2-2.9,22.2-7.6
							C149,85.7,162.3,96,178.2,96c5.3,0,10.3-1.1,14.8-3.2c2.1,0.5,4.3,0.8,6.5,0.8c14.1,0,25.5-10.7,25.5-23.8
							c0-5.4-1.9-10.3-5.1-14.3c5.9,5.7,14.2,9.2,23.3,9.2c3.6,0,7.1-0.6,10.4-1.6c6,6.6,15,10.8,25,10.8
							c16.5,0,30.1-11.3,32.5-26.1c2.5-2,4.6-4.3,6.3-6.8c0.9,0.1,1.8,0.2,2.7,0.2c7.1,0,13.1-4.2,15.4-10.1c1.5,0.3,3,0.4,4.5,0.4
							c2.6,0,5-0.4,7.4-1.1c1.3,0.2,2.7,0.4,4.1,0.4c0.5,0,1.1,0,1.6-0.1c3.6,4.6,9.4,7.7,16,7.7c3.9,0,7.6-1.1,10.7-3
							c3.7,5.7,10.3,9.5,17.9,9.5c5,0,9.5-1.6,13.1-4.3c2.2,0.6,4.4,0.9,6.8,0.9c4,0,7.7-0.9,11-2.5c0.7,0.2,1.5,0.3,2.3,0.3
							c4.9,0,8.9-3.7,8.9-8.3c0-0.1,0-0.3,0-0.4c2,0.3,4.2,0.5,6.3,0.5c1.4,0,2.8-0.1,4.2-0.2c3.3,4,8.4,6.6,14.2,6.6
							c3.1,0,6.1-0.8,8.6-2.1c3.5,5,9.5,8.4,16.4,8.4c10.7,0,19.3-8,19.4-18c2.8,0.9,5.8,1.3,8.9,1.3c6.3,0,12.1-1.9,16.8-5.2
							c1.9,0.4,3.8,0.6,5.8,0.6c15,0,27.1-11.4,27.1-25.4C567.7-16.8,555.6-28.1,540.6-28.1z M394,0.4c-0.2-0.7-0.4-1.4-0.8-2.1
							c0.9-0.2,1.8-0.5,2.6-0.9C395.2-1.6,394.5-0.6,394,0.4z M36.7,96c0.5-0.3,0.9-0.6,1.3-0.9c0,0.4,0,0.9,0,1.4
							c0,0.4,0,0.8,0.1,1.2C37.6,97.1,37.2,96.6,36.7,96z M206.2,46.9c-0.7-1-1.4-1.9-2.3-2.8c0.1-0.7,0.1-1.4,0.1-2.1
							c0-1-0.1-1.9-0.1-2.9c0.3-0.1,0.6-0.2,0.8-0.4c2.1,0.7,4.3,1.1,6.6,1.2c1,4.8,3.1,9.3,6.3,13C214.5,50.1,210.6,48,206.2,46.9z
							"/>
					</g>
				</g>
			</g>
		</g>
	</g>
	<g>
		
			<image style="overflow:visible;opacity:0.35;enable-background:new    ;" width="568" height="379" xlink:href="19523E30.png"  transform="matrix(1 0 0 1 914.7701 492.2)">
		</image>
		<g>
			<linearGradient id="SVGID_14_" gradientUnits="userSpaceOnUse" x1="1198.7701" y1="530.4438" x2="1198.7701" y2="765.8432">
				<stop  offset="0.7333" style="stop-color:#FFFFFF"/>
				<stop  offset="0.9256" style="stop-color:#C8C7C8"/>
				<stop  offset="0.9588" style="stop-color:#C6C5C6"/>
				<stop  offset="0.9707" style="stop-color:#BFBEBF"/>
				<stop  offset="0.9792" style="stop-color:#B4B3B4"/>
				<stop  offset="0.9861" style="stop-color:#A3A2A3"/>
				<stop  offset="0.992" style="stop-color:#8D8C8D"/>
				<stop  offset="0.9971" style="stop-color:#727272"/>
				<stop  offset="1" style="stop-color:#5F5F5F"/>
			</linearGradient>
			<path class="st22" d="M1001.5,678.2c-0.8,3.7-1.1,7.5-0.8,11.5c0.1,0.9,0.1,1.8,0.3,2.8c-10.5,8-16.9,20.7-15.8,34.5
				c1.7,22.1,21.7,38.6,44.8,36.9c11.8-0.9,21.9-6.3,29-14.3c8.6,10.8,22.4,17.3,37.6,16.2c10.3-0.8,19.5-5,26.5-11.3
				c10.4-6.7,16.8-18.4,15.9-31.2c-0.1-1.7-0.4-3.4-0.8-5c5.2,3.1,11.4,4.6,18,4.2c4.4-0.3,8.6-1.5,12.2-3.5c1,0.7,2.4,1,3.7,0.9
				c3.2-0.2,5.5-2.9,5.3-5.9c-0.1-0.7-0.2-1.3-0.4-1.8c0.2-0.2,0.4-0.4,0.6-0.6c4.9,10.5,16.3,17.4,28.9,16.5
				c11.4-0.9,20.9-7.9,25-17.4c4.6,13.1,18.1,22,33.2,20.8c12.3-0.9,22.6-8.3,27.4-18.4c0.6,0.9,1.3,1.6,2,2.4
				c-1.9,4.4-2.6,9.3-2.3,14.3c1.3,17.8,17.5,31.1,36.1,29.7c16.4-1.2,29.2-13.5,31.1-28.6c13.6-4.5,22.9-17.4,21.8-31.6
				c-1.3-17-16.7-29.7-34.5-28.4c-1.5,0.1-2.9,0.3-4.3,0.6c1.3-1.9,2.5-4,3.5-6.1c3,0.5,6.1,0.5,9.2,0.3c9.9-0.7,18.8-4.8,25.3-11
				c19.9-4.4,34-22.2,32.5-42.3c-0.8-10.2-5.4-19.1-12.5-25.7c0.5-3.3,0.6-6.9,0.4-10.3c-2.1-27.4-26.9-47.8-55.4-45.6
				c-28.5,2.1-50,26.1-48,53.4c0,0.6,0.1,1.2,0.1,1.7c-2.9,1.3-5.7,2.9-8.2,4.8c0-0.3,0-0.6-0.1-1c-1.2-16-15.8-28.1-32.6-26.8
				c-15.2,1.1-27,12.8-28.1,27c-0.4,0-0.8,0.1-1.2,0.1c-5.4,0.4-10.5,1.8-15.2,3.8c-5.2-7.7-14.4-12.4-24.6-11.7
				c-8.2,0.6-15.3,4.8-19.9,10.7c-3.3-0.6-6.7-0.7-10.2-0.4c-23.4,1.8-41.1,21.4-39.4,43.8c0.1,1.9,0.4,3.7,0.8,5.4
				c-2.3,2.1-4.3,4.5-5.8,7.3c-0.6,0.2-1.2,0.5-1.8,0.8c-0.7-5.2-5.5-8.8-10.9-8.4c-2.4,0.2-4.6,1.1-6.3,2.7
				c-7.1-6-16.8-9.3-27.1-8.5c-7.6,0.6-14.4,3.3-20,7.4c0.5-2.1,0.6-4.4,0.4-6.6c-1-13.7-13.5-24-27.9-22.9
				c-14.4,1.1-25.2,13.1-24.1,26.9c0.2,2,0.5,4,1.2,5.7c-3.8,4.2-5.9,9.8-5.4,15.7C990.8,668.6,995.3,674.8,1001.5,678.2z"/>
		</g>
	</g>
	<g>
		
			<image style="overflow:visible;opacity:0.35;enable-background:new    ;" width="437" height="283" xlink:href="19523E31.png"  transform="matrix(1 0 0 1 400 381)">
		</image>
		<g>
			<linearGradient id="SVGID_15_" gradientUnits="userSpaceOnUse" x1="618.65" y1="597.5" x2="618.65" y2="467">
				<stop  offset="0" style="stop-color:#FFFFFF"/>
				<stop  offset="0.2947" style="stop-color:#FDFEFE"/>
				<stop  offset="0.4683" style="stop-color:#F4F9F9"/>
				<stop  offset="0.6105" style="stop-color:#E6F0F2"/>
				<stop  offset="0.7357" style="stop-color:#D2E5E7"/>
				<stop  offset="0.8497" style="stop-color:#B8D5D9"/>
				<stop  offset="0.9541" style="stop-color:#98C3C8"/>
				<stop  offset="1" style="stop-color:#88B9BF"/>
			</linearGradient>
			<linearGradient id="SVGID_16_" gradientUnits="userSpaceOnUse" x1="618.65" y1="598" x2="618.65" y2="466.5">
				<stop  offset="0" style="stop-color:#FFFFFF"/>
				<stop  offset="0.2947" style="stop-color:#FDFEFE"/>
				<stop  offset="0.4683" style="stop-color:#F4F9F9"/>
				<stop  offset="0.6105" style="stop-color:#E6F0F2"/>
				<stop  offset="0.7357" style="stop-color:#D2E5E7"/>
				<stop  offset="0.8497" style="stop-color:#B8D5D9"/>
				<stop  offset="0.9541" style="stop-color:#98C3C8"/>
				<stop  offset="1" style="stop-color:#88B9BF"/>
			</linearGradient>
			<path class="st23" d="M761.1,556.6c0-11.6-9.3-21-20.8-21c-2.8,0-5.4,0.5-7.8,1.5c-0.7-2.7-1.5-5.3-2.7-7.7c2.4-1.4,4-4,4-7
				c0-4.5-3.6-8.2-8.1-8.2c-2,0-3.8,0.7-5.2,1.9c-7.7-7.5-18.2-12.1-29.8-12.1c-1,0-1.9,0-2.9,0.1c0.9-2.8,1.5-5.8,1.5-9
				c0-15.5-12.5-28.1-27.8-28.1c-6.6,0-12.6,2.3-17.4,6.1c-4.1-1.2-8.5-1.9-13-1.9c-18,0-33.7,10.2-41.7,25.1
				c-4.2-2.4-8.7-4.2-13.5-5.3c-8.4-10.6-21.2-17.4-35.7-17.4c-25.2,0-45.6,20.6-45.6,46.1c0,1,0,2,0.1,3
				c-10.5,2.1-18.5,11.4-18.5,22.7c0,12.8,10.3,23.1,22.9,23.1c7.4,0,13.9-3.5,18.1-9c1.4,0.8,2.8,1.6,4.3,2.3
				c8.1,16,24.6,27,43.6,27c6.7,0,13.2-1.4,19-3.8c5.8,7.6,14.8,12.5,25,12.5c17.3,0,31.4-14.2,31.5-31.7c3.4-0.7,6.7-1.8,9.8-3.2
				c6.1,16.4,21.8,28.1,40.2,28.1c14.7,0,27.6-7.4,35.4-18.8c0.7,0.6,1.4,1.2,2.2,1.8c-1.6,1.4-2.7,3.4-2.7,5.8
				c0,4.2,3.3,7.5,7.4,7.5s7.4-3.4,7.4-7.5c0-0.7-0.1-1.3-0.3-1.9l0,0C751.8,577.7,761.1,568.3,761.1,556.6z"/>
			<path class="st3" d="M761.1,556.6c0-11.6-9.3-21-20.8-21c-2.8,0-5.4,0.5-7.8,1.5c-0.7-2.7-1.5-5.3-2.7-7.7c2.4-1.4,4-4,4-7
				c0-4.5-3.6-8.2-8.1-8.2c-2,0-3.8,0.7-5.2,1.9c-7.7-7.5-18.2-12.1-29.8-12.1c-1,0-1.9,0-2.9,0.1c0.9-2.8,1.5-5.8,1.5-9
				c0-15.5-12.5-28.1-27.8-28.1c-6.6,0-12.6,2.3-17.4,6.1c-4.1-1.2-8.5-1.9-13-1.9c-18,0-33.7,10.2-41.7,25.1
				c-4.2-2.4-8.7-4.2-13.5-5.3c-8.4-10.6-21.2-17.4-35.7-17.4c-25.2,0-45.6,20.6-45.6,46.1c0,1,0,2,0.1,3
				c-10.5,2.1-18.5,11.4-18.5,22.7c0,12.8,10.3,23.1,22.9,23.1c7.4,0,13.9-3.5,18.1-9c1.4,0.8,2.8,1.6,4.3,2.3
				c8.1,16,24.6,27,43.6,27c6.7,0,13.2-1.4,19-3.8c5.8,7.6,14.8,12.5,25,12.5c17.3,0,31.4-14.2,31.5-31.7c3.4-0.7,6.7-1.8,9.8-3.2
				c6.1,16.4,21.8,28.1,40.2,28.1c14.7,0,27.6-7.4,35.4-18.8c0.7,0.6,1.4,1.2,2.2,1.8c-1.6,1.4-2.7,3.4-2.7,5.8
				c0,4.2,3.3,7.5,7.4,7.5s7.4-3.4,7.4-7.5c0-0.7-0.1-1.3-0.3-1.9l0,0C751.8,577.7,761.1,568.3,761.1,556.6z"/>
		</g>
	</g>
	<g>
		
			<image style="overflow:visible;opacity:0.35;enable-background:new    ;" width="614" height="386" xlink:href="19523E36.png"  transform="matrix(1 0 0 1 -103 450)">
		</image>
		<g>
			<g>
				<path class="st24" d="M288,657.1c-0.8-0.8-1.5-1.7-2-2.7c-0.8,0-1.5,0-2.3-0.1c-2.5,1.2-5,2.2-7.7,3c1.6,2.6,2.8,5.4,3.8,8.3
					C282.1,662.4,284.8,659.5,288,657.1z"/>
				<path class="st24" d="M435,710.8c0-25.4-20.4-46-45.6-46c-6.2,0-12.2,1.3-17.6,3.5c-1.2-7.4-4.2-14.2-8.7-19.8
					c2.4-1.8,4.6-3.9,6.3-6.4c6,3.3,12.9,5.1,20.4,5.1c22.2,0.1,41.2-16.6,43.7-38.6c2.9-26.3-17.7-48.6-43.4-48.6
					c-9.1,0-17.6,2.8-24.6,7.6c-0.5-3.7-2.8-6.8-6-8.5c-3.9-4-8.7-6.9-14.2-8.5c-2.7-4.8-7.8-8-13.7-8c-0.9,0-1.8,0.1-2.6,0.2
					c-7-6-16-9.6-25.9-9.6c-17.6,0-32.5,11.4-37.7,27.2c-0.9,0-1.8-0.1-2.7-0.1c-26.6,0-48.1,21.5-48.1,48c0,4.6,0.7,9.1,1.9,13.4
					c-9.5,1.5-17.8,6.2-23.9,13.1c-4.1,1.1-7.9,2.7-11.5,4.8c-2.4-8.1-9.9-14-18.8-14c-10.8,0-19.6,8.8-19.6,19.6
					c0,0.3,0,0.6,0.1,0.9c-2.3,0.1-4.3,1.1-5.8,2.7c-7.5-9.6-19.1-15.8-32.3-15.8c-14.1,0-26.4,7.1-33.8,17.9
					c-6.9-7.2-16.6-11.7-27.4-11.7c-15.2,0-28.3,8.9-34.5,21.8c-19.9,1.2-35.7,17.8-35.7,38.2c0,21.1,17,38.2,37.9,38.2
					c8.5,0,16.3-2.8,22.6-7.5c3.3,6.2,9.3,10.8,16.5,12c7.1,13.1,20.9,22.1,36.8,22c0.9,0.2,2.3,0.4,3.2,0.6
					c4.7,1.7,9.8,2.7,15.1,2.7c19,0,35.1-12.1,41.2-28.9c0.9,0.1,1.8,0.1,2.7,0.1c8.3,0,15.9-3,21.7-8c1.5,1.2,3.3,1.9,5.4,1.9
					c4.4,0.1,8.4-3.3,8.9-7.7c0.5-3.7-1.3-7-4.2-8.8c0.2-0.5,0.4-1,0.5-1.5c4,2.3,8.5,4.1,13.2,5c-0.9,0.6-1.7,1.2-2.4,2
					c-4,0.2-7.2,3.5-7.2,7.5c0,2.2,1,4.2,2.5,5.6c0.8,8.2,7.6,14.6,16,14.6c8.9,0,16-7.2,16-16.2c0-5.7-2.9-10.6-7.3-13.5
					c5.9-1.2,11.3-3.7,16.1-7c4.3,1.6,8.9,2.5,13.8,2.5c13.7,0,25.7-7,32.8-17.7c1.1,3.2,2.7,6.2,4.5,8.9c0,2.9,0.9,5.5,2.3,7.8
					c4.8,21.8,24.3,38.1,47.6,38.1c4.9,0,9.7-0.7,14.2-2.1c7,8.8,17.8,14.4,29.9,14.4c8.7,0,16.8-3,23.3-7.9
					C418.5,752.5,435,733.6,435,710.8z M283.7,651.3c0.8,0.1,1.5,0.1,2.3,0.1c0.6,1,1.3,1.9,2,2.7c-3.2,2.4-5.9,5.3-8.2,8.5
					c-0.4-1.2-0.9-2.5-1.4-3.7c-1.1-2.5,0.1-5.3,2.5-6.4C281.9,652.2,282.8,651.7,283.7,651.3z"/>
			</g>
		</g>
	</g>
	<g>
		
			<image style="overflow:visible;opacity:0.35;enable-background:new    ;" width="690" height="355" xlink:href="19523E37.png"  transform="matrix(1 0 0 1 -3 369)">
		</image>
		<g>
			<linearGradient id="SVGID_17_" gradientUnits="userSpaceOnUse" x1="342.05" y1="658.3999" x2="342.05" y2="454.9999">
				<stop  offset="0" style="stop-color:#FFFFFF"/>
				<stop  offset="0.2947" style="stop-color:#FDFEFE"/>
				<stop  offset="0.4683" style="stop-color:#F4F9F9"/>
				<stop  offset="0.6105" style="stop-color:#E6F0F2"/>
				<stop  offset="0.7357" style="stop-color:#D2E5E7"/>
				<stop  offset="0.8497" style="stop-color:#B8D5D9"/>
				<stop  offset="0.9541" style="stop-color:#98C3C8"/>
				<stop  offset="1" style="stop-color:#88B9BF"/>
			</linearGradient>
			<linearGradient id="SVGID_18_" gradientUnits="userSpaceOnUse" x1="72.4001" y1="556.7" x2="611.7" y2="556.7">
				<stop  offset="0" style="stop-color:#FFFFFF"/>
				<stop  offset="0.2947" style="stop-color:#FDFEFE"/>
				<stop  offset="0.4683" style="stop-color:#F4F9F9"/>
				<stop  offset="0.6105" style="stop-color:#E6F0F2"/>
				<stop  offset="0.7357" style="stop-color:#D2E5E7"/>
				<stop  offset="0.8497" style="stop-color:#B8D5D9"/>
				<stop  offset="0.9541" style="stop-color:#98C3C8"/>
				<stop  offset="1" style="stop-color:#88B9BF"/>
			</linearGradient>
			<path class="st25" d="M611.2,582.7c0-14.3-11.6-25.9-25.9-25.9c-6.6,0-12.5,2.4-17.1,6.5c1.1-3.1,1.6-6.4,1.6-9.9
				c0-1.8-0.2-3.6-0.5-5.4c-0.6-15.6-10.8-28.8-25-33.6c-5.5-9.4-15.7-15.7-27.3-15.7c-3.6,0-7.1,0.6-10.3,1.7c-0.2,0-0.4,0-0.5,0
				c-2,0-4,0.2-5.9,0.6c-0.3,0-0.6-0.1-0.9-0.1c0-0.8,0.1-1.6,0.1-2.4c0-2.4-0.2-4.8-0.6-7.1c-0.4-7.2-3.5-13.8-8.4-18.6
				c-7.6-9.5-19.2-15.6-32.3-15.6c-3.7,0-7.3,0.5-10.8,1.4c-5.5-2.3-11.5-3.6-17.9-3.6c-16.2,0-30.4,8.4-38.5,21.1
				c-4.9-2.9-10.6-4.6-16.7-4.6c-5.5,0-10.6,1.4-15.1,3.7c-6.2-6.1-14.7-9.8-24-9.8c-12,0-22.6,6.2-28.8,15.6c-0.5,0-1-0.1-1.5-0.1
				c-9.8,0-18,6.7-20.3,15.8c-6.1-5.1-13.9-8.1-22.5-8.1c-1.7,0-3.3,0.1-4.9,0.4c-6.1-6.9-14.9-11.3-24.9-11.3
				c-15.3,0-28.1,10.4-31.9,24.4h-0.1c-5.5,0-10.5,1.7-14.7,4.6c-5.7-5.5-12.7-9.6-20.5-11.8c-3.9-3.8-9.3-6.1-15.1-6.1
				c-6.5,0-12.3,2.8-16.3,7.4c-14.4,5.5-25.7,17.5-30.1,32.4c-2.6,1-4.7,2.8-6.1,5.2c-2.4-1.4-5.2-2.2-8.2-2.2
				c-9.1,0-16.4,7.3-16.4,16.4s7.3,16.4,16.4,16.4c0.8,0,1.7-0.1,2.5-0.2c-1,3.6-1.5,7.5-1.5,11.4c0,13.1,5.7,24.9,14.7,33
				c0.3,10.7,9,19.4,19.8,19.4c4.5,0,8.6-1.5,12-4c0.3,0,0.7,0.1,1,0.1c5.3,15.2,19.8,26.2,36.8,26.2c19.4,0,35.6-14.2,38.5-32.9
				c1.2,0.3,2.5,0.5,3.9,0.5c8.1,0,14.7-6.6,14.7-14.7c0-8.1-6.6-14.7-14.7-14.7c-3.3,0-6.4,1.1-8.8,2.9c-2.6-4.3-5.9-8-9.8-11.1
				c5.1-0.4,9.1-4.7,9.1-10c0-3.5-1.8-6.6-4.6-8.4c3.1-2.4,5.3-5.8,6-9.8c1.5-0.5,3-1.2,4.3-2c0,0.5,0,1,0,1.5
				c-2.2,3.7-3.5,8-3.5,12.6c0,13.4,10.9,24.3,24.3,24.3c2.4,0,4.7-0.3,6.9-1c0.4,5.9,5.3,10.6,11.3,10.6c3.7,0,6.9-1.7,8.9-4.4
				c0.7,0,1.4,0,2,0c1.5,0,3-0.1,4.5-0.3c5.1,18.7,22.1,32.5,42.4,32.5c8.7,0,16.8-2.5,23.7-6.9c0.6,0,1.2,0,1.9,0
				c1.9,0,3.8-0.1,5.7-0.4c3.9,1.7,8,2.8,12.4,3.3c0.9,0.6,1.8,1.2,2.7,1.8c5.8,20.1,24.2,34.7,46.1,34.7c26.4,0,47.7-21.2,48-47.5
				c9,10.2,22.3,16.7,37,16.7c6.2,0,12.1-1.2,17.6-3.3c7.5,14,22.4,23.6,39.4,23.6c18.6,0,34.5-11.3,41.3-27.4
				c7.8-3,13.8-9.6,15.8-17.8C607.6,597.9,611.2,590.7,611.2,582.7z"/>
			<path class="st3" d="M611.2,582.7c0-14.3-11.6-25.9-25.9-25.9c-6.6,0-12.5,2.4-17.1,6.5c1.1-3.1,1.6-6.4,1.6-9.9
				c0-1.8-0.2-3.6-0.5-5.4c-0.6-15.6-10.8-28.8-25-33.6c-5.5-9.4-15.7-15.7-27.3-15.7c-3.6,0-7.1,0.6-10.3,1.7c-0.2,0-0.4,0-0.5,0
				c-2,0-4,0.2-5.9,0.6c-0.3,0-0.6-0.1-0.9-0.1c0-0.8,0.1-1.6,0.1-2.4c0-2.4-0.2-4.8-0.6-7.1c-0.4-7.2-3.5-13.8-8.4-18.6
				c-7.6-9.5-19.2-15.6-32.3-15.6c-3.7,0-7.3,0.5-10.8,1.4c-5.5-2.3-11.5-3.6-17.9-3.6c-16.2,0-30.4,8.4-38.5,21.1
				c-4.9-2.9-10.6-4.6-16.7-4.6c-5.5,0-10.6,1.4-15.1,3.7c-6.2-6.1-14.7-9.8-24-9.8c-12,0-22.6,6.2-28.8,15.6c-0.5,0-1-0.1-1.5-0.1
				c-9.8,0-18,6.7-20.3,15.8c-6.1-5.1-13.9-8.1-22.5-8.1c-1.7,0-3.3,0.1-4.9,0.4c-6.1-6.9-14.9-11.3-24.9-11.3
				c-15.3,0-28.1,10.4-31.9,24.4h-0.1c-5.5,0-10.5,1.7-14.7,4.6c-5.7-5.5-12.7-9.6-20.5-11.8c-3.9-3.8-9.3-6.1-15.1-6.1
				c-6.5,0-12.3,2.8-16.3,7.4c-14.4,5.5-25.7,17.5-30.1,32.4c-2.6,1-4.7,2.8-6.1,5.2c-2.4-1.4-5.2-2.2-8.2-2.2
				c-9.1,0-16.4,7.3-16.4,16.4s7.3,16.4,16.4,16.4c0.8,0,1.7-0.1,2.5-0.2c-1,3.6-1.5,7.5-1.5,11.4c0,13.1,5.7,24.9,14.7,33
				c0.3,10.7,9,19.4,19.8,19.4c4.5,0,8.6-1.5,12-4c0.3,0,0.7,0.1,1,0.1c5.3,15.2,19.8,26.2,36.8,26.2c19.4,0,35.6-14.2,38.5-32.9
				c1.2,0.3,2.5,0.5,3.9,0.5c8.1,0,14.7-6.6,14.7-14.7c0-8.1-6.6-14.7-14.7-14.7c-3.3,0-6.4,1.1-8.8,2.9c-2.6-4.3-5.9-8-9.8-11.1
				c5.1-0.4,9.1-4.7,9.1-10c0-3.5-1.8-6.6-4.6-8.4c3.1-2.4,5.3-5.8,6-9.8c1.5-0.5,3-1.2,4.3-2c0,0.5,0,1,0,1.5
				c-2.2,3.7-3.5,8-3.5,12.6c0,13.4,10.9,24.3,24.3,24.3c2.4,0,4.7-0.3,6.9-1c0.4,5.9,5.3,10.6,11.3,10.6c3.7,0,6.9-1.7,8.9-4.4
				c0.7,0,1.4,0,2,0c1.5,0,3-0.1,4.5-0.3c5.1,18.7,22.1,32.5,42.4,32.5c8.7,0,16.8-2.5,23.7-6.9c0.6,0,1.2,0,1.9,0
				c1.9,0,3.8-0.1,5.7-0.4c3.9,1.7,8,2.8,12.4,3.3c0.9,0.6,1.8,1.2,2.7,1.8c5.8,20.1,24.2,34.7,46.1,34.7c26.4,0,47.7-21.2,48-47.5
				c9,10.2,22.3,16.7,37,16.7c6.2,0,12.1-1.2,17.6-3.3c7.5,14,22.4,23.6,39.4,23.6c18.6,0,34.5-11.3,41.3-27.4
				c7.8-3,13.8-9.6,15.8-17.8C607.6,597.9,611.2,590.7,611.2,582.7z"/>
		</g>
	</g>
</g>
<linearGradient id="SVGID_19_" gradientUnits="userSpaceOnUse" x1="518.95" y1="635.15" x2="518.95" y2="765.85">
	<stop  offset="0.3769" style="stop-color:#FFFFFF"/>
	<stop  offset="0.7487" style="stop-color:#DDD9C7"/>
</linearGradient>
<path class="st26" d="M376.5,676.3c0,11.6,9.3,21,20.8,21c2.8,0,5.4-0.5,7.8-1.5c0.7,2.7,1.6,5.3,2.7,7.7c-2.4,1.4-4,4-4,7
	c0,4.5,3.6,8.2,8.1,8.2c2,0,3.8-0.7,5.2-1.9c7.7,7.5,18.2,12.1,29.8,12.1c1,0,1.9,0,2.9-0.1c-0.9,2.8-1.5,5.8-1.5,9
	c0,15.5,12.5,28.1,27.8,28.1c6.6,0,12.6-2.3,17.4-6.2c4.1,1.2,8.5,1.8,13,1.8c18,0,33.7-10.2,41.7-25.1c4.2,2.4,8.7,4.2,13.5,5.3
	c8.4,10.6,21.2,17.4,35.7,17.4c25.2,0,45.6-20.6,45.6-46.1c0-1,0-2-0.1-3c10.5-2.1,18.5-11.4,18.5-22.7c0-12.8-10.3-23.1-22.9-23.1
	c-7.4,0-13.9,3.5-18.1,9c-1.4-0.8-2.8-1.6-4.3-2.3c-8.1-16-24.6-27-43.6-27c-6.7,0-13.2,1.4-19,3.8c-5.8-7.6-14.8-12.5-25-12.5
	c-17.3,0-31.4,14.2-31.5,31.7c-3.4,0.7-6.7,1.8-9.8,3.2c-6.1-16.4-21.8-28.1-40.2-28.1c-14.7,0-27.6,7.4-35.4,18.8
	c-0.7-0.6-1.4-1.2-2.2-1.8c1.6-1.4,2.7-3.4,2.7-5.8c0-4.2-3.3-7.5-7.4-7.5s-7.4,3.4-7.4,7.5c0,0.7,0.1,1.3,0.3,1.9l0,0
	C385.8,655.1,376.5,664.5,376.5,676.3z"/>
<ellipse class="st27" cx="685.4" cy="328.9" rx="281.6" ry="267.9"/>
</svg>
